{
.appVersion = "1352";
DisplayStrings = (
"-o­ng",

glyphs = (
{
glyphname = .notdef;
lastChange = "2021-08-10 19:52:28 +0000";
layers = (
{
layerId = "3191725B-F824-48C7-90A0-BAE99CBF9356";
paths = (
{
closed = 1;
nodes = (
"462 0 LINE",
"471 10 LINE",
"471 611 LINE",
"462 621 LINE",
"50 621 LINE",
"40 611 LINE",
"40 10 LINE",
"50 0 LINE",
"50 0 LINE"
);
},
{
closed = 1;
nodes = (
"143 148 LINE",
"231 312 LINE",
"143 472 LINE",
"161 507 LINE",
"249 345 LINE",
"339 507 LINE",
"360 472 LINE",
"269 309 LINE",
"360 148 LINE",
"339 114 LINE",
"249 274 LINE",
"161 114 LINE",
"161 114 LINE"
);
},
{
closed = 1;
nodes = (
"57 604 LINE",
"456 604 LINE",
"456 17 LINE",
"57 17 LINE",
"57 17 LINE"
);
},
{
closed = 1;
nodes = (
"421 48 LINE",
"421 568 LINE",
"90 568 LINE",
"90 48 LINE",
"90 48 LINE"
);
}
);
width = 511;
}
);
note = .notdef;
},
{
glyphname = A;
lastChange = "2021-08-10 19:52:28 +0000";
layers = (
{
anchors = (
{
name = bottom;
position = "{204, 0}";
},
{
name = ogonek;
position = "{584, 10}";
},
{
name = top;
position = "{695, 700}";
}
);
layerId = "3191725B-F824-48C7-90A0-BAE99CBF9356";
paths = (
{
closed = 1;
nodes = (
"-221 -163 LINE",
"-208 -163 OFFCURVE",
"-195 -161 OFFCURVE",
"-182 -157 CURVE SMOOTH",
"-143 -147 OFFCURVE",
"-96 -108 OFFCURVE",
"-41 -40 CURVE SMOOTH",
"-26 -21 OFFCURVE",
"26 52 OFFCURVE",
"117 180 CURVE",
"153 131 OFFCURVE",
"195 83 OFFCURVE",
"244 38 CURVE SMOOTH",
"288 -3 OFFCURVE",
"328 -35 OFFCURVE",
"365 -57 CURVE SMOOTH",
"369 -59 OFFCURVE",
"372 -60 OFFCURVE",
"374 -60 CURVE SMOOTH",
"378 -60 OFFCURVE",
"380 -58 OFFCURVE",
"380 -52 CURVE SMOOTH",
"380 -49 OFFCURVE",
"378 -45 OFFCURVE",
"373 -42 CURVE SMOOTH",
"276 25 OFFCURVE",
"196 107 OFFCURVE",
"135 205 CURVE",
"188 279 OFFCURVE",
"235 339 OFFCURVE",
"278 385 CURVE",
"339 308 OFFCURVE",
"379 214 OFFCURVE",
"397 105 CURVE",
"400 64 OFFCURVE",
"414 33 OFFCURVE",
"440 10 CURVE SMOOTH",
"460 -7 OFFCURVE",
"482 -16 OFFCURVE",
"505 -16 CURVE SMOOTH",
"541 -16 OFFCURVE",
"579 11 OFFCURVE",
"616 70 CURVE SMOOTH",
"624 82 OFFCURVE",
"645 126 OFFCURVE",
"683 201 CURVE SMOOTH",
"686 207 OFFCURVE",
"688 212 OFFCURVE",
"688 217 CURVE SMOOTH",
"688 221 OFFCURVE",
"686 224 OFFCURVE",
"684 224 CURVE SMOOTH",
"683 224 LINE SMOOTH",
"679 223 OFFCURVE",
"675 219 OFFCURVE",
"672 212 CURVE SMOOTH",
"609 81 OFFCURVE",
"560 16 OFFCURVE",
"526 16 CURVE SMOOTH",
"492 16 OFFCURVE",
"475 37 OFFCURVE",
"475 79 CURVE SMOOTH",
"475 92 OFFCURVE",
"477 108 OFFCURVE",
"480 127 CURVE SMOOTH",
"498 222 OFFCURVE",
"582 405 OFFCURVE",
"732 674 CURVE SMOOTH",
"734 678 OFFCURVE",
"735 681 OFFCURVE",
"735 684 CURVE SMOOTH",
"735 694 OFFCURVE",
"723 699 OFFCURVE",
"700 699 CURVE SMOOTH",
"642 699 OFFCURVE",
"568 668 OFFCURVE",
"479 606 CURVE SMOOTH",
"411 559 OFFCURVE",
"346 503 OFFCURVE",
"283 438 CURVE",
"226 510 OFFCURVE",
"172 546 OFFCURVE",
"120 546 CURVE SMOOTH",
"92 546 OFFCURVE",
"69 534 OFFCURVE",
"51 511 CURVE SMOOTH",
"34 488 OFFCURVE",
"25 458 OFFCURVE",
"25 419 CURVE SMOOTH",
"25 353 OFFCURVE",
"49 283 OFFCURVE",
"98 208 CURVE",
"69 165 OFFCURVE",
"41 123 OFFCURVE",
"12 81 CURVE SMOOTH",
"-32 17 OFFCURVE",
"-73 -31 OFFCURVE",
"-109 -66 CURVE SMOOTH",
"-157 -113 OFFCURVE",
"-199 -137 OFFCURVE",
"-235 -137 CURVE SMOOTH",
"-258 -137 OFFCURVE",
"-272 -130 OFFCURVE",
"-276 -115 CURVE",
"-267 -124 OFFCURVE",
"-256 -129 OFFCURVE",
"-243 -129 CURVE SMOOTH",
"-230 -129 OFFCURVE",
"-218 -124 OFFCURVE",
"-207 -114 CURVE SMOOTH",
"-195 -104 OFFCURVE",
"-188 -89 OFFCURVE",
"-188 -73 CURVE SMOOTH",
"-188 -63 OFFCURVE",
"-193 -53 OFFCURVE",
"-200 -45 CURVE SMOOTH",
"-209 -36 OFFCURVE",
"-220 -31 OFFCURVE",
"-233 -31 CURVE SMOOTH",
"-251 -31 OFFCURVE",
"-266 -39 OFFCURVE",
"-279 -54 CURVE SMOOTH",
"-291 -69 OFFCURVE",
"-297 -85 OFFCURVE",
"-297 -104 CURVE SMOOTH",
"-297 -125 OFFCURVE",
"-288 -141 OFFCURVE",
"-270 -151 CURVE SMOOTH",
"-257 -159 OFFCURVE",
"-240 -163 OFFCURVE",
"-221 -163 CURVE"
);
},
{
closed = 1;
nodes = (
"117 235 LINE",
"92 284 OFFCURVE",
"79 332 OFFCURVE",
"79 378 CURVE SMOOTH",
"79 407 OFFCURVE",
"85 431 OFFCURVE",
"97 450 CURVE SMOOTH",
"108 468 OFFCURVE",
"124 477 OFFCURVE",
"144 477 CURVE SMOOTH",
"177 477 OFFCURVE",
"214 455 OFFCURVE",
"256 410 CURVE",
"215 365 OFFCURVE",
"169 306 OFFCURVE",
"117 235 CURVE"
);
},
{
closed = 1;
nodes = (
"404 176 LINE",
"382 266 OFFCURVE",
"348 344 OFFCURVE",
"303 411 CURVE",
"344 452 OFFCURVE",
"392 493 OFFCURVE",
"449 533 CURVE SMOOTH",
"521 583 OFFCURVE",
"576 607 OFFCURVE",
"614 607 CURVE SMOOTH",
"627 607 OFFCURVE",
"633 603 OFFCURVE",
"633 594 CURVE SMOOTH",
"633 587 OFFCURVE",
"630 579 OFFCURVE",
"623 569 CURVE SMOOTH",
"565 484 OFFCURVE",
"507 390 OFFCURVE",
"450 289 CURVE SMOOTH",
"427 249 OFFCURVE",
"412 211 OFFCURVE",
"404 176 CURVE"
);
}
);
width = 606;
}
);
note = A;
unicode = 0041;
},
{
glyphname = AE;
lastChange = "2021-08-10 19:52:28 +0000";
layers = (
{
anchors = (
{
name = bottom;
position = "{480, 0}";
},
{
name = top;
position = "{820, 695}";
}
);
layerId = "3191725B-F824-48C7-90A0-BAE99CBF9356";
paths = (
{
closed = 1;
nodes = (
"-221 -163 LINE",
"-208 -163 OFFCURVE",
"-195 -161 OFFCURVE",
"-182 -157 CURVE SMOOTH",
"-143 -147 OFFCURVE",
"-96 -108 OFFCURVE",
"-41 -40 CURVE SMOOTH",
"-26 -21 OFFCURVE",
"26 52 OFFCURVE",
"117 180 CURVE",
"153 131 OFFCURVE",
"195 83 OFFCURVE",
"244 38 CURVE SMOOTH",
"288 -3 OFFCURVE",
"328 -35 OFFCURVE",
"365 -57 CURVE SMOOTH",
"369 -59 OFFCURVE",
"372 -60 OFFCURVE",
"374 -60 CURVE SMOOTH",
"378 -60 OFFCURVE",
"380 -58 OFFCURVE",
"380 -52 CURVE SMOOTH",
"380 -49 OFFCURVE",
"378 -45 OFFCURVE",
"373 -42 CURVE SMOOTH",
"276 25 OFFCURVE",
"196 107 OFFCURVE",
"135 205 CURVE",
"188 279 OFFCURVE",
"235 339 OFFCURVE",
"277 385 CURVE",
"339 308 OFFCURVE",
"379 214 OFFCURVE",
"397 105 CURVE",
"401 50 OFFCURVE",
"426 8 OFFCURVE",
"473 -23 CURVE SMOOTH",
"514 -50 OFFCURVE",
"563 -63 OFFCURVE",
"620 -63 CURVE SMOOTH",
"704 -63 OFFCURVE",
"779 -36 OFFCURVE",
"846 17 CURVE SMOOTH",
"907 66 OFFCURVE",
"938 115 OFFCURVE",
"938 165 CURVE SMOOTH",
"938 218 OFFCURVE",
"899 244 OFFCURVE",
"822 244 CURVE SMOOTH",
"811 244 OFFCURVE",
"798 243 OFFCURVE",
"785 242 CURVE SMOOTH",
"731 237 OFFCURVE",
"677 213 OFFCURVE",
"622 172 CURVE SMOOTH",
"577 139 OFFCURVE",
"549 110 OFFCURVE",
"538 85 CURVE",
"537 81 OFFCURVE",
"538 78 OFFCURVE",
"542 76 CURVE SMOOTH",
"546 74 OFFCURVE",
"549 75 OFFCURVE",
"550 79 CURVE",
"559 99 OFFCURVE",
"589 127 OFFCURVE",
"638 161 CURVE SMOOTH",
"694 200 OFFCURVE",
"740 219 OFFCURVE",
"775 219 CURVE SMOOTH",
"849 219 OFFCURVE",
"886 195 OFFCURVE",
"886 147 CURVE SMOOTH",
"886 104 OFFCURVE",
"859 62 OFFCURVE",
"806 19 CURVE SMOOTH",
"749 -27 OFFCURVE",
"687 -50 OFFCURVE",
"620 -50 CURVE SMOOTH",
"575 -50 OFFCURVE",
"540 -34 OFFCURVE",
"515 -3 CURVE SMOOTH",
"492 26 OFFCURVE",
"481 63 OFFCURVE",
"481 108 CURVE SMOOTH",
"481 120 OFFCURVE",
"482 132 OFFCURVE",
"484 145 CURVE SMOOTH",
"491 174 OFFCURVE",
"504 210 OFFCURVE",
"522 255 CURVE",
"559 318 OFFCURVE",
"609 354 OFFCURVE",
"672 364 CURVE",
"695 341 OFFCURVE",
"724 329 OFFCURVE",
"758 329 CURVE SMOOTH",
"784 329 OFFCURVE",
"797 337 OFFCURVE",
"797 352 CURVE SMOOTH",
"797 368 OFFCURVE",
"785 377 OFFCURVE",
"761 379 CURVE SMOOTH",
"738 380 OFFCURVE",
"715 381 OFFCURVE",
"693 380 CURVE",
"689 389 OFFCURVE",
"686 399 OFFCURVE",
"685 411 CURVE",
"809 415 OFFCURVE",
"905 441 OFFCURVE",
"973 488 CURVE SMOOTH",
"1027 526 OFFCURVE",
"1054 564 OFFCURVE",
"1054 603 CURVE SMOOTH",
"1054 627 OFFCURVE",
"1043 647 OFFCURVE",
"1020 662 CURVE SMOOTH",
"998 677 OFFCURVE",
"969 685 OFFCURVE",
"932 685 CURVE SMOOTH",
"916 685 OFFCURVE",
"899 684 OFFCURVE",
"882 681 CURVE SMOOTH",
"795 666 OFFCURVE",
"730 635 OFFCURVE",
"685 588 CURVE",
"701 618 OFFCURVE",
"717 647 OFFCURVE",
"732 674 CURVE SMOOTH",
"734 678 OFFCURVE",
"735 681 OFFCURVE",
"735 684 CURVE SMOOTH",
"735 694 OFFCURVE",
"723 699 OFFCURVE",
"700 699 CURVE SMOOTH",
"642 699 OFFCURVE",
"568 668 OFFCURVE",
"479 606 CURVE SMOOTH",
"411 559 OFFCURVE",
"345 503 OFFCURVE",
"282 438 CURVE",
"226 510 OFFCURVE",
"172 546 OFFCURVE",
"120 546 CURVE SMOOTH",
"91 546 OFFCURVE",
"68 534 OFFCURVE",
"51 511 CURVE SMOOTH",
"34 488 OFFCURVE",
"25 458 OFFCURVE",
"25 419 CURVE SMOOTH",
"25 353 OFFCURVE",
"49 283 OFFCURVE",
"98 208 CURVE",
"69 165 OFFCURVE",
"41 123 OFFCURVE",
"12 81 CURVE SMOOTH",
"-33 17 OFFCURVE",
"-74 -31 OFFCURVE",
"-109 -66 CURVE SMOOTH",
"-157 -113 OFFCURVE",
"-199 -137 OFFCURVE",
"-235 -137 CURVE SMOOTH",
"-258 -137 OFFCURVE",
"-272 -130 OFFCURVE",
"-276 -115 CURVE",
"-267 -124 OFFCURVE",
"-256 -129 OFFCURVE",
"-243 -129 CURVE SMOOTH",
"-230 -129 OFFCURVE",
"-218 -124 OFFCURVE",
"-207 -114 CURVE SMOOTH",
"-196 -104 OFFCURVE",
"-190 -90 OFFCURVE",
"-190 -75 CURVE SMOOTH",
"-190 -64 OFFCURVE",
"-193 -54 OFFCURVE",
"-201 -45 CURVE SMOOTH",
"-209 -36 OFFCURVE",
"-220 -31 OFFCURVE",
"-233 -31 CURVE SMOOTH",
"-251 -31 OFFCURVE",
"-266 -39 OFFCURVE",
"-279 -54 CURVE SMOOTH",
"-291 -69 OFFCURVE",
"-297 -85 OFFCURVE",
"-297 -104 CURVE SMOOTH",
"-297 -125 OFFCURVE",
"-288 -141 OFFCURVE",
"-270 -151 CURVE SMOOTH",
"-257 -159 OFFCURVE",
"-240 -163 OFFCURVE",
"-221 -163 CURVE"
);
},
{
closed = 1;
nodes = (
"117 235 LINE",
"91 284 OFFCURVE",
"78 332 OFFCURVE",
"78 378 CURVE SMOOTH",
"78 407 OFFCURVE",
"84 431 OFFCURVE",
"96 450 CURVE SMOOTH",
"107 468 OFFCURVE",
"123 477 OFFCURVE",
"144 477 CURVE SMOOTH",
"177 477 OFFCURVE",
"214 455 OFFCURVE",
"256 410 CURVE",
"215 365 OFFCURVE",
"168 306 OFFCURVE",
"117 235 CURVE"
);
},
{
closed = 1;
nodes = (
"404 176 LINE",
"382 266 OFFCURVE",
"348 344 OFFCURVE",
"302 411 CURVE",
"343 452 OFFCURVE",
"392 493 OFFCURVE",
"449 533 CURVE SMOOTH",
"521 583 OFFCURVE",
"576 607 OFFCURVE",
"614 607 CURVE SMOOTH",
"627 607 OFFCURVE",
"633 603 OFFCURVE",
"633 594 CURVE SMOOTH",
"633 587 OFFCURVE",
"630 579 OFFCURVE",
"623 569 CURVE SMOOTH",
"588 518 OFFCURVE",
"561 477 OFFCURVE",
"543 448 CURVE",
"520 457 OFFCURVE",
"507 470 OFFCURVE",
"506 487 CURVE SMOOTH",
"505 494 OFFCURVE",
"502 497 OFFCURVE",
"497 497 CURVE SMOOTH",
"493 497 OFFCURVE",
"491 495 OFFCURVE",
"491 490 CURVE SMOOTH",
"491 487 LINE SMOOTH",
"493 461 OFFCURVE",
"505 442 OFFCURVE",
"528 433 CURVE SMOOTH",
"533 431 LINE",
"512 398 OFFCURVE",
"485 351 OFFCURVE",
"450 289 CURVE SMOOTH",
"427 249 OFFCURVE",
"412 211 OFFCURVE",
"404 176 CURVE"
);
},
{
closed = 1;
nodes = (
"566 354 LINE",
"575 373 OFFCURVE",
"584 392 OFFCURVE",
"595 413 CURVE",
"609 412 OFFCURVE",
"624 412 OFFCURVE",
"641 411 CURVE",
"646 399 OFFCURVE",
"652 388 OFFCURVE",
"660 377 CURVE",
"627 374 OFFCURVE",
"595 366 OFFCURVE",
"566 354 CURVE"
);
},
{
closed = 1;
nodes = (
"636 427 LINE",
"624 428 OFFCURVE",
"613 428 OFFCURVE",
"602 428 CURVE",
"613 449 OFFCURVE",
"624 470 OFFCURVE",
"635 492 CURVE",
"633 482 OFFCURVE",
"632 472 OFFCURVE",
"632 462 CURVE SMOOTH",
"632 450 OFFCURVE",
"633 439 OFFCURVE",
"636 427 CURVE"
);
},
{
closed = 1;
nodes = (
"685 428 LINE",
"689 481 OFFCURVE",
"716 531 OFFCURVE",
"767 576 CURVE SMOOTH",
"829 631 OFFCURVE",
"893 658 OFFCURVE",
"958 658 CURVE SMOOTH",
"1007 658 OFFCURVE",
"1031 643 OFFCURVE",
"1031 613 CURVE SMOOTH",
"1031 584 OFFCURVE",
"1003 549 OFFCURVE",
"946 509 CURVE SMOOTH",
"876 460 OFFCURVE",
"789 433 OFFCURVE",
"685 428 CURVE"
);
}
);
width = 959;
}
);
note = AE;
unicode = 00C6;
},
{
glyphname = B;
lastChange = "2021-08-10 19:52:28 +0000";
layers = (
{
layerId = "3191725B-F824-48C7-90A0-BAE99CBF9356";
paths = (
{
closed = 1;
nodes = (
"47 -58 LINE",
"107 -58 OFFCURVE",
"172 -31 OFFCURVE",
"240 25 CURVE",
"239 -28 OFFCURVE",
"283 -54 OFFCURVE",
"370 -54 CURVE SMOOTH",
"380 -54 OFFCURVE",
"390 -54 OFFCURVE",
"400 -53 CURVE SMOOTH",
"496 -46 OFFCURVE",
"577 -13 OFFCURVE",
"644 46 CURVE SMOOTH",
"706 101 OFFCURVE",
"737 158 OFFCURVE",
"737 219 CURVE SMOOTH",
"737 291 OFFCURVE",
"692 335 OFFCURVE",
"601 351 CURVE",
"656 370 OFFCURVE",
"701 401 OFFCURVE",
"737 443 CURVE SMOOTH",
"774 486 OFFCURVE",
"794 530 OFFCURVE",
"794 575 CURVE SMOOTH",
"794 606 OFFCURVE",
"782 631 OFFCURVE",
"760 653 CURVE SMOOTH",
"732 679 OFFCURVE",
"691 694 OFFCURVE",
"636 699 CURVE",
"665 723 OFFCURVE",
"696 735 OFFCURVE",
"728 735 CURVE SMOOTH",
"743 735 OFFCURVE",
"757 732 OFFCURVE",
"768 726 CURVE SMOOTH",
"773 723 OFFCURVE",
"776 727 OFFCURVE",
"776 736 CURVE SMOOTH",
"776 739 OFFCURVE",
"774 742 OFFCURVE",
"771 743 CURVE SMOOTH",
"755 750 OFFCURVE",
"737 754 OFFCURVE",
"718 754 CURVE SMOOTH",
"673 754 OFFCURVE",
"630 736 OFFCURVE",
"588 700 CURVE",
"506 699 OFFCURVE",
"423 683 OFFCURVE",
"338 652 CURVE SMOOTH",
"239 616 OFFCURVE",
"170 568 OFFCURVE",
"129 510 CURVE SMOOTH",
"112 486 OFFCURVE",
"103 463 OFFCURVE",
"103 440 CURVE SMOOTH",
"103 393 OFFCURVE",
"134 369 OFFCURVE",
"196 369 CURVE SMOOTH",
"226 369 OFFCURVE",
"271 385 OFFCURVE",
"330 417 CURVE SMOOTH",
"394 451 OFFCURVE",
"426 481 OFFCURVE",
"426 507 CURVE SMOOTH",
"426 511 OFFCURVE",
"423 512 OFFCURVE",
"419 512 CURVE SMOOTH",
"417 512 OFFCURVE",
"415 511 OFFCURVE",
"413 509 CURVE SMOOTH",
"388 478 OFFCURVE",
"357 451 OFFCURVE",
"321 430 CURVE SMOOTH",
"282 407 OFFCURVE",
"245 396 OFFCURVE",
"210 396 CURVE SMOOTH",
"180 396 OFFCURVE",
"165 409 OFFCURVE",
"165 435 CURVE SMOOTH",
"165 479 OFFCURVE",
"198 527 OFFCURVE",
"263 578 CURVE SMOOTH",
"297 605 OFFCURVE",
"344 629 OFFCURVE",
"405 650 CURVE SMOOTH",
"465 670 OFFCURVE",
"520 682 OFFCURVE",
"571 684 CURVE",
"548 663 OFFCURVE",
"527 637 OFFCURVE",
"511 606 CURVE SMOOTH",
"362 313 LINE SMOOTH",
"303 197 OFFCURVE",
"255 116 OFFCURVE",
"218 71 CURVE SMOOTH",
"175 20 OFFCURVE",
"125 -13 OFFCURVE",
"68 -28 CURVE SMOOTH",
"61 -30 OFFCURVE",
"53 -31 OFFCURVE",
"46 -31 CURVE SMOOTH",
"15 -31 OFFCURVE",
"-4 -21 OFFCURVE",
"-11 -2 CURVE",
"-3 -10 OFFCURVE",
"7 -14 OFFCURVE",
"19 -14 CURVE SMOOTH",
"32 -14 OFFCURVE",
"45 -9 OFFCURVE",
"56 1 CURVE SMOOTH",
"70 12 OFFCURVE",
"76 28 OFFCURVE",
"76 44 CURVE SMOOTH",
"76 54 OFFCURVE",
"73 62 OFFCURVE",
"67 70 CURVE SMOOTH",
"59 79 OFFCURVE",
"48 84 OFFCURVE",
"34 84 CURVE SMOOTH",
"15 84 OFFCURVE",
"-2 76 OFFCURVE",
"-16 61 CURVE SMOOTH",
"-30 46 OFFCURVE",
"-37 28 OFFCURVE",
"-37 8 CURVE SMOOTH",
"-37 -36 OFFCURVE",
"-8 -58 OFFCURVE",
"47 -58 CURVE"
);
},
{
closed = 1;
nodes = (
"364 -37 LINE",
"335 -37 OFFCURVE",
"315 -29 OFFCURVE",
"302 -14 CURVE SMOOTH",
"295 -5 OFFCURVE",
"291 5 OFFCURVE",
"291 17 CURVE SMOOTH",
"291 39 OFFCURVE",
"305 64 OFFCURVE",
"334 94 CURVE SMOOTH",
"381 143 OFFCURVE",
"448 178 OFFCURVE",
"536 201 CURVE SMOOTH",
"557 206 OFFCURVE",
"567 213 OFFCURVE",
"567 218 CURVE SMOOTH",
"567 221 OFFCURVE",
"563 222 OFFCURVE",
"556 222 CURVE SMOOTH",
"551 222 OFFCURVE",
"544 221 OFFCURVE",
"535 219 CURVE SMOOTH",
"474 206 OFFCURVE",
"417 187 OFFCURVE",
"364 160 CURVE",
"377 179 OFFCURVE",
"388 196 OFFCURVE",
"397 212 CURVE SMOOTH",
"423 260 OFFCURVE",
"441 299 OFFCURVE",
"452 326 CURVE",
"471 328 OFFCURVE",
"489 329 OFFCURVE",
"506 329 CURVE SMOOTH",
"560 329 OFFCURVE",
"601 318 OFFCURVE",
"629 296 CURVE SMOOTH",
"654 276 OFFCURVE",
"667 249 OFFCURVE",
"667 215 CURVE SMOOTH",
"667 171 OFFCURVE",
"647 126 OFFCURVE",
"607 79 CURVE SMOOTH",
"568 32 OFFCURVE",
"519 0 OFFCURVE",
"462 -18 CURVE SMOOTH",
"422 -30 OFFCURVE",
"390 -37 OFFCURVE",
"364 -37 CURVE"
);
},
{
closed = 1;
nodes = (
"463 352 LINE",
"558 586 LINE SMOOTH",
"574 625 OFFCURVE",
"593 658 OFFCURVE",
"618 683 CURVE",
"657 678 OFFCURVE",
"687 663 OFFCURVE",
"706 639 CURVE SMOOTH",
"721 621 OFFCURVE",
"729 598 OFFCURVE",
"729 572 CURVE SMOOTH",
"729 523 OFFCURVE",
"709 477 OFFCURVE",
"671 434 CURVE SMOOTH",
"634 392 OFFCURVE",
"591 366 OFFCURVE",
"540 357 CURVE",
"516 357 OFFCURVE",
"490 355 OFFCURVE",
"463 352 CURVE"
);
}
);
width = 760;
}
);
note = B;
unicode = 0042;
},
{
glyphname = C;
lastChange = "2021-08-10 19:52:28 +0000";
layers = (
{
anchors = (
{
name = bottom;
position = "{277, -75}";
},
{
name = top;
position = "{651, 682}";
}
);
layerId = "3191725B-F824-48C7-90A0-BAE99CBF9356";
paths = (
{
closed = 1;
nodes = (
"277 -75 LINE",
"336 -75 OFFCURVE",
"395 -61 OFFCURVE",
"454 -34 CURVE SMOOTH",
"513 -7 OFFCURVE",
"560 29 OFFCURVE",
"597 76 CURVE SMOOTH",
"635 123 OFFCURVE",
"652 171 OFFCURVE",
"652 217 CURVE SMOOTH",
"652 245 OFFCURVE",
"644 268 OFFCURVE",
"629 287 CURVE SMOOTH",
"612 307 OFFCURVE",
"588 317 OFFCURVE",
"556 317 CURVE SMOOTH",
"509 317 OFFCURVE",
"455 295 OFFCURVE",
"394 249 CURVE SMOOTH",
"336 205 OFFCURVE",
"296 160 OFFCURVE",
"275 113 CURVE",
"274 112 OFFCURVE",
"274 110 OFFCURVE",
"274 108 CURVE SMOOTH",
"274 101 OFFCURVE",
"276 98 OFFCURVE",
"281 98 CURVE SMOOTH",
"284 98 OFFCURVE",
"286 100 OFFCURVE",
"288 103 CURVE SMOOTH",
"314 144 OFFCURVE",
"355 186 OFFCURVE",
"412 228 CURVE SMOOTH",
"475 274 OFFCURVE",
"527 297 OFFCURVE",
"570 297 CURVE SMOOTH",
"608 297 OFFCURVE",
"627 279 OFFCURVE",
"627 242 CURVE SMOOTH",
"627 201 OFFCURVE",
"605 155 OFFCURVE",
"561 102 CURVE SMOOTH",
"474 -2 OFFCURVE",
"387 -54 OFFCURVE",
"298 -54 CURVE SMOOTH",
"249 -54 OFFCURVE",
"213 -37 OFFCURVE",
"189 -2 CURVE SMOOTH",
"171 24 OFFCURVE",
"161 60 OFFCURVE",
"161 103 CURVE SMOOTH",
"161 178 OFFCURVE",
"189 261 OFFCURVE",
"244 349 CURVE",
"263 346 OFFCURVE",
"284 345 OFFCURVE",
"305 345 CURVE SMOOTH",
"462 345 OFFCURVE",
"592 383 OFFCURVE",
"696 459 CURVE SMOOTH",
"770 513 OFFCURVE",
"807 563 OFFCURVE",
"807 610 CURVE SMOOTH",
"807 658 OFFCURVE",
"762 682 OFFCURVE",
"671 682 CURVE SMOOTH",
"572 682 OFFCURVE",
"473 651 OFFCURVE",
"374 589 CURVE",
"320 636 OFFCURVE",
"256 660 OFFCURVE",
"182 660 CURVE SMOOTH",
"139 660 OFFCURVE",
"103 651 OFFCURVE",
"72 634 CURVE SMOOTH",
"33 612 OFFCURVE",
"13 578 OFFCURVE",
"13 536 CURVE SMOOTH",
"13 499 OFFCURVE",
"27 465 OFFCURVE",
"56 433 CURVE SMOOTH",
"83 404 OFFCURVE",
"116 382 OFFCURVE",
"157 368 CURVE",
"109 285 OFFCURVE",
"83 203 OFFCURVE",
"83 124 CURVE SMOOTH",
"83 66 OFFCURVE",
"97 20 OFFCURVE",
"127 -15 CURVE SMOOTH",
"161 -55 OFFCURVE",
"211 -75 OFFCURVE",
"277 -75 CURVE"
);
},
{
closed = 1;
nodes = (
"173 394 LINE",
"90 425 OFFCURVE",
"49 473 OFFCURVE",
"49 538 CURVE SMOOTH",
"49 573 OFFCURVE",
"62 600 OFFCURVE",
"89 619 CURVE SMOOTH",
"111 634 OFFCURVE",
"138 642 OFFCURVE",
"170 642 CURVE SMOOTH",
"233 642 OFFCURVE",
"294 619 OFFCURVE",
"351 574 CURVE",
"278 524 OFFCURVE",
"219 464 OFFCURVE",
"173 394 CURVE"
);
},
{
closed = 1;
nodes = (
"307 370 LINE",
"292 370 OFFCURVE",
"276 371 OFFCURVE",
"260 373 CURVE",
"299 430 OFFCURVE",
"346 482 OFFCURVE",
"399 528 CURVE",
"414 510 OFFCURVE",
"424 496 OFFCURVE",
"431 487 CURVE",
"433 483 OFFCURVE",
"437 481 OFFCURVE",
"442 481 CURVE SMOOTH",
"445 481 LINE SMOOTH",
"450 482 OFFCURVE",
"452 485 OFFCURVE",
"449 490 CURVE SMOOTH",
"440 509 OFFCURVE",
"429 526 OFFCURVE",
"417 543 CURVE",
"515 622 OFFCURVE",
"608 662 OFFCURVE",
"697 662 CURVE SMOOTH",
"742 662 OFFCURVE",
"765 648 OFFCURVE",
"765 621 CURVE SMOOTH",
"765 581 OFFCURVE",
"737 539 OFFCURVE",
"680 498 CURVE SMOOTH",
"596 437 OFFCURVE",
"506 397 OFFCURVE",
"410 379 CURVE SMOOTH",
"375 373 OFFCURVE",
"341 370 OFFCURVE",
"307 370 CURVE"
);
}
);
width = 678;
}
);
note = C;
unicode = 0043;
},
{
glyphname = D;
lastChange = "2021-08-10 19:52:28 +0000";
layers = (
{
anchors = (
{
name = bottom;
position = "{383, 0}";
},
{
name = center;
position = "{408, 339}";
},
{
name = top;
position = "{734, 750}";
}
);
layerId = "3191725B-F824-48C7-90A0-BAE99CBF9356";
paths = (
{
closed = 1;
nodes = (
"51 -58 LINE",
"121 -58 OFFCURVE",
"193 -24 OFFCURVE",
"267 47 CURVE",
"262 36 OFFCURVE",
"260 26 OFFCURVE",
"260 16 CURVE SMOOTH",
"260 -27 OFFCURVE",
"294 -49 OFFCURVE",
"361 -49 CURVE SMOOTH",
"370 -49 OFFCURVE",
"379 -48 OFFCURVE",
"389 -47 CURVE SMOOTH",
"498 -37 OFFCURVE",
"591 8 OFFCURVE",
"668 90 CURVE SMOOTH",
"743 169 OFFCURVE",
"787 263 OFFCURVE",
"798 371 CURVE SMOOTH",
"800 386 OFFCURVE",
"800 400 OFFCURVE",
"800 413 CURVE SMOOTH",
"800 482 OFFCURVE",
"782 541 OFFCURVE",
"745 590 CURVE SMOOTH",
"712 635 OFFCURVE",
"665 668 OFFCURVE",
"606 689 CURVE",
"640 722 OFFCURVE",
"676 738 OFFCURVE",
"713 738 CURVE SMOOTH",
"726 738 OFFCURVE",
"738 736 OFFCURVE",
"749 731 CURVE SMOOTH",
"752 730 OFFCURVE",
"754 731 OFFCURVE",
"756 735 CURVE SMOOTH",
"757 738 OFFCURVE",
"756 741 OFFCURVE",
"751 743 CURVE SMOOTH",
"734 750 OFFCURVE",
"717 754 OFFCURVE",
"698 754 CURVE SMOOTH",
"653 754 OFFCURVE",
"610 736 OFFCURVE",
"569 700 CURVE",
"535 709 OFFCURVE",
"499 713 OFFCURVE",
"462 713 CURVE SMOOTH",
"338 713 OFFCURVE",
"229 674 OFFCURVE",
"135 597 CURVE SMOOTH",
"51 528 OFFCURVE",
"9 461 OFFCURVE",
"9 396 CURVE SMOOTH",
"9 367 OFFCURVE",
"18 344 OFFCURVE",
"36 327 CURVE SMOOTH",
"53 310 OFFCURVE",
"76 301 OFFCURVE",
"104 301 CURVE SMOOTH",
"139 301 OFFCURVE",
"176 315 OFFCURVE",
"215 341 CURVE SMOOTH",
"264 375 OFFCURVE",
"299 421 OFFCURVE",
"319 481 CURVE SMOOTH",
"321 486 OFFCURVE",
"319 488 OFFCURVE",
"316 489 CURVE",
"313 489 OFFCURVE",
"310 486 OFFCURVE",
"308 481 CURVE SMOOTH",
"290 434 OFFCURVE",
"257 395 OFFCURVE",
"210 363 CURVE SMOOTH",
"163 331 OFFCURVE",
"126 315 OFFCURVE",
"97 315 CURVE SMOOTH",
"66 315 OFFCURVE",
"50 332 OFFCURVE",
"50 365 CURVE SMOOTH",
"50 394 OFFCURVE",
"62 427 OFFCURVE",
"86 465 CURVE SMOOTH",
"113 508 OFFCURVE",
"149 548 OFFCURVE",
"195 586 CURVE SMOOTH",
"282 658 OFFCURVE",
"371 694 OFFCURVE",
"464 694 CURVE SMOOTH",
"494 694 OFFCURVE",
"522 690 OFFCURVE",
"549 681 CURVE",
"521 650 OFFCURVE",
"480 579 OFFCURVE",
"427 469 CURVE SMOOTH",
"405 423 OFFCURVE",
"383 370 OFFCURVE",
"355 313 CURVE SMOOTH",
"293 189 OFFCURVE",
"244 110 OFFCURVE",
"215 73 CURVE SMOOTH",
"174 20 OFFCURVE",
"126 -13 OFFCURVE",
"71 -28 CURVE SMOOTH",
"64 -30 OFFCURVE",
"56 -31 OFFCURVE",
"48 -31 CURVE SMOOTH",
"17 -31 OFFCURVE",
"-2 -21 OFFCURVE",
"-9 -2 CURVE",
"0 -10 OFFCURVE",
"10 -14 OFFCURVE",
"22 -14 CURVE SMOOTH",
"35 -14 OFFCURVE",
"47 -9 OFFCURVE",
"58 1 CURVE SMOOTH",
"71 12 OFFCURVE",
"78 26 OFFCURVE",
"78 42 CURVE SMOOTH",
"78 52 OFFCURVE",
"74 62 OFFCURVE",
"67 70 CURVE SMOOTH",
"59 79 OFFCURVE",
"48 84 OFFCURVE",
"34 84 CURVE SMOOTH",
"15 84 OFFCURVE",
"-2 76 OFFCURVE",
"-16 61 CURVE SMOOTH",
"-28 47 OFFCURVE",
"-35 30 OFFCURVE",
"-35 12 CURVE SMOOTH",
"-35 -35 OFFCURVE",
"-6 -58 OFFCURVE",
"51 -58 CURVE"
);
},
{
closed = 1;
nodes = (
"363 -30 LINE",
"323 -30 OFFCURVE",
"302 -15 OFFCURVE",
"302 14 CURVE SMOOTH",
"302 41 OFFCURVE",
"324 73 OFFCURVE",
"368 112 CURVE SMOOTH",
"394 135 OFFCURVE",
"430 153 OFFCURVE",
"475 166 CURVE SMOOTH",
"510 176 OFFCURVE",
"541 181 OFFCURVE",
"569 181 CURVE SMOOTH",
"576 181 OFFCURVE",
"585 180 OFFCURVE",
"592 180 CURVE SMOOTH",
"597 180 OFFCURVE",
"600 182 OFFCURVE",
"600 186 CURVE SMOOTH",
"600 189 OFFCURVE",
"598 191 OFFCURVE",
"593 191 CURVE SMOOTH",
"552 194 OFFCURVE",
"510 190 OFFCURVE",
"467 181 CURVE SMOOTH",
"416 171 OFFCURVE",
"378 150 OFFCURVE",
"343 132 CURVE SMOOTH",
"341 131 LINE",
"362 160 OFFCURVE",
"380 186 OFFCURVE",
"393 212 CURVE SMOOTH",
"420 266 OFFCURVE",
"439 309 OFFCURVE",
"450 340 CURVE SMOOTH",
"467 387 OFFCURVE",
"482 435 OFFCURVE",
"499 482 CURVE SMOOTH",
"533 576 OFFCURVE",
"563 637 OFFCURVE",
"586 667 CURVE",
"681 621 OFFCURVE",
"729 536 OFFCURVE",
"729 413 CURVE SMOOTH",
"729 394 OFFCURVE",
"728 375 OFFCURVE",
"725 355 CURVE SMOOTH",
"712 256 OFFCURVE",
"678 171 OFFCURVE",
"622 102 CURVE SMOOTH",
"559 25 OFFCURVE",
"480 -19 OFFCURVE",
"385 -29 CURVE SMOOTH",
"377 -30 OFFCURVE",
"370 -30 OFFCURVE",
"363 -30 CURVE"
);
}
);
width = 765;
}
);
note = D;
unicode = 0044;
},
{
glyphname = E;
lastChange = "2021-08-10 19:52:28 +0000";
layers = (
{
anchors = (
{
name = bottom;
position = "{231, -56}";
},
{
name = ogonek;
position = "{496, -8}";
},
{
name = top;
position = "{574, 685}";
},
{
name = topleft;
position = "{20, 754}";
}
);
layerId = "3191725B-F824-48C7-90A0-BAE99CBF9356";
paths = (
{
closed = 1;
nodes = (
"261 -63 LINE",
"440 -63 OFFCURVE",
"570 60 OFFCURVE",
"570 150 CURVE SMOOTH",
"570 201 OFFCURVE",
"527 242 OFFCURVE",
"426 242 CURVE SMOOTH",
"319 242 OFFCURVE",
"209 153 OFFCURVE",
"179 85 CURVE",
"178 81 OFFCURVE",
"179 78 OFFCURVE",
"183 76 CURVE SMOOTH",
"187 74 OFFCURVE",
"190 75 OFFCURVE",
"191 79 CURVE",
"213 128 OFFCURVE",
"332 219 OFFCURVE",
"415 219 CURVE SMOOTH",
"476 219 OFFCURVE",
"502 191 OFFCURVE",
"502 154 CURVE SMOOTH",
"502 74 OFFCURVE",
"388 -50 OFFCURVE",
"261 -50 CURVE SMOOTH",
"212 -50 OFFCURVE",
"173 -34 OFFCURVE",
"146 -1 CURVE SMOOTH",
"121 28 OFFCURVE",
"109 66 OFFCURVE",
"109 112 CURVE SMOOTH",
"109 170 OFFCURVE",
"127 223 OFFCURVE",
"162 271 CURVE SMOOTH",
"201 323 OFFCURVE",
"251 354 OFFCURVE",
"313 364 CURVE",
"336 341 OFFCURVE",
"365 329 OFFCURVE",
"399 329 CURVE SMOOTH",
"425 329 OFFCURVE",
"438 337 OFFCURVE",
"438 352 CURVE SMOOTH",
"438 368 OFFCURVE",
"426 377 OFFCURVE",
"402 379 CURVE SMOOTH",
"379 380 OFFCURVE",
"356 381 OFFCURVE",
"334 380 CURVE",
"330 389 OFFCURVE",
"327 399 OFFCURVE",
"326 411 CURVE",
"450 415 OFFCURVE",
"546 441 OFFCURVE",
"614 488 CURVE SMOOTH",
"668 526 OFFCURVE",
"695 564 OFFCURVE",
"695 603 CURVE SMOOTH",
"695 627 OFFCURVE",
"684 647 OFFCURVE",
"661 662 CURVE SMOOTH",
"639 677 OFFCURVE",
"610 685 OFFCURVE",
"573 685 CURVE SMOOTH",
"557 685 OFFCURVE",
"540 684 OFFCURVE",
"523 681 CURVE SMOOTH",
"439 667 OFFCURVE",
"375 637 OFFCURVE",
"330 592 CURVE SMOOTH",
"292 554 OFFCURVE",
"273 511 OFFCURVE",
"273 464 CURVE SMOOTH",
"273 451 OFFCURVE",
"274 439 OFFCURVE",
"277 427 CURVE",
"249 428 OFFCURVE",
"222 432 OFFCURVE",
"197 438 CURVE SMOOTH",
"153 448 OFFCURVE",
"119 467 OFFCURVE",
"94 495 CURVE SMOOTH",
"72 520 OFFCURVE",
"61 547 OFFCURVE",
"61 578 CURVE SMOOTH",
"61 611 OFFCURVE",
"73 638 OFFCURVE",
"98 659 CURVE SMOOTH",
"123 680 OFFCURVE",
"156 690 OFFCURVE",
"197 690 CURVE SMOOTH",
"244 690 OFFCURVE",
"292 678 OFFCURVE",
"340 655 CURVE SMOOTH",
"345 653 OFFCURVE",
"349 654 OFFCURVE",
"349 661 CURVE SMOOTH",
"349 663 OFFCURVE",
"348 666 OFFCURVE",
"346 667 CURVE SMOOTH",
"294 692 OFFCURVE",
"241 703 OFFCURVE",
"191 703 CURVE SMOOTH",
"137 703 OFFCURVE",
"94 691 OFFCURVE",
"60 668 CURVE SMOOTH",
"26 644 OFFCURVE",
"8 614 OFFCURVE",
"8 577 CURVE SMOOTH",
"8 544 OFFCURVE",
"22 515 OFFCURVE",
"50 488 CURVE SMOOTH",
"81 458 OFFCURVE",
"124 437 OFFCURVE",
"179 424 CURVE SMOOTH",
"210 417 OFFCURVE",
"244 412 OFFCURVE",
"282 411 CURVE",
"287 399 OFFCURVE",
"293 388 OFFCURVE",
"301 377 CURVE",
"211 368 OFFCURVE",
"139 337 OFFCURVE",
"85 285 CURVE SMOOTH",
"36 238 OFFCURVE",
"11 184 OFFCURVE",
"11 125 CURVE SMOOTH",
"11 72 OFFCURVE",
"31 28 OFFCURVE",
"72 -6 CURVE SMOOTH",
"117 -44 OFFCURVE",
"180 -63 OFFCURVE",
"261 -63 CURVE"
);
},
{
closed = 1;
nodes = (
"326 428 LINE",
"330 481 OFFCURVE",
"357 531 OFFCURVE",
"408 576 CURVE SMOOTH",
"470 631 OFFCURVE",
"534 658 OFFCURVE",
"599 658 CURVE SMOOTH",
"648 658 OFFCURVE",
"672 643 OFFCURVE",
"672 613 CURVE SMOOTH",
"672 584 OFFCURVE",
"644 549 OFFCURVE",
"587 509 CURVE SMOOTH",
"517 460 OFFCURVE",
"430 433 OFFCURVE",
"326 428 CURVE"
);
}
);
width = 586;
}
);
note = E;
unicode = 0045;
},
{
glyphname = F;
lastChange = "2021-08-10 19:52:28 +0000";
layers = (
{
layerId = "3191725B-F824-48C7-90A0-BAE99CBF9356";
paths = (
{
closed = 1;
nodes = (
"131 -44 LINE",
"180 -44 OFFCURVE",
"225 -30 OFFCURVE",
"266 -1 CURVE SMOOTH",
"343 54 OFFCURVE",
"410 153 OFFCURVE",
"468 297 CURVE",
"507 300 OFFCURVE",
"530 302 OFFCURVE",
"536 303 CURVE",
"527 280 OFFCURVE",
"522 252 OFFCURVE",
"523 221 CURVE",
"524 217 OFFCURVE",
"526 215 OFFCURVE",
"530 214 CURVE SMOOTH",
"534 214 OFFCURVE",
"536 216 OFFCURVE",
"536 220 CURVE SMOOTH",
"537 250 OFFCURVE",
"543 278 OFFCURVE",
"556 305 CURVE",
"570 307 OFFCURVE",
"581 309 OFFCURVE",
"590 311 CURVE SMOOTH",
"636 325 OFFCURVE",
"659 344 OFFCURVE",
"659 368 CURVE SMOOTH",
"659 383 OFFCURVE",
"651 390 OFFCURVE",
"634 390 CURVE SMOOTH",
"625 390 OFFCURVE",
"616 387 OFFCURVE",
"607 382 CURVE SMOOTH",
"575 365 OFFCURVE",
"553 345 OFFCURVE",
"542 322 CURVE",
"525 320 OFFCURVE",
"503 318 OFFCURVE",
"476 316 CURVE",
"493 360 OFFCURVE",
"506 393 OFFCURVE",
"515 414 CURVE SMOOTH",
"558 521 OFFCURVE",
"613 574 OFFCURVE",
"680 574 CURVE SMOOTH",
"687 574 OFFCURVE",
"695 572 OFFCURVE",
"702 572 CURVE SMOOTH",
"705 572 OFFCURVE",
"708 574 OFFCURVE",
"708 577 CURVE SMOOTH",
"708 580 OFFCURVE",
"705 581 OFFCURVE",
"701 582 CURVE SMOOTH",
"689 584 OFFCURVE",
"677 585 OFFCURVE",
"666 585 CURVE SMOOTH",
"584 585 OFFCURVE",
"508 525 OFFCURVE",
"445 403 CURVE SMOOTH",
"397 310 LINE",
"306 304 OFFCURVE",
"239 294 OFFCURVE",
"196 279 CURVE SMOOTH",
"137 259 OFFCURVE",
"108 228 OFFCURVE",
"108 186 CURVE SMOOTH",
"108 168 OFFCURVE",
"113 151 OFFCURVE",
"124 134 CURVE SMOOTH",
"135 118 OFFCURVE",
"147 106 OFFCURVE",
"162 98 CURVE",
"165 97 OFFCURVE",
"168 98 OFFCURVE",
"170 101 CURVE SMOOTH",
"172 105 OFFCURVE",
"171 108 OFFCURVE",
"168 110 CURVE SMOOTH",
"147 121 OFFCURVE",
"137 138 OFFCURVE",
"137 163 CURVE SMOOTH",
"137 202 OFFCURVE",
"169 233 OFFCURVE",
"233 255 CURVE SMOOTH",
"275 269 OFFCURVE",
"326 280 OFFCURVE",
"385 288 CURVE",
"350 221 OFFCURVE",
"316 164 OFFCURVE",
"284 116 CURVE SMOOTH",
"257 75 OFFCURVE",
"231 45 OFFCURVE",
"206 26 CURVE SMOOTH",
"175 2 OFFCURVE",
"139 -12 OFFCURVE",
"99 -12 CURVE SMOOTH",
"87 -12 OFFCURVE",
"77 -10 OFFCURVE",
"67 -6 CURVE SMOOTH",
"51 0 OFFCURVE",
"42 10 OFFCURVE",
"40 24 CURVE",
"49 15 OFFCURVE",
"60 10 OFFCURVE",
"72 10 CURVE SMOOTH",
"86 10 OFFCURVE",
"98 15 OFFCURVE",
"109 25 CURVE SMOOTH",
"120 35 OFFCURVE",
"126 49 OFFCURVE",
"126 64 CURVE SMOOTH",
"126 75 OFFCURVE",
"123 85 OFFCURVE",
"115 94 CURVE SMOOTH",
"106 103 OFFCURVE",
"95 108 OFFCURVE",
"82 108 CURVE SMOOTH",
"63 108 OFFCURVE",
"46 100 OFFCURVE",
"33 85 CURVE SMOOTH",
"21 72 OFFCURVE",
"15 56 OFFCURVE",
"15 39 CURVE SMOOTH",
"15 13 OFFCURVE",
"25 -6 OFFCURVE",
"46 -20 CURVE SMOOTH",
"69 -36 OFFCURVE",
"97 -44 OFFCURVE",
"131 -44 CURVE"
);
},
{
closed = 1;
nodes = (
"185 348 LINE",
"247 348 OFFCURVE",
"303 368 OFFCURVE",
"355 405 CURVE SMOOTH",
"404 441 OFFCURVE",
"441 489 OFFCURVE",
"467 549 CURVE SMOOTH",
"469 554 OFFCURVE",
"468 557 OFFCURVE",
"461 557 CURVE SMOOTH",
"456 557 OFFCURVE",
"451 555 OFFCURVE",
"448 550 CURVE SMOOTH",
"419 497 OFFCURVE",
"381 456 OFFCURVE",
"335 424 CURVE SMOOTH",
"281 386 OFFCURVE",
"229 366 OFFCURVE",
"180 366 CURVE SMOOTH",
"104 366 OFFCURVE",
"66 397 OFFCURVE",
"66 451 CURVE SMOOTH",
"66 475 OFFCURVE",
"74 500 OFFCURVE",
"91 527 CURVE SMOOTH",
"108 553 OFFCURVE",
"130 574 OFFCURVE",
"156 592 CURVE SMOOTH",
"203 623 OFFCURVE",
"263 639 OFFCURVE",
"338 639 CURVE SMOOTH",
"381 639 OFFCURVE",
"443 633 OFFCURVE",
"522 620 CURVE SMOOTH",
"636 602 OFFCURVE",
"704 595 OFFCURVE",
"726 595 CURVE SMOOTH",
"755 595 OFFCURVE",
"783 599 OFFCURVE",
"809 607 CURVE SMOOTH",
"852 620 OFFCURVE",
"880 641 OFFCURVE",
"894 672 CURVE",
"896 675 OFFCURVE",
"897 678 OFFCURVE",
"897 681 CURVE SMOOTH",
"897 685 OFFCURVE",
"895 687 OFFCURVE",
"891 687 CURVE SMOOTH",
"886 687 OFFCURVE",
"883 684 OFFCURVE",
"881 677 CURVE SMOOTH",
"877 660 OFFCURVE",
"859 648 OFFCURVE",
"826 639 CURVE SMOOTH",
"804 633 OFFCURVE",
"781 629 OFFCURVE",
"759 629 CURVE SMOOTH",
"720 629 OFFCURVE",
"644 642 OFFCURVE",
"533 664 CURVE SMOOTH",
"442 683 OFFCURVE",
"371 692 OFFCURVE",
"321 692 CURVE SMOOTH",
"250 692 OFFCURVE",
"187 677 OFFCURVE",
"131 649 CURVE SMOOTH",
"96 631 OFFCURVE",
"68 608 OFFCURVE",
"49 578 CURVE SMOOTH",
"30 549 OFFCURVE",
"20 518 OFFCURVE",
"20 486 CURVE SMOOTH",
"20 449 OFFCURVE",
"32 418 OFFCURVE",
"56 394 CURVE SMOOTH",
"85 364 OFFCURVE",
"129 348 OFFCURVE",
"185 348 CURVE"
);
}
);
width = 571;
}
);
note = F;
unicode = 0046;
},
{
glyphname = G;
lastChange = "2021-08-10 19:52:28 +0000";
layers = (
{
anchors = (
{
name = bottom;
position = "{189, -296}";
},
{
name = top;
position = "{634, 705}";
}
);
layerId = "3191725B-F824-48C7-90A0-BAE99CBF9356";
paths = (
{
closed = 1;
nodes = (
"160 -324 LINE",
"209 -324 OFFCURVE",
"259 -304 OFFCURVE",
"312 -264 CURVE SMOOTH",
"376 -216 OFFCURVE",
"427 -149 OFFCURVE",
"458 -57 CURVE SMOOTH",
"485 24 OFFCURVE",
"507 107 OFFCURVE",
"532 189 CURVE SMOOTH",
"539 210 OFFCURVE",
"544 220 OFFCURVE",
"547 221 CURVE",
"561 234 OFFCURVE",
"572 245 OFFCURVE",
"579 254 CURVE SMOOTH",
"606 287 OFFCURVE",
"619 315 OFFCURVE",
"619 339 CURVE SMOOTH",
"619 361 OFFCURVE",
"610 372 OFFCURVE",
"591 372 CURVE SMOOTH",
"572 372 OFFCURVE",
"556 359 OFFCURVE",
"543 334 CURVE SMOOTH",
"535 317 OFFCURVE",
"529 299 OFFCURVE",
"527 278 CURVE",
"526 276 OFFCURVE",
"525 262 OFFCURVE",
"523 235 CURVE",
"519 228 LINE",
"477 169 OFFCURVE",
"440 124 OFFCURVE",
"408 94 CURVE SMOOTH",
"357 47 OFFCURVE",
"306 24 OFFCURVE",
"256 24 CURVE SMOOTH",
"221 24 OFFCURVE",
"193 36 OFFCURVE",
"170 59 CURVE SMOOTH",
"147 82 OFFCURVE",
"136 115 OFFCURVE",
"136 158 CURVE SMOOTH",
"136 229 OFFCURVE",
"164 309 OFFCURVE",
"221 398 CURVE",
"241 395 OFFCURVE",
"262 394 OFFCURVE",
"285 394 CURVE SMOOTH",
"430 394 OFFCURVE",
"551 429 OFFCURVE",
"650 499 CURVE SMOOTH",
"721 550 OFFCURVE",
"757 597 OFFCURVE",
"757 641 CURVE SMOOTH",
"757 684 OFFCURVE",
"716 705 OFFCURVE",
"634 705 CURVE SMOOTH",
"543 705 OFFCURVE",
"449 677 OFFCURVE",
"352 621 CURVE",
"301 666 OFFCURVE",
"242 688 OFFCURVE",
"173 688 CURVE SMOOTH",
"134 688 OFFCURVE",
"100 680 OFFCURVE",
"70 662 CURVE SMOOTH",
"31 639 OFFCURVE",
"12 607 OFFCURVE",
"12 565 CURVE SMOOTH",
"12 536 OFFCURVE",
"24 507 OFFCURVE",
"48 480 CURVE SMOOTH",
"71 455 OFFCURVE",
"100 435 OFFCURVE",
"135 420 CURVE",
"86 343 OFFCURVE",
"61 265 OFFCURVE",
"61 186 CURVE SMOOTH",
"61 129 OFFCURVE",
"76 84 OFFCURVE",
"105 51 CURVE SMOOTH",
"138 14 OFFCURVE",
"189 -5 OFFCURVE",
"256 -5 CURVE SMOOTH",
"339 -5 OFFCURVE",
"423 56 OFFCURVE",
"506 177 CURVE",
"455 59 OFFCURVE",
"398 -46 OFFCURVE",
"335 -138 CURVE SMOOTH",
"267 -237 OFFCURVE",
"198 -286 OFFCURVE",
"128 -286 CURVE SMOOTH",
"93 -286 OFFCURVE",
"74 -275 OFFCURVE",
"71 -253 CURVE",
"80 -263 OFFCURVE",
"91 -268 OFFCURVE",
"105 -268 CURVE SMOOTH",
"118 -268 OFFCURVE",
"130 -263 OFFCURVE",
"141 -253 CURVE SMOOTH",
"153 -243 OFFCURVE",
"159 -229 OFFCURVE",
"159 -214 CURVE SMOOTH",
"159 -203 OFFCURVE",
"156 -193 OFFCURVE",
"148 -184 CURVE SMOOTH",
"139 -175 OFFCURVE",
"128 -170 OFFCURVE",
"115 -170 CURVE SMOOTH",
"75 -170 OFFCURVE",
"55 -194 OFFCURVE",
"55 -243 CURVE SMOOTH",
"55 -270 OFFCURVE",
"67 -291 OFFCURVE",
"90 -305 CURVE SMOOTH",
"110 -318 OFFCURVE",
"133 -324 OFFCURVE",
"160 -324 CURVE"
);
},
{
closed = 1;
nodes = (
"151 444 LINE",
"87 472 OFFCURVE",
"54 513 OFFCURVE",
"54 568 CURVE SMOOTH",
"54 603 OFFCURVE",
"68 629 OFFCURVE",
"94 646 CURVE SMOOTH",
"115 660 OFFCURVE",
"140 667 OFFCURVE",
"170 667 CURVE SMOOTH",
"226 667 OFFCURVE",
"279 647 OFFCURVE",
"330 608 CURVE",
"257 562 OFFCURVE",
"197 507 OFFCURVE",
"151 444 CURVE"
);
},
{
closed = 1;
nodes = (
"288 416 LINE",
"271 416 OFFCURVE",
"254 417 OFFCURVE",
"236 420 CURVE",
"275 477 OFFCURVE",
"320 527 OFFCURVE",
"371 570 CURVE",
"387 550 OFFCURVE",
"398 535 OFFCURVE",
"405 524 CURVE SMOOTH",
"407 521 OFFCURVE",
"411 519 OFFCURVE",
"415 519 CURVE SMOOTH",
"418 519 LINE SMOOTH",
"423 520 OFFCURVE",
"425 522 OFFCURVE",
"423 527 CURVE SMOOTH",
"414 547 OFFCURVE",
"402 566 OFFCURVE",
"388 583 CURVE",
"477 652 OFFCURVE",
"566 686 OFFCURVE",
"657 686 CURVE SMOOTH",
"698 686 OFFCURVE",
"719 674 OFFCURVE",
"719 649 CURVE SMOOTH",
"719 632 OFFCURVE",
"710 612 OFFCURVE",
"691 588 CURVE SMOOTH",
"674 567 OFFCURVE",
"656 549 OFFCURVE",
"636 535 CURVE SMOOTH",
"557 478 OFFCURVE",
"472 442 OFFCURVE",
"383 425 CURVE SMOOTH",
"351 419 OFFCURVE",
"319 416 OFFCURVE",
"288 416 CURVE"
);
}
);
width = 603;
}
);
note = G;
unicode = 0047;
},
{
glyphname = H;
lastChange = "2021-08-10 19:52:28 +0000";
layers = (
{
anchors = (
{
name = bottom;
position = "{476, 0}";
},
{
name = center;
position = "{427, 377}";
},
{
name = top;
position = "{860, 713}";
},
{
name = topleft;
position = "{20, 754}";
}
);
layerId = "3191725B-F824-48C7-90A0-BAE99CBF9356";
paths = (
{
closed = 1;
nodes = (
"86 -58 LINE",
"163 -58 OFFCURVE",
"234 -26 OFFCURVE",
"299 34 CURVE SMOOTH",
"332 64 OFFCURVE",
"361 95 OFFCURVE",
"387 128 CURVE",
"425 91 OFFCURVE",
"467 62 OFFCURVE",
"513 42 CURVE SMOOTH",
"516 41 OFFCURVE",
"518 41 OFFCURVE",
"521 44 CURVE SMOOTH",
"523 47 OFFCURVE",
"522 50 OFFCURVE",
"519 51 CURVE",
"475 75 OFFCURVE",
"436 106 OFFCURVE",
"401 145 CURVE",
"436 192 OFFCURVE",
"467 246 OFFCURVE",
"496 307 CURVE",
"517 290 OFFCURVE",
"537 271 OFFCURVE",
"557 248 CURVE SMOOTH",
"583 219 OFFCURVE",
"609 182 OFFCURVE",
"635 139 CURVE SMOOTH",
"657 102 OFFCURVE",
"670 76 OFFCURVE",
"676 59 CURVE SMOOTH",
"692 9 OFFCURVE",
"722 -16 OFFCURVE",
"763 -16 CURVE SMOOTH",
"768 -16 OFFCURVE",
"772 -16 OFFCURVE",
"777 -15 CURVE SMOOTH",
"810 -11 OFFCURVE",
"843 17 OFFCURVE",
"876 70 CURVE SMOOTH",
"884 83 OFFCURVE",
"906 126 OFFCURVE",
"943 201 CURVE SMOOTH",
"946 207 OFFCURVE",
"948 212 OFFCURVE",
"948 217 CURVE SMOOTH",
"948 221 OFFCURVE",
"946 224 OFFCURVE",
"944 224 CURVE SMOOTH",
"943 224 LINE SMOOTH",
"940 223 OFFCURVE",
"936 219 OFFCURVE",
"933 212 CURVE SMOOTH",
"898 140 OFFCURVE",
"868 88 OFFCURVE",
"843 56 CURVE SMOOTH",
"817 23 OFFCURVE",
"796 6 OFFCURVE",
"777 6 CURVE SMOOTH",
"749 6 OFFCURVE",
"736 35 OFFCURVE",
"736 91 CURVE SMOOTH",
"736 154 OFFCURVE",
"752 234 OFFCURVE",
"784 333 CURVE SMOOTH",
"816 434 OFFCURVE",
"855 521 OFFCURVE",
"899 592 CURVE SMOOTH",
"949 673 OFFCURVE",
"996 715 OFFCURVE",
"1041 720 CURVE SMOOTH",
"1045 720 OFFCURVE",
"1047 723 OFFCURVE",
"1047 727 CURVE SMOOTH",
"1047 731 OFFCURVE",
"1045 732 OFFCURVE",
"1040 732 CURVE SMOOTH",
"1035 732 LINE",
"974 724 OFFCURVE",
"910 675 OFFCURVE",
"844 582 CURVE SMOOTH",
"799 518 OFFCURVE",
"759 446 OFFCURVE",
"726 366 CURVE SMOOTH",
"688 274 OFFCURVE",
"669 195 OFFCURVE",
"668 128 CURVE",
"643 177 OFFCURVE",
"615 224 OFFCURVE",
"582 269 CURVE SMOOTH",
"561 298 OFFCURVE",
"538 323 OFFCURVE",
"513 344 CURVE",
"530 383 OFFCURVE",
"551 437 OFFCURVE",
"576 505 CURVE SMOOTH",
"596 560 OFFCURVE",
"613 599 OFFCURVE",
"628 620 CURVE SMOOTH",
"648 649 OFFCURVE",
"674 670 OFFCURVE",
"707 682 CURVE",
"735 664 OFFCURVE",
"755 657 OFFCURVE",
"770 657 CURVE SMOOTH",
"783 657 OFFCURVE",
"794 660 OFFCURVE",
"803 665 CURVE SMOOTH",
"812 670 OFFCURVE",
"817 677 OFFCURVE",
"817 685 CURVE SMOOTH",
"817 702 OFFCURVE",
"800 710 OFFCURVE",
"766 710 CURVE SMOOTH",
"749 710 OFFCURVE",
"728 707 OFFCURVE",
"705 701 CURVE",
"652 710 OFFCURVE",
"597 714 OFFCURVE",
"538 714 CURVE SMOOTH",
"356 714 OFFCURVE",
"234 679 OFFCURVE",
"173 608 CURVE SMOOTH",
"152 584 OFFCURVE",
"142 560 OFFCURVE",
"142 536 CURVE SMOOTH",
"142 509 OFFCURVE",
"155 487 OFFCURVE",
"180 472 CURVE SMOOTH",
"201 459 OFFCURVE",
"227 452 OFFCURVE",
"256 452 CURVE SMOOTH",
"293 452 OFFCURVE",
"331 461 OFFCURVE",
"372 480 CURVE SMOOTH",
"412 499 OFFCURVE",
"443 521 OFFCURVE",
"464 548 CURVE SMOOTH",
"465 549 OFFCURVE",
"465 551 OFFCURVE",
"465 552 CURVE SMOOTH",
"465 555 OFFCURVE",
"464 557 OFFCURVE",
"461 558 CURVE SMOOTH",
"458 559 OFFCURVE",
"455 559 OFFCURVE",
"452 556 CURVE SMOOTH",
"397 503 OFFCURVE",
"337 476 OFFCURVE",
"272 476 CURVE SMOOTH",
"262 476 OFFCURVE",
"253 477 OFFCURVE",
"244 479 CURVE SMOOTH",
"217 484 OFFCURVE",
"203 498 OFFCURVE",
"203 522 CURVE SMOOTH",
"203 541 OFFCURVE",
"212 563 OFFCURVE",
"231 587 CURVE SMOOTH",
"250 610 OFFCURVE",
"276 632 OFFCURVE",
"310 652 CURVE SMOOTH",
"361 682 OFFCURVE",
"448 697 OFFCURVE",
"570 697 CURVE SMOOTH",
"611 697 OFFCURVE",
"648 695 OFFCURVE",
"681 690 CURVE",
"642 676 OFFCURVE",
"607 651 OFFCURVE",
"576 614 CURVE SMOOTH",
"551 585 OFFCURVE",
"525 544 OFFCURVE",
"497 489 CURVE SMOOTH",
"446 390 LINE",
"417 403 OFFCURVE",
"391 410 OFFCURVE",
"366 410 CURVE SMOOTH",
"341 410 OFFCURVE",
"320 403 OFFCURVE",
"305 388 CURVE SMOOTH",
"290 374 OFFCURVE",
"282 354 OFFCURVE",
"282 328 CURVE SMOOTH",
"282 289 OFFCURVE",
"300 242 OFFCURVE",
"337 189 CURVE",
"317 156 LINE SMOOTH",
"254 53 OFFCURVE",
"183 -8 OFFCURVE",
"106 -28 CURVE SMOOTH",
"99 -30 OFFCURVE",
"92 -31 OFFCURVE",
"84 -31 CURVE SMOOTH",
"48 -31 OFFCURVE",
"29 -19 OFFCURVE",
"26 5 CURVE",
"33 -9 OFFCURVE",
"44 -14 OFFCURVE",
"60 -14 CURVE SMOOTH",
"89 -14 OFFCURVE",
"106 1 OFFCURVE",
"106 35 CURVE SMOOTH",
"106 46 OFFCURVE",
"103 56 OFFCURVE",
"95 65 CURVE SMOOTH",
"87 75 OFFCURVE",
"76 81 OFFCURVE",
"63 81 CURVE SMOOTH",
"46 81 OFFCURVE",
"31 73 OFFCURVE",
"19 58 CURVE SMOOTH",
"7 43 OFFCURVE",
"1 27 OFFCURVE",
"1 8 CURVE SMOOTH",
"2 -36 OFFCURVE",
"31 -58 OFFCURVE",
"86 -58 CURVE"
);
},
{
closed = 1;
nodes = (
"351 214 LINE",
"332 248 OFFCURVE",
"322 277 OFFCURVE",
"322 302 CURVE SMOOTH",
"322 340 OFFCURVE",
"341 359 OFFCURVE",
"378 359 CURVE SMOOTH",
"392 359 OFFCURVE",
"408 356 OFFCURVE",
"425 349 CURVE",
"398 298 OFFCURVE",
"374 253 OFFCURVE",
"351 214 CURVE"
);
}
);
width = 854;
}
);
note = H;
unicode = 0048;
},
{
glyphname = I;
lastChange = "2021-08-10 19:52:28 +0000";
layers = (
{
anchors = (
{
name = bottom;
position = "{85, -88}";
},
{
name = ogonek;
position = "{170, -78}";
},
{
name = top;
position = "{712, 739}";
},
{
name = topleft;
position = "{20, 754}";
}
);
layerId = "3191725B-F824-48C7-90A0-BAE99CBF9356";
paths = (
{
closed = 1;
nodes = (
"67 -95 LINE",
"73 -95 OFFCURVE",
"79 -94 OFFCURVE",
"85 -94 CURVE SMOOTH",
"204 -85 OFFCURVE",
"306 -15 OFFCURVE",
"391 117 CURVE SMOOTH",
"445 202 OFFCURVE",
"495 322 OFFCURVE",
"542 478 CURVE SMOOTH",
"575 589 OFFCURVE",
"610 658 OFFCURVE",
"647 685 CURVE",
"658 685 LINE",
"677 678 OFFCURVE",
"696 674 OFFCURVE",
"713 674 CURVE SMOOTH",
"733 674 OFFCURVE",
"750 678 OFFCURVE",
"763 687 CURVE SMOOTH",
"776 696 OFFCURVE",
"782 705 OFFCURVE",
"782 715 CURVE SMOOTH",
"782 729 OFFCURVE",
"770 736 OFFCURVE",
"747 736 CURVE SMOOTH",
"738 736 OFFCURVE",
"729 735 OFFCURVE",
"719 733 CURVE SMOOTH",
"698 728 OFFCURVE",
"675 719 OFFCURVE",
"651 705 CURVE",
"529 672 OFFCURVE",
"423 636 OFFCURVE",
"333 595 CURVE SMOOTH",
"260 562 OFFCURVE",
"204 521 OFFCURVE",
"162 472 CURVE SMOOTH",
"124 428 OFFCURVE",
"105 386 OFFCURVE",
"105 346 CURVE SMOOTH",
"105 320 OFFCURVE",
"114 299 OFFCURVE",
"131 283 CURVE SMOOTH",
"148 268 OFFCURVE",
"173 260 OFFCURVE",
"206 260 CURVE SMOOTH",
"215 260 OFFCURVE",
"223 261 OFFCURVE",
"232 262 CURVE SMOOTH",
"263 266 OFFCURVE",
"293 273 OFFCURVE",
"321 285 CURVE SMOOTH",
"325 287 OFFCURVE",
"328 291 OFFCURVE",
"328 295 CURVE SMOOTH",
"328 297 LINE SMOOTH",
"327 303 OFFCURVE",
"325 304 OFFCURVE",
"320 302 CURVE SMOOTH",
"292 288 OFFCURVE",
"267 280 OFFCURVE",
"243 280 CURVE SMOOTH",
"239 280 OFFCURVE",
"235 281 OFFCURVE",
"231 281 CURVE SMOOTH",
"188 286 OFFCURVE",
"167 306 OFFCURVE",
"167 342 CURVE SMOOTH",
"167 365 OFFCURVE",
"176 391 OFFCURVE",
"192 421 CURVE SMOOTH",
"206 447 OFFCURVE",
"221 468 OFFCURVE",
"238 485 CURVE SMOOTH",
"287 534 OFFCURVE",
"345 574 OFFCURVE",
"414 606 CURVE SMOOTH",
"465 630 OFFCURVE",
"532 654 OFFCURVE",
"615 677 CURVE",
"577 642 OFFCURVE",
"534 574 OFFCURVE",
"486 472 CURVE SMOOTH",
"422 337 OFFCURVE",
"359 219 OFFCURVE",
"298 119 CURVE SMOOTH",
"235 16 OFFCURVE",
"164 -45 OFFCURVE",
"87 -65 CURVE SMOOTH",
"80 -67 OFFCURVE",
"73 -68 OFFCURVE",
"66 -68 CURVE SMOOTH",
"29 -68 OFFCURVE",
"10 -56 OFFCURVE",
"7 -32 CURVE",
"14 -46 OFFCURVE",
"25 -52 OFFCURVE",
"41 -52 CURVE SMOOTH",
"70 -52 OFFCURVE",
"87 -36 OFFCURVE",
"87 -2 CURVE SMOOTH",
"87 9 OFFCURVE",
"84 19 OFFCURVE",
"76 28 CURVE SMOOTH",
"68 38 OFFCURVE",
"57 43 OFFCURVE",
"44 43 CURVE SMOOTH",
"27 43 OFFCURVE",
"12 36 OFFCURVE",
"0 21 CURVE SMOOTH",
"-12 6 OFFCURVE",
"-18 -10 OFFCURVE",
"-18 -29 CURVE SMOOTH",
"-17 -73 OFFCURVE",
"12 -95 OFFCURVE",
"67 -95 CURVE"
);
}
);
width = 495;
}
);
note = I;
unicode = 0049;
},
{
glyphname = J;
lastChange = "2021-08-10 19:52:28 +0000";
layers = (
{
anchors = (
{
name = bottom;
position = "{164, -135}";
},
{
name = top;
position = "{686, 710}";
}
);
layerId = "3191725B-F824-48C7-90A0-BAE99CBF9356";
paths = (
{
closed = 1;
nodes = (
"-24 -204 LINE",
"11 -204 OFFCURVE",
"49 -198 OFFCURVE",
"89 -186 CURVE SMOOTH",
"212 -150 OFFCURVE",
"317 -55 OFFCURVE",
"406 101 CURVE",
"451 106 OFFCURVE",
"492 108 OFFCURVE",
"531 107 CURVE SMOOTH",
"541 107 OFFCURVE",
"546 109 OFFCURVE",
"546 115 CURVE SMOOTH",
"546 118 OFFCURVE",
"542 120 OFFCURVE",
"534 121 CURVE SMOOTH",
"521 122 OFFCURVE",
"506 123 OFFCURVE",
"489 123 CURVE SMOOTH",
"468 123 OFFCURVE",
"444 122 OFFCURVE",
"417 120 CURVE",
"448 176 OFFCURVE",
"478 243 OFFCURVE",
"509 321 CURVE SMOOTH",
"514 333 OFFCURVE",
"536 394 OFFCURVE",
"576 505 CURVE SMOOTH",
"597 562 OFFCURVE",
"614 600 OFFCURVE",
"628 621 CURVE SMOOTH",
"647 650 OFFCURVE",
"673 671 OFFCURVE",
"706 683 CURVE",
"734 665 OFFCURVE",
"754 658 OFFCURVE",
"769 658 CURVE SMOOTH",
"782 658 OFFCURVE",
"793 661 OFFCURVE",
"801 666 CURVE SMOOTH",
"810 672 OFFCURVE",
"815 679 OFFCURVE",
"815 687 CURVE SMOOTH",
"815 704 OFFCURVE",
"799 713 OFFCURVE",
"766 713 CURVE SMOOTH",
"749 713 OFFCURVE",
"728 709 OFFCURVE",
"704 702 CURVE",
"652 711 OFFCURVE",
"597 715 OFFCURVE",
"539 715 CURVE SMOOTH",
"357 715 OFFCURVE",
"235 679 OFFCURVE",
"173 608 CURVE SMOOTH",
"152 584 OFFCURVE",
"142 560 OFFCURVE",
"142 536 CURVE SMOOTH",
"142 509 OFFCURVE",
"155 487 OFFCURVE",
"180 472 CURVE SMOOTH",
"201 459 OFFCURVE",
"227 452 OFFCURVE",
"256 452 CURVE SMOOTH",
"293 452 OFFCURVE",
"331 461 OFFCURVE",
"372 480 CURVE SMOOTH",
"412 499 OFFCURVE",
"443 521 OFFCURVE",
"464 548 CURVE SMOOTH",
"466 551 OFFCURVE",
"467 553 OFFCURVE",
"466 556 CURVE SMOOTH",
"465 559 OFFCURVE",
"464 560 OFFCURVE",
"461 560 CURVE SMOOTH",
"460 560 OFFCURVE",
"458 559 OFFCURVE",
"457 558 CURVE SMOOTH",
"434 535 OFFCURVE",
"405 516 OFFCURVE",
"372 501 CURVE SMOOTH",
"337 484 OFFCURVE",
"303 476 OFFCURVE",
"271 476 CURVE SMOOTH",
"262 476 OFFCURVE",
"253 477 OFFCURVE",
"244 479 CURVE SMOOTH",
"216 484 OFFCURVE",
"202 498 OFFCURVE",
"202 522 CURVE SMOOTH",
"202 541 OFFCURVE",
"212 563 OFFCURVE",
"231 587 CURVE SMOOTH",
"249 610 OFFCURVE",
"276 632 OFFCURVE",
"310 652 CURVE SMOOTH",
"361 682 OFFCURVE",
"448 697 OFFCURVE",
"570 697 CURVE SMOOTH",
"611 697 OFFCURVE",
"648 695 OFFCURVE",
"681 690 CURVE",
"642 676 OFFCURVE",
"607 651 OFFCURVE",
"576 614 CURVE SMOOTH",
"551 585 OFFCURVE",
"525 543 OFFCURVE",
"497 489 CURVE SMOOTH",
"483 461 OFFCURVE",
"453 400 OFFCURVE",
"410 305 CURVE SMOOTH",
"372 221 OFFCURVE",
"340 155 OFFCURVE",
"313 108 CURVE",
"216 93 OFFCURVE",
"133 72 OFFCURVE",
"64 46 CURVE SMOOTH",
"-45 4 OFFCURVE",
"-106 -48 OFFCURVE",
"-119 -112 CURVE SMOOTH",
"-121 -121 OFFCURVE",
"-122 -129 OFFCURVE",
"-122 -136 CURVE SMOOTH",
"-122 -181 OFFCURVE",
"-89 -204 OFFCURVE",
"-24 -204 CURVE"
);
},
{
closed = 1;
nodes = (
"-25 -180 LINE",
"-70 -180 OFFCURVE",
"-93 -163 OFFCURVE",
"-93 -129 CURVE SMOOTH",
"-93 -88 OFFCURVE",
"-60 -49 OFFCURVE",
"6 -10 CURVE SMOOTH",
"77 31 OFFCURVE",
"175 63 OFFCURVE",
"300 86 CURVE",
"231 -31 OFFCURVE",
"157 -110 OFFCURVE",
"75 -152 CURVE SMOOTH",
"38 -171 OFFCURVE",
"4 -180 OFFCURVE",
"-25 -180 CURVE"
);
}
);
width = 549;
}
);
note = J;
unicode = 004A;
},
{
glyphname = K;
lastChange = "2021-08-10 19:52:28 +0000";
layers = (
{
anchors = (
{
name = bottom;
position = "{404, -68}";
},
{
name = top;
position = "{851, 708}";
}
);
layerId = "3191725B-F824-48C7-90A0-BAE99CBF9356";
paths = (
{
closed = 1;
nodes = (
"783 -142 LINE",
"822 -142 OFFCURVE",
"855 -126 OFFCURVE",
"881 -94 CURVE SMOOTH",
"906 -64 OFFCURVE",
"919 -30 OFFCURVE",
"919 11 CURVE SMOOTH",
"919 49 OFFCURVE",
"909 87 OFFCURVE",
"890 124 CURVE SMOOTH",
"887 130 OFFCURVE",
"884 133 OFFCURVE",
"882 133 CURVE SMOOTH",
"877 133 OFFCURVE",
"877 128 OFFCURVE",
"881 118 CURVE SMOOTH",
"891 93 OFFCURVE",
"896 64 OFFCURVE",
"896 31 CURVE SMOOTH",
"896 0 OFFCURVE",
"890 -27 OFFCURVE",
"878 -49 CURVE SMOOTH",
"865 -73 OFFCURVE",
"845 -85 OFFCURVE",
"820 -85 CURVE SMOOTH",
"783 -85 OFFCURVE",
"740 -56 OFFCURVE",
"690 3 CURVE SMOOTH",
"649 51 OFFCURVE",
"607 113 OFFCURVE",
"565 189 CURVE",
"607 213 OFFCURVE",
"649 252 OFFCURVE",
"693 305 CURVE SMOOTH",
"720 338 OFFCURVE",
"756 388 OFFCURVE",
"801 455 CURVE SMOOTH",
"845 522 OFFCURVE",
"877 567 OFFCURVE",
"897 591 CURVE SMOOTH",
"958 664 OFFCURVE",
"1017 701 OFFCURVE",
"1074 701 CURVE SMOOTH",
"1089 701 OFFCURVE",
"1104 697 OFFCURVE",
"1119 686 CURVE SMOOTH",
"1132 677 OFFCURVE",
"1138 665 OFFCURVE",
"1137 652 CURVE",
"1133 667 OFFCURVE",
"1123 674 OFFCURVE",
"1106 674 CURVE SMOOTH",
"1083 674 OFFCURVE",
"1071 662 OFFCURVE",
"1071 637 CURVE SMOOTH",
"1071 614 OFFCURVE",
"1083 602 OFFCURVE",
"1106 602 CURVE SMOOTH",
"1119 602 OFFCURVE",
"1129 607 OFFCURVE",
"1137 618 CURVE SMOOTH",
"1146 629 OFFCURVE",
"1150 644 OFFCURVE",
"1150 661 CURVE SMOOTH",
"1150 686 OFFCURVE",
"1140 704 OFFCURVE",
"1120 717 CURVE SMOOTH",
"1101 730 OFFCURVE",
"1076 736 OFFCURVE",
"1047 736 CURVE SMOOTH",
"1008 736 OFFCURVE",
"974 727 OFFCURVE",
"945 708 CURVE SMOOTH",
"896 677 OFFCURVE",
"847 624 OFFCURVE",
"801 549 CURVE SMOOTH",
"761 484 OFFCURVE",
"725 418 OFFCURVE",
"686 354 CURVE SMOOTH",
"642 281 OFFCURVE",
"598 232 OFFCURVE",
"556 205 CURVE",
"535 246 OFFCURVE",
"517 283 OFFCURVE",
"502 318 CURVE",
"522 363 OFFCURVE",
"547 425 OFFCURVE",
"576 505 CURVE SMOOTH",
"613 607 OFFCURVE",
"657 667 OFFCURVE",
"707 685 CURVE",
"730 670 OFFCURVE",
"748 665 OFFCURVE",
"760 665 CURVE SMOOTH",
"786 665 OFFCURVE",
"798 672 OFFCURVE",
"798 688 CURVE SMOOTH",
"798 702 OFFCURVE",
"784 709 OFFCURVE",
"756 709 CURVE SMOOTH",
"742 709 OFFCURVE",
"725 706 OFFCURVE",
"705 701 CURVE",
"698 702 OFFCURVE",
"696 703 OFFCURVE",
"697 703 CURVE SMOOTH",
"660 710 OFFCURVE",
"614 713 OFFCURVE",
"559 713 CURVE SMOOTH",
"478 713 OFFCURVE",
"405 705 OFFCURVE",
"340 690 CURVE SMOOTH",
"261 672 OFFCURVE",
"205 645 OFFCURVE",
"173 608 CURVE SMOOTH",
"152 584 OFFCURVE",
"142 560 OFFCURVE",
"142 536 CURVE SMOOTH",
"142 509 OFFCURVE",
"155 487 OFFCURVE",
"180 472 CURVE SMOOTH",
"201 459 OFFCURVE",
"227 452 OFFCURVE",
"256 452 CURVE SMOOTH",
"293 452 OFFCURVE",
"331 461 OFFCURVE",
"372 480 CURVE SMOOTH",
"412 499 OFFCURVE",
"443 521 OFFCURVE",
"464 548 CURVE SMOOTH",
"465 549 OFFCURVE",
"465 551 OFFCURVE",
"465 552 CURVE SMOOTH",
"465 555 OFFCURVE",
"464 557 OFFCURVE",
"461 558 CURVE SMOOTH",
"458 559 OFFCURVE",
"455 559 OFFCURVE",
"452 556 CURVE SMOOTH",
"397 503 OFFCURVE",
"337 476 OFFCURVE",
"272 476 CURVE SMOOTH",
"262 476 OFFCURVE",
"253 477 OFFCURVE",
"244 479 CURVE SMOOTH",
"216 484 OFFCURVE",
"202 498 OFFCURVE",
"202 522 CURVE SMOOTH",
"202 541 OFFCURVE",
"212 563 OFFCURVE",
"231 587 CURVE SMOOTH",
"249 610 OFFCURVE",
"276 632 OFFCURVE",
"310 652 CURVE SMOOTH",
"361 682 OFFCURVE",
"448 697 OFFCURVE",
"571 697 CURVE SMOOTH",
"612 697 OFFCURVE",
"648 695 OFFCURVE",
"681 690 CURVE",
"642 676 OFFCURVE",
"607 651 OFFCURVE",
"576 614 CURVE SMOOTH",
"551 585 OFFCURVE",
"525 544 OFFCURVE",
"497 489 CURVE SMOOTH",
"456 410 LINE",
"437 429 OFFCURVE",
"414 439 OFFCURVE",
"388 439 CURVE SMOOTH",
"356 439 OFFCURVE",
"330 427 OFFCURVE",
"311 402 CURVE SMOOTH",
"292 377 OFFCURVE",
"283 349 OFFCURVE",
"283 316 CURVE SMOOTH",
"283 265 OFFCURVE",
"301 223 OFFCURVE",
"338 192 CURVE",
"317 156 LINE SMOOTH",
"254 53 OFFCURVE",
"183 -8 OFFCURVE",
"106 -28 CURVE SMOOTH",
"99 -30 OFFCURVE",
"92 -31 OFFCURVE",
"84 -31 CURVE SMOOTH",
"48 -31 OFFCURVE",
"29 -19 OFFCURVE",
"26 5 CURVE",
"33 -9 OFFCURVE",
"44 -14 OFFCURVE",
"60 -14 CURVE SMOOTH",
"89 -14 OFFCURVE",
"106 1 OFFCURVE",
"106 35 CURVE SMOOTH",
"106 46 OFFCURVE",
"103 56 OFFCURVE",
"95 65 CURVE SMOOTH",
"87 75 OFFCURVE",
"76 81 OFFCURVE",
"63 81 CURVE SMOOTH",
"46 81 OFFCURVE",
"31 73 OFFCURVE",
"19 58 CURVE SMOOTH",
"7 43 OFFCURVE",
"1 27 OFFCURVE",
"1 8 CURVE SMOOTH",
"2 -36 OFFCURVE",
"31 -58 OFFCURVE",
"86 -58 CURVE SMOOTH",
"163 -58 OFFCURVE",
"234 -26 OFFCURVE",
"299 34 CURVE SMOOTH",
"342 73 OFFCURVE",
"379 115 OFFCURVE",
"411 159 CURVE",
"421 157 OFFCURVE",
"432 156 OFFCURVE",
"443 156 CURVE SMOOTH",
"473 156 OFFCURVE",
"503 161 OFFCURVE",
"532 173 CURVE",
"611 -37 OFFCURVE",
"695 -142 OFFCURVE",
"783 -142 CURVE"
);
},
{
closed = 1;
nodes = (
"354 219 LINE",
"337 242 OFFCURVE",
"329 269 OFFCURVE",
"329 300 CURVE SMOOTH",
"329 325 OFFCURVE",
"335 348 OFFCURVE",
"347 368 CURVE SMOOTH",
"361 391 OFFCURVE",
"380 402 OFFCURVE",
"404 402 CURVE SMOOTH",
"418 402 OFFCURVE",
"431 397 OFFCURVE",
"444 386 CURVE",
"409 318 OFFCURVE",
"379 262 OFFCURVE",
"354 219 CURVE"
);
},
{
closed = 1;
nodes = (
"452 175 LINE",
"442 175 OFFCURVE",
"433 176 OFFCURVE",
"424 177 CURVE",
"447 212 OFFCURVE",
"469 251 OFFCURVE",
"490 294 CURVE",
"526 190 LINE",
"503 180 OFFCURVE",
"478 175 OFFCURVE",
"452 175 CURVE"
);
}
);
width = 919;
}
);
note = K;
unicode = 004B;
},
{
glyphname = L;
lastChange = "2021-08-10 19:52:28 +0000";
layers = (
{
anchors = (
{
name = bottom;
position = "{311, -88}";
},
{
name = center;
position = "{381, 377}";
},
{
name = top;
position = "{711, 711}";
},
{
name = topright;
position = "{817, 713}";
}
);
layerId = "3191725B-F824-48C7-90A0-BAE99CBF9356";
paths = (
{
closed = 1;
nodes = (
"559 -105 LINE",
"582 -105 OFFCURVE",
"604 -103 OFFCURVE",
"627 -97 CURVE SMOOTH",
"664 -88 OFFCURVE",
"693 -68 OFFCURVE",
"716 -40 CURVE SMOOTH",
"738 -13 OFFCURVE",
"749 16 OFFCURVE",
"749 49 CURVE SMOOTH",
"749 108 OFFCURVE",
"717 147 OFFCURVE",
"654 167 CURVE SMOOTH",
"633 174 OFFCURVE",
"611 177 OFFCURVE",
"587 177 CURVE SMOOTH",
"554 177 OFFCURVE",
"523 171 OFFCURVE",
"495 159 CURVE SMOOTH",
"449 140 OFFCURVE",
"411 108 OFFCURVE",
"380 63 CURVE SMOOTH",
"379 62 OFFCURVE",
"379 61 OFFCURVE",
"379 60 CURVE SMOOTH",
"379 57 OFFCURVE",
"382 54 OFFCURVE",
"387 54 CURVE SMOOTH",
"390 54 OFFCURVE",
"393 56 OFFCURVE",
"395 58 CURVE SMOOTH",
"428 95 OFFCURVE",
"465 123 OFFCURVE",
"507 140 CURVE SMOOTH",
"539 153 OFFCURVE",
"571 160 OFFCURVE",
"602 160 CURVE SMOOTH",
"621 160 OFFCURVE",
"637 157 OFFCURVE",
"652 152 CURVE SMOOTH",
"697 137 OFFCURVE",
"720 113 OFFCURVE",
"720 78 CURVE SMOOTH",
"720 56 OFFCURVE",
"711 34 OFFCURVE",
"692 12 CURVE SMOOTH",
"673 -10 OFFCURVE",
"650 -26 OFFCURVE",
"622 -36 CURVE SMOOTH",
"599 -44 OFFCURVE",
"575 -49 OFFCURVE",
"548 -49 CURVE SMOOTH",
"505 -49 OFFCURVE",
"450 -36 OFFCURVE",
"384 -10 CURVE SMOOTH",
"327 13 OFFCURVE",
"271 37 OFFCURVE",
"215 60 CURVE",
"238 89 OFFCURVE",
"260 123 OFFCURVE",
"282 163 CURVE SMOOTH",
"375 333 OFFCURVE",
"438 444 OFFCURVE",
"471 495 CURVE SMOOTH",
"537 598 OFFCURVE",
"609 660 OFFCURVE",
"687 682 CURVE SMOOTH",
"695 684 OFFCURVE",
"703 685 OFFCURVE",
"712 685 CURVE SMOOTH",
"747 685 OFFCURVE",
"766 674 OFFCURVE",
"768 651 CURVE",
"761 664 OFFCURVE",
"751 670 OFFCURVE",
"736 670 CURVE SMOOTH",
"706 670 OFFCURVE",
"690 655 OFFCURVE",
"686 624 CURVE SMOOTH",
"684 611 OFFCURVE",
"687 600 OFFCURVE",
"696 590 CURVE SMOOTH",
"705 581 OFFCURVE",
"716 576 OFFCURVE",
"729 576 CURVE SMOOTH",
"746 576 OFFCURVE",
"761 584 OFFCURVE",
"774 599 CURVE SMOOTH",
"786 614 OFFCURVE",
"792 631 OFFCURVE",
"792 649 CURVE SMOOTH",
"792 690 OFFCURVE",
"765 711 OFFCURVE",
"711 711 CURVE SMOOTH",
"674 711 OFFCURVE",
"632 702 OFFCURVE",
"586 683 CURVE SMOOTH",
"540 664 OFFCURVE",
"504 642 OFFCURVE",
"476 617 CURVE SMOOTH",
"413 559 OFFCURVE",
"357 481 OFFCURVE",
"314 379 CURVE SMOOTH",
"278 293 OFFCURVE",
"245 206 OFFCURVE",
"209 120 CURVE SMOOTH",
"201 102 OFFCURVE",
"193 86 OFFCURVE",
"185 71 CURVE",
"182 72 LINE SMOOTH",
"158 80 OFFCURVE",
"134 84 OFFCURVE",
"109 84 CURVE SMOOTH",
"85 84 OFFCURVE",
"64 80 OFFCURVE",
"47 72 CURVE SMOOTH",
"11 55 OFFCURVE",
"-7 32 OFFCURVE",
"-7 2 CURVE SMOOTH",
"-7 -12 OFFCURVE",
"-2 -24 OFFCURVE",
"9 -33 CURVE SMOOTH",
"20 -42 OFFCURVE",
"34 -47 OFFCURVE",
"49 -47 CURVE SMOOTH",
"97 -47 OFFCURVE",
"145 -20 OFFCURVE",
"193 33 CURVE",
"373 -55 LINE SMOOTH",
"443 -89 OFFCURVE",
"506 -105 OFFCURVE",
"559 -105 CURVE"
);
},
{
closed = 1;
nodes = (
"54 -27 LINE",
"43 -27 OFFCURVE",
"34 -24 OFFCURVE",
"27 -17 CURVE SMOOTH",
"21 -12 OFFCURVE",
"18 -5 OFFCURVE",
"18 3 CURVE SMOOTH",
"18 6 LINE SMOOTH",
"21 41 OFFCURVE",
"47 59 OFFCURVE",
"98 60 CURVE SMOOTH",
"119 59 OFFCURVE",
"142 53 OFFCURVE",
"167 44 CURVE",
"132 -3 OFFCURVE",
"95 -27 OFFCURVE",
"54 -27 CURVE"
);
}
);
width = 762;
}
);
note = L;
unicode = 004C;
},
{
glyphname = M;
lastChange = "2021-08-10 19:52:28 +0000";
layers = (
{
layerId = "3191725B-F824-48C7-90A0-BAE99CBF9356";
paths = (
{
closed = 1;
nodes = (
"484 -32 LINE",
"496 -32 OFFCURVE",
"505 -28 OFFCURVE",
"511 -21 CURVE SMOOTH",
"562 43 OFFCURVE",
"586 143 OFFCURVE",
"585 279 CURVE",
"646 380 OFFCURVE",
"713 468 OFFCURVE",
"786 543 CURVE SMOOTH",
"871 630 OFFCURVE",
"951 685 OFFCURVE",
"1025 706 CURVE",
"986 681 OFFCURVE",
"946 640 OFFCURVE",
"905 582 CURVE SMOOTH",
"856 513 OFFCURVE",
"814 441 OFFCURVE",
"779 366 CURVE SMOOTH",
"736 272 OFFCURVE",
"714 193 OFFCURVE",
"714 129 CURVE SMOOTH",
"714 76 OFFCURVE",
"729 36 OFFCURVE",
"758 10 CURVE SMOOTH",
"778 -7 OFFCURVE",
"800 -16 OFFCURVE",
"825 -16 CURVE SMOOTH",
"829 -16 OFFCURVE",
"833 -15 OFFCURVE",
"837 -15 CURVE SMOOTH",
"870 -11 OFFCURVE",
"903 18 OFFCURVE",
"936 70 CURVE SMOOTH",
"944 82 OFFCURVE",
"967 126 OFFCURVE",
"1004 201 CURVE SMOOTH",
"1007 207 OFFCURVE",
"1008 212 OFFCURVE",
"1008 217 CURVE SMOOTH",
"1008 221 OFFCURVE",
"1006 224 OFFCURVE",
"1004 224 CURVE SMOOTH",
"1003 224 LINE SMOOTH",
"1000 223 OFFCURVE",
"996 219 OFFCURVE",
"993 212 CURVE SMOOTH",
"958 140 OFFCURVE",
"928 88 OFFCURVE",
"903 56 CURVE SMOOTH",
"877 23 OFFCURVE",
"855 6 OFFCURVE",
"837 6 CURVE SMOOTH",
"812 6 OFFCURVE",
"799 35 OFFCURVE",
"799 90 CURVE SMOOTH",
"799 155 OFFCURVE",
"814 236 OFFCURVE",
"844 335 CURVE SMOOTH",
"875 437 OFFCURVE",
"911 522 OFFCURVE",
"953 591 CURVE SMOOTH",
"1001 669 OFFCURVE",
"1046 706 OFFCURVE",
"1088 702 CURVE SMOOTH",
"1117 699 OFFCURVE",
"1134 688 OFFCURVE",
"1137 669 CURVE",
"1130 681 OFFCURVE",
"1119 687 OFFCURVE",
"1104 687 CURVE SMOOTH",
"1073 687 OFFCURVE",
"1057 671 OFFCURVE",
"1057 639 CURVE SMOOTH",
"1057 627 OFFCURVE",
"1062 616 OFFCURVE",
"1070 608 CURVE SMOOTH",
"1078 599 OFFCURVE",
"1090 594 OFFCURVE",
"1104 594 CURVE SMOOTH",
"1121 594 OFFCURVE",
"1136 602 OFFCURVE",
"1147 617 CURVE SMOOTH",
"1157 631 OFFCURVE",
"1162 645 OFFCURVE",
"1162 662 CURVE SMOOTH",
"1162 705 OFFCURVE",
"1132 728 OFFCURVE",
"1075 728 CURVE SMOOTH",
"1069 728 OFFCURVE",
"1062 728 OFFCURVE",
"1055 727 CURVE SMOOTH",
"1034 725 OFFCURVE",
"1023 723 OFFCURVE",
"1024 722 CURVE",
"1007 719 OFFCURVE",
"993 717 OFFCURVE",
"982 713 CURVE SMOOTH",
"909 689 OFFCURVE",
"834 638 OFFCURVE",
"760 562 CURVE SMOOTH",
"696 497 OFFCURVE",
"638 419 OFFCURVE",
"584 328 CURVE",
"576 453 OFFCURVE",
"547 558 OFFCURVE",
"497 643 CURVE SMOOTH",
"440 739 OFFCURVE",
"366 787 OFFCURVE",
"274 787 CURVE SMOOTH",
"220 787 OFFCURVE",
"174 770 OFFCURVE",
"137 734 CURVE SMOOTH",
"99 698 OFFCURVE",
"80 651 OFFCURVE",
"80 596 CURVE SMOOTH",
"80 564 OFFCURVE",
"86 531 OFFCURVE",
"100 497 CURVE SMOOTH",
"127 430 OFFCURVE",
"175 378 OFFCURVE",
"244 341 CURVE SMOOTH",
"247 339 OFFCURVE",
"250 340 OFFCURVE",
"253 343 CURVE",
"255 347 OFFCURVE",
"254 350 OFFCURVE",
"250 352 CURVE SMOOTH",
"198 381 OFFCURVE",
"158 429 OFFCURVE",
"130 497 CURVE SMOOTH",
"122 518 OFFCURVE",
"118 539 OFFCURVE",
"118 560 CURVE SMOOTH",
"118 603 OFFCURVE",
"134 639 OFFCURVE",
"165 669 CURVE SMOOTH",
"196 699 OFFCURVE",
"234 714 OFFCURVE",
"277 714 CURVE SMOOTH",
"343 714 OFFCURVE",
"398 679 OFFCURVE",
"445 611 CURVE SMOOTH",
"501 529 OFFCURVE",
"533 408 OFFCURVE",
"540 248 CURVE",
"487 137 OFFCURVE",
"460 57 OFFCURVE",
"460 7 CURVE SMOOTH",
"460 -19 OFFCURVE",
"468 -32 OFFCURVE",
"484 -32 CURVE"
);
},
{
closed = 1;
nodes = (
"-27 -95 LINE",
"-11 -95 OFFCURVE",
"6 -93 OFFCURVE",
"25 -88 CURVE SMOOTH",
"139 -58 OFFCURVE",
"237 49 OFFCURVE",
"317 230 CURVE SMOOTH",
"352 309 OFFCURVE",
"388 423 OFFCURVE",
"427 572 CURVE SMOOTH",
"428 576 OFFCURVE",
"428 580 OFFCURVE",
"427 585 CURVE SMOOTH",
"426 590 OFFCURVE",
"424 592 OFFCURVE",
"421 592 CURVE SMOOTH",
"418 592 OFFCURVE",
"414 586 OFFCURVE",
"410 574 CURVE SMOOTH",
"353 402 OFFCURVE",
"284 257 OFFCURVE",
"205 140 CURVE SMOOTH",
"126 23 OFFCURVE",
"51 -45 OFFCURVE",
"-20 -65 CURVE SMOOTH",
"-27 -67 OFFCURVE",
"-33 -68 OFFCURVE",
"-40 -68 CURVE SMOOTH",
"-54 -68 OFFCURVE",
"-67 -64 OFFCURVE",
"-78 -57 CURVE SMOOTH",
"-89 -50 OFFCURVE",
"-95 -41 OFFCURVE",
"-96 -30 CURVE",
"-87 -43 OFFCURVE",
"-75 -49 OFFCURVE",
"-59 -49 CURVE SMOOTH",
"-46 -49 OFFCURVE",
"-34 -44 OFFCURVE",
"-23 -34 CURVE SMOOTH",
"-11 -24 OFFCURVE",
"-5 -10 OFFCURVE",
"-5 5 CURVE SMOOTH",
"-5 16 OFFCURVE",
"-8 26 OFFCURVE",
"-16 35 CURVE SMOOTH",
"-25 44 OFFCURVE",
"-36 49 OFFCURVE",
"-49 49 CURVE SMOOTH",
"-68 49 OFFCURVE",
"-83 42 OFFCURVE",
"-94 29 CURVE SMOOTH",
"-105 16 OFFCURVE",
"-112 -1 OFFCURVE",
"-112 -20 CURVE SMOOTH",
"-112 -41 OFFCURVE",
"-105 -58 OFFCURVE",
"-92 -71 CURVE SMOOTH",
"-77 -87 OFFCURVE",
"-55 -95 OFFCURVE",
"-27 -95 CURVE"
);
}
);
width = 918;
}
);
note = M;
unicode = 004D;
},
{
glyphname = N;
lastChange = "2021-08-10 19:52:28 +0000";
layers = (
{
anchors = (
{
name = bottom;
position = "{431, 0}";
},
{
name = top;
position = "{822, 754}";
}
);
layerId = "3191725B-F824-48C7-90A0-BAE99CBF9356";
paths = (
{
closed = 1;
nodes = (
"31 -95 LINE",
"39 -95 OFFCURVE",
"47 -94 OFFCURVE",
"55 -93 CURVE SMOOTH",
"173 -74 OFFCURVE",
"266 -7 OFFCURVE",
"333 108 CURVE SMOOTH",
"366 164 OFFCURVE",
"407 273 OFFCURVE",
"457 434 CURVE SMOOTH",
"496 561 OFFCURVE",
"537 639 OFFCURVE",
"578 666 CURVE",
"565 636 OFFCURVE",
"559 598 OFFCURVE",
"559 552 CURVE SMOOTH",
"559 477 OFFCURVE",
"575 389 OFFCURVE",
"607 287 CURVE SMOOTH",
"634 200 OFFCURVE",
"663 132 OFFCURVE",
"694 82 CURVE",
"690 63 OFFCURVE",
"688 46 OFFCURVE",
"688 32 CURVE SMOOTH",
"688 20 OFFCURVE",
"690 9 OFFCURVE",
"692 0 CURVE SMOOTH",
"699 -28 OFFCURVE",
"712 -42 OFFCURVE",
"731 -42 CURVE SMOOTH",
"742 -42 OFFCURVE",
"750 -38 OFFCURVE",
"757 -29 CURVE SMOOTH",
"764 -20 OFFCURVE",
"767 -11 OFFCURVE",
"767 0 CURVE SMOOTH",
"767 17 OFFCURVE",
"761 35 OFFCURVE",
"747 54 CURVE SMOOTH",
"746 55 OFFCURVE",
"735 67 OFFCURVE",
"714 92 CURVE",
"711 181 OFFCURVE",
"742 298 OFFCURVE",
"807 441 CURVE SMOOTH",
"873 588 OFFCURVE",
"939 683 OFFCURVE",
"1006 724 CURVE SMOOTH",
"1023 735 OFFCURVE",
"1041 739 OFFCURVE",
"1059 739 CURVE SMOOTH",
"1086 739 OFFCURVE",
"1101 730 OFFCURVE",
"1104 710 CURVE",
"1097 721 OFFCURVE",
"1087 726 OFFCURVE",
"1074 726 CURVE SMOOTH",
"1046 726 OFFCURVE",
"1031 711 OFFCURVE",
"1031 681 CURVE SMOOTH",
"1031 671 OFFCURVE",
"1035 662 OFFCURVE",
"1043 654 CURVE SMOOTH",
"1051 645 OFFCURVE",
"1061 641 OFFCURVE",
"1074 641 CURVE SMOOTH",
"1089 641 OFFCURVE",
"1102 648 OFFCURVE",
"1113 662 CURVE SMOOTH",
"1122 674 OFFCURVE",
"1126 687 OFFCURVE",
"1126 702 CURVE SMOOTH",
"1126 735 OFFCURVE",
"1102 752 OFFCURVE",
"1051 752 CURVE SMOOTH",
"942 752 OFFCURVE",
"854 678 OFFCURVE",
"785 527 CURVE SMOOTH",
"730 405 OFFCURVE",
"701 279 OFFCURVE",
"699 150 CURVE SMOOTH",
"699 127 OFFCURVE",
"699 116 OFFCURVE",
"698 116 CURVE SMOOTH",
"696 116 OFFCURVE",
"691 126 OFFCURVE",
"684 146 CURVE SMOOTH",
"626 311 OFFCURVE",
"598 451 OFFCURVE",
"598 568 CURVE SMOOTH",
"598 646 OFFCURVE",
"614 694 OFFCURVE",
"646 713 CURVE",
"670 699 OFFCURVE",
"689 693 OFFCURVE",
"703 693 CURVE SMOOTH",
"715 693 OFFCURVE",
"726 696 OFFCURVE",
"734 700 CURVE SMOOTH",
"743 705 OFFCURVE",
"747 712 OFFCURVE",
"747 719 CURVE SMOOTH",
"747 736 OFFCURVE",
"731 744 OFFCURVE",
"699 744 CURVE SMOOTH",
"688 744 OFFCURVE",
"676 743 OFFCURVE",
"662 740 CURVE",
"655 743 OFFCURVE",
"646 741 OFFCURVE",
"636 736 CURVE",
"627 737 OFFCURVE",
"621 738 OFFCURVE",
"618 738 CURVE SMOOTH",
"582 742 OFFCURVE",
"543 747 OFFCURVE",
"501 747 CURVE SMOOTH",
"422 747 OFFCURVE",
"351 737 OFFCURVE",
"286 719 CURVE SMOOTH",
"209 697 OFFCURVE",
"153 666 OFFCURVE",
"117 624 CURVE SMOOTH",
"93 596 OFFCURVE",
"80 570 OFFCURVE",
"80 546 CURVE SMOOTH",
"80 521 OFFCURVE",
"92 502 OFFCURVE",
"117 487 CURVE SMOOTH",
"142 472 OFFCURVE",
"173 465 OFFCURVE",
"210 465 CURVE SMOOTH",
"253 465 OFFCURVE",
"294 475 OFFCURVE",
"333 494 CURVE SMOOTH",
"372 513 OFFCURVE",
"402 535 OFFCURVE",
"423 562 CURVE SMOOTH",
"424 563 OFFCURVE",
"424 564 OFFCURVE",
"424 565 CURVE SMOOTH",
"424 570 OFFCURVE",
"421 572 OFFCURVE",
"416 572 CURVE SMOOTH",
"414 572 OFFCURVE",
"412 571 OFFCURVE",
"410 570 CURVE",
"384 544 OFFCURVE",
"353 523 OFFCURVE",
"317 507 CURVE SMOOTH",
"282 492 OFFCURVE",
"250 484 OFFCURVE",
"221 484 CURVE SMOOTH",
"172 484 OFFCURVE",
"148 502 OFFCURVE",
"148 538 CURVE SMOOTH",
"148 582 OFFCURVE",
"186 626 OFFCURVE",
"261 670 CURVE SMOOTH",
"291 687 OFFCURVE",
"331 702 OFFCURVE",
"380 713 CURVE SMOOTH",
"429 723 OFFCURVE",
"478 729 OFFCURVE",
"526 729 CURVE SMOOTH",
"552 729 OFFCURVE",
"576 728 OFFCURVE",
"597 724 CURVE SMOOTH",
"615 721 LINE",
"558 672 OFFCURVE",
"509 614 OFFCURVE",
"468 548 CURVE SMOOTH",
"442 505 OFFCURVE",
"410 442 OFFCURVE",
"372 358 CURVE SMOOTH",
"331 266 OFFCURVE",
"299 198 OFFCURVE",
"275 156 CURVE SMOOTH",
"203 28 OFFCURVE",
"130 -44 OFFCURVE",
"55 -64 CURVE SMOOTH",
"48 -66 OFFCURVE",
"41 -67 OFFCURVE",
"34 -67 CURVE SMOOTH",
"-3 -67 OFFCURVE",
"-23 -55 OFFCURVE",
"-27 -31 CURVE",
"-20 -45 OFFCURVE",
"-8 -51 OFFCURVE",
"9 -51 CURVE SMOOTH",
"37 -51 OFFCURVE",
"52 -35 OFFCURVE",
"52 -3 CURVE SMOOTH",
"52 9 OFFCURVE",
"47 20 OFFCURVE",
"39 29 CURVE SMOOTH",
"29 39 OFFCURVE",
"17 44 OFFCURVE",
"3 44 CURVE SMOOTH",
"-13 44 OFFCURVE",
"-27 36 OFFCURVE",
"-37 22 CURVE SMOOTH",
"-47 8 OFFCURVE",
"-52 -6 OFFCURVE",
"-52 -23 CURVE SMOOTH",
"-52 -72 OFFCURVE",
"-23 -95 OFFCURVE",
"31 -95 CURVE"
);
}
);
width = 861;
}
);
note = N;
unicode = 004E;
},
{
glyphname = Eng;
lastChange = "2021-08-10 19:52:28 +0000";
layers = (
{
layerId = "3191725B-F824-48C7-90A0-BAE99CBF9356";
paths = (
{
closed = 1;
nodes = (
"353 -381 LINE",
"454 -381 OFFCURVE",
"521 -334 OFFCURVE",
"574 -252 CURVE SMOOTH",
"770 57 OFFCURVE",
"781 654 OFFCURVE",
"1006 724 CURVE SMOOTH",
"1023 729 OFFCURVE",
"1041 739 OFFCURVE",
"1059 739 CURVE SMOOTH",
"1086 739 OFFCURVE",
"1101 730 OFFCURVE",
"1104 710 CURVE",
"1097 721 OFFCURVE",
"1087 726 OFFCURVE",
"1074 726 CURVE SMOOTH",
"1046 726 OFFCURVE",
"1031 711 OFFCURVE",
"1031 681 CURVE SMOOTH",
"1031 671 OFFCURVE",
"1035 662 OFFCURVE",
"1043 654 CURVE SMOOTH",
"1051 645 OFFCURVE",
"1061 641 OFFCURVE",
"1074 641 CURVE SMOOTH",
"1089 641 OFFCURVE",
"1102 648 OFFCURVE",
"1113 662 CURVE SMOOTH",
"1122 674 OFFCURVE",
"1126 687 OFFCURVE",
"1126 702 CURVE SMOOTH",
"1126 735 OFFCURVE",
"1102 752 OFFCURVE",
"1051 752 CURVE SMOOTH",
"818 752 OFFCURVE",
"747 397 OFFCURVE",
"649 83 CURVE",
"621 212 OFFCURVE",
"598 456 OFFCURVE",
"598 568 CURVE SMOOTH",
"598 646 OFFCURVE",
"614 694 OFFCURVE",
"646 713 CURVE",
"670 699 OFFCURVE",
"689 693 OFFCURVE",
"703 693 CURVE SMOOTH",
"715 693 OFFCURVE",
"726 696 OFFCURVE",
"734 700 CURVE SMOOTH",
"743 705 OFFCURVE",
"747 712 OFFCURVE",
"747 719 CURVE SMOOTH",
"747 736 OFFCURVE",
"731 744 OFFCURVE",
"699 744 CURVE SMOOTH",
"688 744 OFFCURVE",
"676 743 OFFCURVE",
"662 740 CURVE",
"655 743 OFFCURVE",
"646 741 OFFCURVE",
"636 736 CURVE",
"627 737 OFFCURVE",
"621 738 OFFCURVE",
"618 738 CURVE SMOOTH",
"582 742 OFFCURVE",
"543 747 OFFCURVE",
"501 747 CURVE SMOOTH",
"422 747 OFFCURVE",
"351 737 OFFCURVE",
"286 719 CURVE SMOOTH",
"209 697 OFFCURVE",
"153 666 OFFCURVE",
"117 624 CURVE SMOOTH",
"93 596 OFFCURVE",
"80 570 OFFCURVE",
"80 546 CURVE SMOOTH",
"80 521 OFFCURVE",
"92 502 OFFCURVE",
"117 487 CURVE SMOOTH",
"142 472 OFFCURVE",
"173 465 OFFCURVE",
"210 465 CURVE SMOOTH",
"253 465 OFFCURVE",
"294 475 OFFCURVE",
"333 494 CURVE SMOOTH",
"372 513 OFFCURVE",
"402 535 OFFCURVE",
"423 562 CURVE SMOOTH",
"424 563 OFFCURVE",
"424 564 OFFCURVE",
"424 565 CURVE SMOOTH",
"424 570 OFFCURVE",
"421 572 OFFCURVE",
"416 572 CURVE SMOOTH",
"414 572 OFFCURVE",
"412 571 OFFCURVE",
"410 570 CURVE",
"384 544 OFFCURVE",
"353 523 OFFCURVE",
"317 507 CURVE SMOOTH",
"282 492 OFFCURVE",
"250 484 OFFCURVE",
"221 484 CURVE SMOOTH",
"172 484 OFFCURVE",
"148 502 OFFCURVE",
"148 538 CURVE SMOOTH",
"148 582 OFFCURVE",
"186 626 OFFCURVE",
"261 670 CURVE SMOOTH",
"291 687 OFFCURVE",
"331 702 OFFCURVE",
"380 713 CURVE SMOOTH",
"429 723 OFFCURVE",
"478 729 OFFCURVE",
"526 729 CURVE SMOOTH",
"552 729 OFFCURVE",
"576 728 OFFCURVE",
"597 724 CURVE SMOOTH",
"615 721 LINE",
"558 685 OFFCURVE",
"505 616 OFFCURVE",
"453 523 CURVE SMOOTH",
"354 347 OFFCURVE",
"271 46 OFFCURVE",
"117 10 CURVE SMOOTH",
"111 9 OFFCURVE",
"106 8 OFFCURVE",
"100 8 CURVE SMOOTH",
"69 8 OFFCURVE",
"53 17 OFFCURVE",
"50 36 CURVE",
"55 25 OFFCURVE",
"66 21 OFFCURVE",
"80 21 CURVE SMOOTH",
"103 21 OFFCURVE",
"115 34 OFFCURVE",
"115 59 CURVE SMOOTH",
"115 68 OFFCURVE",
"110 76 OFFCURVE",
"104 83 CURVE SMOOTH",
"97 90 OFFCURVE",
"88 94 OFFCURVE",
"77 95 CURVE SMOOTH",
"63 95 OFFCURVE",
"51 89 OFFCURVE",
"41 77 CURVE SMOOTH",
"33 67 OFFCURVE",
"29 56 OFFCURVE",
"29 43 CURVE SMOOTH",
"29 4 OFFCURVE",
"53 -14 OFFCURVE",
"97 -14 CURVE SMOOTH",
"104 -14 OFFCURVE",
"111 -12 OFFCURVE",
"117 -12 CURVE SMOOTH",
"320 0 OFFCURVE",
"381 200 OFFCURVE",
"427 338 CURVE SMOOTH",
"495 543 OFFCURVE",
"537 639 OFFCURVE",
"578 666 CURVE",
"565 636 OFFCURVE",
"559 598 OFFCURVE",
"559 552 CURVE SMOOTH",
"559 381 OFFCURVE",
"601 139 OFFCURVE",
"637 51 CURVE",
"636 49 OFFCURVE",
"636 49 OFFCURVE",
"637 50 CURVE",
"622 -27 OFFCURVE",
"542 -167 OFFCURVE",
"511 -222 CURVE SMOOTH",
"459 -314 OFFCURVE",
"392 -339 OFFCURVE",
"346 -339 CURVE SMOOTH",
"274 -339 OFFCURVE",
"248 -299 OFFCURVE",
"248 -238 CURVE SMOOTH",
"248 -229 OFFCURVE",
"249 -219 OFFCURVE",
"250 -208 CURVE SMOOTH",
"250 -204 OFFCURVE",
"246 -202 OFFCURVE",
"241 -202 CURVE SMOOTH",
"235 -202 OFFCURVE",
"228 -205 OFFCURVE",
"228 -209 CURVE SMOOTH",
"226 -222 OFFCURVE",
"225 -235 OFFCURVE",
"225 -248 CURVE SMOOTH",
"225 -315 OFFCURVE",
"251 -381 OFFCURVE",
"353 -381 CURVE"
);
}
);
width = 851;
}
);
unicode = 014A;
},
{
glyphname = O;
lastChange = "2021-08-10 19:52:28 +0000";
layers = (
{
anchors = (
{
name = bottom;
position = "{181, -36}";
},
{
name = center;
position = "{369, 377}";
},
{
name = ogonek;
position = "{291, -34}";
},
{
name = top;
position = "{664, 693}";
},
{
name = topleft;
position = "{20, 754}";
},
{
name = topright;
position = "{754, 631}";
}
);
layerId = "3191725B-F824-48C7-90A0-BAE99CBF9356";
paths = (
{
closed = 1;
nodes = (
"311 -64 LINE",
"406 -64 OFFCURVE",
"495 -32 OFFCURVE",
"576 32 CURVE SMOOTH",
"647 88 OFFCURVE",
"707 164 OFFCURVE",
"754 258 CURVE SMOOTH",
"786 323 OFFCURVE",
"802 384 OFFCURVE",
"802 442 CURVE SMOOTH",
"802 483 OFFCURVE",
"794 518 OFFCURVE",
"777 546 CURVE",
"795 572 OFFCURVE",
"804 596 OFFCURVE",
"804 617 CURVE SMOOTH",
"804 668 OFFCURVE",
"757 693 OFFCURVE",
"664 693 CURVE SMOOTH",
"565 693 OFFCURVE",
"467 662 OFFCURVE",
"372 599 CURVE",
"315 647 OFFCURVE",
"250 671 OFFCURVE",
"176 671 CURVE SMOOTH",
"133 671 OFFCURVE",
"97 662 OFFCURVE",
"67 644 CURVE SMOOTH",
"31 623 OFFCURVE",
"13 592 OFFCURVE",
"13 553 CURVE SMOOTH",
"13 514 OFFCURVE",
"29 477 OFFCURVE",
"62 443 CURVE SMOOTH",
"90 414 OFFCURVE",
"126 393 OFFCURVE",
"167 378 CURVE",
"126 301 OFFCURVE",
"105 226 OFFCURVE",
"105 152 CURVE SMOOTH",
"105 85 OFFCURVE",
"123 33 OFFCURVE",
"159 -6 CURVE SMOOTH",
"194 -45 OFFCURVE",
"245 -64 OFFCURVE",
"311 -64 CURVE"
);
},
{
closed = 1;
nodes = (
"331 -44 LINE",
"281 -44 OFFCURVE",
"243 -27 OFFCURVE",
"218 8 CURVE SMOOTH",
"196 38 OFFCURVE",
"185 79 OFFCURVE",
"185 131 CURVE SMOOTH",
"185 202 OFFCURVE",
"208 278 OFFCURVE",
"255 359 CURVE",
"276 356 OFFCURVE",
"298 355 OFFCURVE",
"321 355 CURVE SMOOTH",
"395 355 OFFCURVE",
"468 367 OFFCURVE",
"541 390 CURVE SMOOTH",
"621 416 OFFCURVE",
"685 452 OFFCURVE",
"734 498 CURVE",
"743 475 OFFCURVE",
"747 449 OFFCURVE",
"747 420 CURVE SMOOTH",
"747 365 OFFCURVE",
"733 310 OFFCURVE",
"705 254 CURVE SMOOTH",
"665 174 OFFCURVE",
"613 108 OFFCURVE",
"552 53 CURVE SMOOTH",
"479 -12 OFFCURVE",
"406 -44 OFFCURVE",
"331 -44 CURVE"
);
},
{
closed = 1;
nodes = (
"181 404 LINE",
"93 433 OFFCURVE",
"49 484 OFFCURVE",
"49 557 CURVE SMOOTH",
"49 588 OFFCURVE",
"61 612 OFFCURVE",
"85 629 CURVE SMOOTH",
"106 644 OFFCURVE",
"132 652 OFFCURVE",
"165 652 CURVE SMOOTH",
"228 652 OFFCURVE",
"289 629 OFFCURVE",
"350 584 CURVE",
"280 534 OFFCURVE",
"224 474 OFFCURVE",
"181 404 CURVE"
);
},
{
closed = 1;
nodes = (
"328 382 LINE",
"309 382 OFFCURVE",
"290 383 OFFCURVE",
"271 385 CURVE",
"307 442 OFFCURVE",
"350 494 OFFCURVE",
"400 539 CURVE",
"434 497 LINE",
"436 493 OFFCURVE",
"440 491 OFFCURVE",
"445 491 CURVE SMOOTH",
"448 491 LINE SMOOTH",
"454 492 OFFCURVE",
"455 495 OFFCURVE",
"452 500 CURVE SMOOTH",
"442 519 OFFCURVE",
"430 537 OFFCURVE",
"417 553 CURVE",
"511 632 OFFCURVE",
"602 672 OFFCURVE",
"691 672 CURVE SMOOTH",
"738 672 OFFCURVE",
"761 657 OFFCURVE",
"761 627 CURVE SMOOTH",
"761 612 OFFCURVE",
"756 596 OFFCURVE",
"747 579 CURVE",
"725 596 OFFCURVE",
"698 605 OFFCURVE",
"666 605 CURVE SMOOTH",
"639 605 OFFCURVE",
"608 598 OFFCURVE",
"575 585 CURVE SMOOTH",
"568 582 OFFCURVE",
"564 578 OFFCURVE",
"564 572 CURVE SMOOTH",
"564 568 OFFCURVE",
"566 566 OFFCURVE",
"571 566 CURVE SMOOTH",
"573 566 OFFCURVE",
"575 566 OFFCURVE",
"577 567 CURVE SMOOTH",
"596 576 OFFCURVE",
"615 581 OFFCURVE",
"633 581 CURVE SMOOTH",
"666 581 OFFCURVE",
"693 566 OFFCURVE",
"714 537 CURVE",
"704 527 OFFCURVE",
"694 517 OFFCURVE",
"682 508 CURVE SMOOTH",
"602 446 OFFCURVE",
"514 408 OFFCURVE",
"419 390 CURVE SMOOTH",
"390 385 OFFCURVE",
"360 382 OFFCURVE",
"328 382 CURVE"
);
}
);
width = 737;
}
);
note = O;
unicode = 004F;
},
{
glyphname = Oslash;
lastChange = "2021-08-10 19:52:28 +0000";
layers = (
{
anchors = (
{
name = bottom;
position = "{350, 0}";
},
{
name = top;
position = "{542, 722}";
}
);
layerId = "3191725B-F824-48C7-90A0-BAE99CBF9356";
paths = (
{
closed = 1;
nodes = (
"179 -224 LINE",
"183 -224 OFFCURVE",
"188 -221 OFFCURVE",
"193 -215 CURVE SMOOTH",
"222 -182 OFFCURVE",
"257 -132 OFFCURVE",
"296 -64 CURVE",
"311 -64 LINE SMOOTH",
"406 -64 OFFCURVE",
"495 -32 OFFCURVE",
"576 32 CURVE SMOOTH",
"647 88 OFFCURVE",
"707 164 OFFCURVE",
"754 258 CURVE SMOOTH",
"786 323 OFFCURVE",
"802 384 OFFCURVE",
"802 442 CURVE SMOOTH",
"802 483 OFFCURVE",
"794 518 OFFCURVE",
"777 546 CURVE",
"795 572 OFFCURVE",
"804 596 OFFCURVE",
"804 617 CURVE SMOOTH",
"804 663 OFFCURVE",
"764 688 OFFCURVE",
"685 692 CURVE",
"734 769 OFFCURVE",
"771 808 OFFCURVE",
"796 808 CURVE SMOOTH",
"803 808 OFFCURVE",
"809 805 OFFCURVE",
"816 798 CURVE SMOOTH",
"822 792 OFFCURVE",
"827 789 OFFCURVE",
"830 789 CURVE SMOOTH",
"834 789 OFFCURVE",
"836 792 OFFCURVE",
"836 798 CURVE SMOOTH",
"836 809 OFFCURVE",
"832 819 OFFCURVE",
"824 826 CURVE SMOOTH",
"810 839 OFFCURVE",
"795 845 OFFCURVE",
"779 845 CURVE SMOOTH",
"732 845 OFFCURVE",
"677 793 OFFCURVE",
"614 690 CURVE",
"531 681 OFFCURVE",
"450 650 OFFCURVE",
"372 599 CURVE",
"315 647 OFFCURVE",
"250 671 OFFCURVE",
"176 671 CURVE SMOOTH",
"133 671 OFFCURVE",
"97 662 OFFCURVE",
"67 644 CURVE SMOOTH",
"31 623 OFFCURVE",
"13 592 OFFCURVE",
"13 553 CURVE SMOOTH",
"13 514 OFFCURVE",
"29 477 OFFCURVE",
"62 443 CURVE SMOOTH",
"90 414 OFFCURVE",
"126 393 OFFCURVE",
"167 378 CURVE",
"126 301 OFFCURVE",
"105 226 OFFCURVE",
"105 152 CURVE SMOOTH",
"105 94 OFFCURVE",
"119 46 OFFCURVE",
"146 9 CURVE SMOOTH",
"173 -28 OFFCURVE",
"212 -51 OFFCURVE",
"263 -60 CURVE",
"234 -113 OFFCURVE",
"206 -158 OFFCURVE",
"181 -197 CURVE SMOOTH",
"176 -204 OFFCURVE",
"174 -211 OFFCURVE",
"174 -217 CURVE SMOOTH",
"174 -222 OFFCURVE",
"176 -224 OFFCURVE",
"179 -224 CURVE"
);
},
{
closed = 1;
nodes = (
"277 -35 LINE",
"216 -14 OFFCURVE",
"185 42 OFFCURVE",
"185 131 CURVE SMOOTH",
"185 202 OFFCURVE",
"208 278 OFFCURVE",
"255 359 CURVE",
"276 356 OFFCURVE",
"298 355 OFFCURVE",
"321 355 CURVE SMOOTH",
"366 355 OFFCURVE",
"411 360 OFFCURVE",
"457 369 CURVE",
"421 282 OFFCURVE",
"397 220 OFFCURVE",
"382 185 CURVE SMOOTH",
"352 112 OFFCURVE",
"316 39 OFFCURVE",
"277 -35 CURVE"
);
},
{
closed = 1;
nodes = (
"181 404 LINE",
"93 433 OFFCURVE",
"49 484 OFFCURVE",
"49 557 CURVE SMOOTH",
"49 588 OFFCURVE",
"61 612 OFFCURVE",
"85 629 CURVE SMOOTH",
"106 644 OFFCURVE",
"132 652 OFFCURVE",
"165 652 CURVE SMOOTH",
"228 652 OFFCURVE",
"289 629 OFFCURVE",
"350 584 CURVE",
"280 534 OFFCURVE",
"224 474 OFFCURVE",
"181 404 CURVE"
);
},
{
closed = 1;
nodes = (
"331 -44 LINE",
"323 -44 OFFCURVE",
"315 -43 OFFCURVE",
"308 -42 CURVE",
"403 146 OFFCURVE",
"473 288 OFFCURVE",
"518 383 CURVE",
"609 409 OFFCURVE",
"681 447 OFFCURVE",
"734 498 CURVE",
"743 475 OFFCURVE",
"747 449 OFFCURVE",
"747 420 CURVE SMOOTH",
"747 365 OFFCURVE",
"733 310 OFFCURVE",
"705 254 CURVE SMOOTH",
"665 174 OFFCURVE",
"613 108 OFFCURVE",
"552 53 CURVE SMOOTH",
"479 -12 OFFCURVE",
"406 -44 OFFCURVE",
"331 -44 CURVE"
);
},
{
closed = 1;
nodes = (
"328 382 LINE",
"309 382 OFFCURVE",
"290 383 OFFCURVE",
"271 385 CURVE",
"307 442 OFFCURVE",
"350 494 OFFCURVE",
"400 539 CURVE",
"434 497 LINE",
"436 493 OFFCURVE",
"440 491 OFFCURVE",
"445 491 CURVE SMOOTH",
"448 491 LINE SMOOTH",
"454 492 OFFCURVE",
"455 495 OFFCURVE",
"452 500 CURVE SMOOTH",
"442 519 OFFCURVE",
"430 537 OFFCURVE",
"417 553 CURVE",
"476 602 OFFCURVE",
"535 637 OFFCURVE",
"594 656 CURVE",
"557 590 OFFCURVE",
"516 505 OFFCURVE",
"471 402 CURVE",
"453 397 OFFCURVE",
"436 393 OFFCURVE",
"419 390 CURVE SMOOTH",
"390 385 OFFCURVE",
"360 382 OFFCURVE",
"328 382 CURVE"
);
},
{
closed = 1;
nodes = (
"540 427 LINE",
"592 531 OFFCURVE",
"636 612 OFFCURVE",
"672 671 CURVE",
"678 672 OFFCURVE",
"684 672 OFFCURVE",
"691 672 CURVE SMOOTH",
"738 672 OFFCURVE",
"761 657 OFFCURVE",
"761 627 CURVE SMOOTH",
"761 612 OFFCURVE",
"756 596 OFFCURVE",
"747 579 CURVE",
"735 588 OFFCURVE",
"725 593 OFFCURVE",
"715 593 CURVE SMOOTH",
"703 593 OFFCURVE",
"697 588 OFFCURVE",
"697 577 CURVE SMOOTH",
"697 566 OFFCURVE",
"703 553 OFFCURVE",
"714 537 CURVE",
"704 527 OFFCURVE",
"694 517 OFFCURVE",
"682 508 CURVE SMOOTH",
"642 476 OFFCURVE",
"594 450 OFFCURVE",
"540 427 CURVE"
);
}
);
width = 699;
}
);
note = Oslash;
unicode = 00D8;
},
{
glyphname = OE;
lastChange = "2021-08-10 19:52:28 +0000";
layers = (
{
layerId = "3191725B-F824-48C7-90A0-BAE99CBF9356";
paths = (
{
closed = 1;
nodes = (
"311 -64 LINE",
"424 -64 OFFCURVE",
"527 -19 OFFCURVE",
"619 70 CURVE",
"632 31 OFFCURVE",
"658 -1 OFFCURVE",
"697 -24 CURVE SMOOTH",
"740 -50 OFFCURVE",
"795 -63 OFFCURVE",
"860 -63 CURVE SMOOTH",
"944 -63 OFFCURVE",
"1019 -36 OFFCURVE",
"1086 17 CURVE SMOOTH",
"1147 66 OFFCURVE",
"1178 115 OFFCURVE",
"1178 165 CURVE SMOOTH",
"1178 218 OFFCURVE",
"1139 244 OFFCURVE",
"1062 244 CURVE SMOOTH",
"1050 244 OFFCURVE",
"1038 243 OFFCURVE",
"1025 242 CURVE SMOOTH",
"971 237 OFFCURVE",
"917 213 OFFCURVE",
"862 172 CURVE SMOOTH",
"817 139 OFFCURVE",
"789 110 OFFCURVE",
"778 85 CURVE",
"777 81 OFFCURVE",
"778 78 OFFCURVE",
"782 76 CURVE SMOOTH",
"786 74 OFFCURVE",
"789 75 OFFCURVE",
"790 79 CURVE",
"799 99 OFFCURVE",
"829 127 OFFCURVE",
"878 161 CURVE SMOOTH",
"934 200 OFFCURVE",
"979 219 OFFCURVE",
"1014 219 CURVE SMOOTH",
"1089 219 OFFCURVE",
"1126 195 OFFCURVE",
"1126 147 CURVE SMOOTH",
"1126 104 OFFCURVE",
"1099 62 OFFCURVE",
"1046 19 CURVE SMOOTH",
"989 -27 OFFCURVE",
"927 -50 OFFCURVE",
"860 -50 CURVE SMOOTH",
"811 -50 OFFCURVE",
"772 -34 OFFCURVE",
"745 -1 CURVE SMOOTH",
"720 28 OFFCURVE",
"708 66 OFFCURVE",
"708 112 CURVE SMOOTH",
"708 144 OFFCURVE",
"714 176 OFFCURVE",
"727 208 CURVE",
"738 226 OFFCURVE",
"747 242 OFFCURVE",
"754 258 CURVE SMOOTH",
"758 267 LINE",
"797 322 OFFCURVE",
"849 354 OFFCURVE",
"912 364 CURVE",
"935 341 OFFCURVE",
"964 329 OFFCURVE",
"998 329 CURVE SMOOTH",
"1024 329 OFFCURVE",
"1037 337 OFFCURVE",
"1037 352 CURVE SMOOTH",
"1037 368 OFFCURVE",
"1025 377 OFFCURVE",
"1001 379 CURVE SMOOTH",
"978 380 OFFCURVE",
"955 381 OFFCURVE",
"933 380 CURVE",
"928 389 OFFCURVE",
"926 399 OFFCURVE",
"925 411 CURVE",
"1049 415 OFFCURVE",
"1145 441 OFFCURVE",
"1213 488 CURVE SMOOTH",
"1267 526 OFFCURVE",
"1294 564 OFFCURVE",
"1294 603 CURVE SMOOTH",
"1294 627 OFFCURVE",
"1283 647 OFFCURVE",
"1260 662 CURVE SMOOTH",
"1238 677 OFFCURVE",
"1208 685 OFFCURVE",
"1171 685 CURVE SMOOTH",
"1156 685 OFFCURVE",
"1139 684 OFFCURVE",
"1122 681 CURVE SMOOTH",
"1038 667 OFFCURVE",
"974 637 OFFCURVE",
"929 592 CURVE SMOOTH",
"891 554 OFFCURVE",
"872 511 OFFCURVE",
"872 464 CURVE SMOOTH",
"872 451 OFFCURVE",
"873 439 OFFCURVE",
"876 427 CURVE",
"850 428 OFFCURVE",
"825 432 OFFCURVE",
"802 437 CURVE",
"803 480 OFFCURVE",
"795 517 OFFCURVE",
"777 546 CURVE",
"795 572 OFFCURVE",
"804 596 OFFCURVE",
"804 617 CURVE SMOOTH",
"804 668 OFFCURVE",
"757 693 OFFCURVE",
"664 693 CURVE SMOOTH",
"565 693 OFFCURVE",
"467 662 OFFCURVE",
"372 599 CURVE",
"315 647 OFFCURVE",
"250 671 OFFCURVE",
"176 671 CURVE SMOOTH",
"133 671 OFFCURVE",
"97 662 OFFCURVE",
"67 644 CURVE SMOOTH",
"31 623 OFFCURVE",
"13 592 OFFCURVE",
"13 553 CURVE SMOOTH",
"13 514 OFFCURVE",
"29 477 OFFCURVE",
"62 443 CURVE SMOOTH",
"90 414 OFFCURVE",
"126 393 OFFCURVE",
"167 378 CURVE",
"126 301 OFFCURVE",
"105 226 OFFCURVE",
"105 152 CURVE SMOOTH",
"105 85 OFFCURVE",
"123 33 OFFCURVE",
"159 -6 CURVE SMOOTH",
"194 -45 OFFCURVE",
"245 -64 OFFCURVE",
"311 -64 CURVE"
);
},
{
closed = 1;
nodes = (
"331 -44 LINE",
"281 -44 OFFCURVE",
"243 -27 OFFCURVE",
"218 8 CURVE SMOOTH",
"196 38 OFFCURVE",
"185 79 OFFCURVE",
"185 131 CURVE SMOOTH",
"185 202 OFFCURVE",
"208 278 OFFCURVE",
"255 359 CURVE",
"276 356 OFFCURVE",
"298 355 OFFCURVE",
"321 355 CURVE SMOOTH",
"395 355 OFFCURVE",
"468 367 OFFCURVE",
"541 390 CURVE SMOOTH",
"621 416 OFFCURVE",
"685 452 OFFCURVE",
"734 498 CURVE",
"743 475 OFFCURVE",
"747 449 OFFCURVE",
"747 420 CURVE SMOOTH",
"747 388 OFFCURVE",
"742 355 OFFCURVE",
"732 322 CURVE",
"691 296 OFFCURVE",
"659 264 OFFCURVE",
"638 226 CURVE SMOOTH",
"617 189 OFFCURVE",
"607 151 OFFCURVE",
"610 112 CURVE",
"521 8 OFFCURVE",
"428 -44 OFFCURVE",
"331 -44 CURVE"
);
},
{
closed = 1;
nodes = (
"181 404 LINE",
"93 433 OFFCURVE",
"49 484 OFFCURVE",
"49 557 CURVE SMOOTH",
"49 588 OFFCURVE",
"61 612 OFFCURVE",
"85 629 CURVE SMOOTH",
"106 644 OFFCURVE",
"132 652 OFFCURVE",
"165 652 CURVE SMOOTH",
"228 652 OFFCURVE",
"289 629 OFFCURVE",
"350 584 CURVE",
"280 534 OFFCURVE",
"224 474 OFFCURVE",
"181 404 CURVE"
);
},
{
closed = 1;
nodes = (
"328 382 LINE",
"309 382 OFFCURVE",
"290 383 OFFCURVE",
"271 385 CURVE",
"307 442 OFFCURVE",
"350 494 OFFCURVE",
"400 539 CURVE",
"434 497 LINE",
"436 493 OFFCURVE",
"440 491 OFFCURVE",
"445 491 CURVE SMOOTH",
"448 491 LINE SMOOTH",
"454 492 OFFCURVE",
"455 495 OFFCURVE",
"452 500 CURVE SMOOTH",
"442 519 OFFCURVE",
"430 537 OFFCURVE",
"417 553 CURVE",
"511 632 OFFCURVE",
"602 672 OFFCURVE",
"691 672 CURVE SMOOTH",
"738 672 OFFCURVE",
"761 657 OFFCURVE",
"761 627 CURVE SMOOTH",
"761 612 OFFCURVE",
"756 596 OFFCURVE",
"747 579 CURVE",
"725 596 OFFCURVE",
"698 605 OFFCURVE",
"666 605 CURVE SMOOTH",
"639 605 OFFCURVE",
"608 598 OFFCURVE",
"575 585 CURVE SMOOTH",
"568 582 OFFCURVE",
"564 578 OFFCURVE",
"564 572 CURVE SMOOTH",
"564 568 OFFCURVE",
"566 566 OFFCURVE",
"571 566 CURVE SMOOTH",
"573 566 OFFCURVE",
"575 566 OFFCURVE",
"577 567 CURVE SMOOTH",
"596 576 OFFCURVE",
"615 581 OFFCURVE",
"633 581 CURVE SMOOTH",
"666 581 OFFCURVE",
"693 566 OFFCURVE",
"714 537 CURVE",
"704 527 OFFCURVE",
"694 517 OFFCURVE",
"682 508 CURVE SMOOTH",
"602 446 OFFCURVE",
"514 408 OFFCURVE",
"419 390 CURVE SMOOTH",
"390 385 OFFCURVE",
"360 382 OFFCURVE",
"328 382 CURVE"
);
},
{
closed = 1;
nodes = (
"790 351 LINE",
"796 374 OFFCURVE",
"800 397 OFFCURVE",
"802 419 CURVE",
"826 415 OFFCURVE",
"852 412 OFFCURVE",
"881 411 CURVE",
"886 399 OFFCURVE",
"892 388 OFFCURVE",
"900 377 CURVE",
"860 373 OFFCURVE",
"823 364 OFFCURVE",
"790 351 CURVE"
);
},
{
closed = 1;
nodes = (
"925 428 LINE",
"928 481 OFFCURVE",
"956 531 OFFCURVE",
"1007 576 CURVE SMOOTH",
"1069 631 OFFCURVE",
"1133 658 OFFCURVE",
"1198 658 CURVE SMOOTH",
"1247 658 OFFCURVE",
"1271 643 OFFCURVE",
"1271 613 CURVE SMOOTH",
"1271 584 OFFCURVE",
"1243 549 OFFCURVE",
"1186 509 CURVE SMOOTH",
"1115 460 OFFCURVE",
"1028 433 OFFCURVE",
"925 428 CURVE"
);
}
);
width = 1208;
}
);
note = OE;
unicode = 0152;
},
{
glyphname = P;
lastChange = "2021-08-10 23:29:44 +0000";
layers = (
{
layerId = "3191725B-F824-48C7-90A0-BAE99CBF9356";
paths = (
{
closed = 1;
nodes = (
"55 -58 LINE",
"124 -58 OFFCURVE",
"195 -24 OFFCURVE",
"266 45 CURVE SMOOTH",
"320 98 OFFCURVE",
"361 153 OFFCURVE",
"389 212 CURVE SMOOTH",
"413 263 OFFCURVE",
"430 304 OFFCURVE",
"440 333 CURVE",
"450 332 OFFCURVE",
"460 332 OFFCURVE",
"470 332 CURVE SMOOTH",
"533 332 OFFCURVE",
"595 348 OFFCURVE",
"656 382 CURVE SMOOTH",
"735 425 OFFCURVE",
"777 481 OFFCURVE",
"783 548 CURVE SMOOTH",
"787 591 OFFCURVE",
"767 629 OFFCURVE",
"724 661 CURVE SMOOTH",
"694 683 OFFCURVE",
"651 695 OFFCURVE",
"596 696 CURVE",
"625 722 OFFCURVE",
"656 735 OFFCURVE",
"689 735 CURVE SMOOTH",
"704 735 OFFCURVE",
"717 732 OFFCURVE",
"729 726 CURVE SMOOTH",
"733 724 OFFCURVE",
"736 728 OFFCURVE",
"736 735 CURVE SMOOTH",
"736 739 OFFCURVE",
"735 741 OFFCURVE",
"731 743 CURVE SMOOTH",
"714 750 OFFCURVE",
"697 754 OFFCURVE",
"678 754 CURVE SMOOTH",
"633 754 OFFCURVE",
"591 736 OFFCURVE",
"551 701 CURVE",
"535 702 OFFCURVE",
"518 702 OFFCURVE",
"501 702 CURVE SMOOTH",
"409 702 OFFCURVE",
"323 689 OFFCURVE",
"243 665 CURVE SMOOTH",
"152 637 OFFCURVE",
"91 600 OFFCURVE",
"59 552 CURVE SMOOTH",
"41 525 OFFCURVE",
"31 497 OFFCURVE",
"31 470 CURVE SMOOTH",
"31 440 OFFCURVE",
"42 415 OFFCURVE",
"64 395 CURVE SMOOTH",
"85 375 OFFCURVE",
"115 365 OFFCURVE",
"153 365 CURVE SMOOTH",
"234 365 OFFCURVE",
"298 396 OFFCURVE",
"343 459 CURVE SMOOTH",
"360 482 OFFCURVE",
"375 509 OFFCURVE",
"386 541 CURVE SMOOTH",
"392 557 OFFCURVE",
"396 575 OFFCURVE",
"402 592 CURVE SMOOTH",
"404 599 OFFCURVE",
"403 603 OFFCURVE",
"397 603 CURVE SMOOTH",
"393 603 OFFCURVE",
"391 601 OFFCURVE",
"389 596 CURVE SMOOTH",
"371 543 OFFCURVE",
"350 504 OFFCURVE",
"328 476 CURVE SMOOTH",
"282 418 OFFCURVE",
"222 388 OFFCURVE",
"146 388 CURVE SMOOTH",
"85 388 OFFCURVE",
"55 409 OFFCURVE",
"55 451 CURVE SMOOTH",
"55 472 OFFCURVE",
"65 495 OFFCURVE",
"84 519 CURVE SMOOTH",
"125 570 OFFCURVE",
"190 611 OFFCURVE",
"280 641 CURVE SMOOTH",
"364 669 OFFCURVE",
"447 682 OFFCURVE",
"529 679 CURVE",
"510 658 OFFCURVE",
"493 635 OFFCURVE",
"480 606 CURVE SMOOTH",
"348 313 LINE SMOOTH",
"296 197 OFFCURVE",
"253 115 OFFCURVE",
"219 71 CURVE SMOOTH",
"179 19 OFFCURVE",
"131 -13 OFFCURVE",
"74 -28 CURVE SMOOTH",
"67 -30 OFFCURVE",
"60 -31 OFFCURVE",
"52 -31 CURVE SMOOTH",
"16 -31 OFFCURVE",
"-4 -19 OFFCURVE",
"-8 5 CURVE",
"-1 -9 OFFCURVE",
"12 -14 OFFCURVE",
"27 -14 CURVE SMOOTH",
"56 -14 OFFCURVE",
"71 1 OFFCURVE",
"71 33 CURVE SMOOTH",
"71 45 OFFCURVE",
"66 56 OFFCURVE",
"58 65 CURVE SMOOTH",
"49 75 OFFCURVE",
"38 81 OFFCURVE",
"25 81 CURVE SMOOTH",
"8 81 OFFCURVE",
"-7 73 OFFCURVE",
"-18 58 CURVE SMOOTH",
"-29 43 OFFCURVE",
"-34 27 OFFCURVE",
"-33 8 CURVE SMOOTH",
"-29 -36 OFFCURVE",
"0 -58 OFFCURVE",
"55 -58 CURVE"
);
},
{
closed = 1;
nodes = (
"469 354 LINE",
"462 354 OFFCURVE",
"455 354 OFFCURVE",
"448 355 CURVE",
"463 402 OFFCURVE",
"477 450 OFFCURVE",
"493 497 CURVE SMOOTH",
"522 584 OFFCURVE",
"549 642 OFFCURVE",
"572 671 CURVE",
"609 674 OFFCURVE",
"640 665 OFFCURVE",
"667 643 CURVE SMOOTH",
"694 621 OFFCURVE",
"707 593 OFFCURVE",
"707 560 CURVE SMOOTH",
"707 541 OFFCURVE",
"701 521 OFFCURVE",
"691 502 CURVE SMOOTH",
"667 458 OFFCURVE",
"637 423 OFFCURVE",
"598 396 CURVE SMOOTH",
"557 368 OFFCURVE",
"514 354 OFFCURVE",
"469 354 CURVE"
);
}
);
width = 688;
}
);
note = P;
unicode = 0050;
},
{
glyphname = Thorn;
lastChange = "2021-08-10 19:52:28 +0000";
layers = (
{
layerId = "3191725B-F824-48C7-90A0-BAE99CBF9356";
paths = (
{
closed = 1;
nodes = (
"53 3 LINE",
"85 0.333 OFFCURVE",
"99.333 12.333 OFFCURVE",
"122 55 CURVE SMOOTH",
"197 208 LINE",
"241 205.333 OFFCURVE",
"309.667 213 OFFCURVE",
"371 229 CURVE SMOOTH",
"421.667 241 OFFCURVE",
"475.833 270.5 OFFCURVE",
"516.5 308.5 CURVE SMOOTH",
"536.833 327.5 OFFCURVE",
"553.333 348.333 OFFCURVE",
"566 371 CURVE SMOOTH",
"591.333 416.333 OFFCURVE",
"591 464.333 OFFCURVE",
"559 511 CURVE SMOOTH",
"543 534.333 OFFCURVE",
"516.667 556 OFFCURVE",
"480 576 CURVE SMOOTH",
"450.667 593.333 OFFCURVE",
"411 607.333 OFFCURVE",
"367 614 CURVE",
"421 758 LINE SMOOTH",
"435.667 803.333 OFFCURVE",
"433 820.333 OFFCURVE",
"409 843 CURVE SMOOTH",
"403.667 847.667 OFFCURVE",
"396.667 849.833 OFFCURVE",
"388 849.5 CURVE SMOOTH",
"379.333 849.167 OFFCURVE",
"373 852 OFFCURVE",
"369 858 CURVE",
"369 834.237 OFFCURVE",
"351.027 752.621 OFFCURVE",
"330 678.5 CURVE SMOOTH",
"303.333 584.5 OFFCURVE",
"262 465.667 OFFCURVE",
"206 347 CURVE SMOOTH",
"192.667 319 OFFCURVE",
"169.5 275 OFFCURVE",
"143.5 227 CURVE SMOOTH",
"130.5 203 OFFCURVE",
"117.167 179 OFFCURVE",
"103.5 155 CURVE SMOOTH",
"76.167 107 OFFCURVE",
"50.833 64.167 OFFCURVE",
"31.5 35.5 CURVE SMOOTH",
"21.833 21.167 OFFCURVE",
"15 12 OFFCURVE",
"11 8 CURVE",
"18.333 9.333 OFFCURVE",
"25.5 9 OFFCURVE",
"32.5 7 CURVE SMOOTH",
"39.5 5 OFFCURVE",
"46.333 3.667 OFFCURVE",
"53 3 CURVE"
);
},
{
closed = 1;
nodes = (
"206 228 LINE",
"238 293 LINE",
"257.778 321.254 OFFCURVE",
"296.278 426.982 OFFCURVE",
"310 459 CURVE",
"360 595 LINE",
"394.667 587 OFFCURVE",
"439.667 573.667 OFFCURVE",
"465 559 CURVE SMOOTH",
"534.333 516.333 OFFCURVE",
"544.667 452.167 OFFCURVE",
"518 391.5 CURVE SMOOTH",
"491.333 330.833 OFFCURVE",
"426 274.667 OFFCURVE",
"342 248 CURVE SMOOTH",
"300.667 234.667 OFFCURVE",
"247.333 229.333 OFFCURVE",
"206 228 CURVE"
);
}
);
userData = {
assembly = "SVTCA[0]	/* SetFreedomAndProjectionVectorToAxis */\012PUSHW[ ]	/* 1 value pushed */\01232 \012MDAP[1]	/* MoveDirectAbsPt */\012IUP[0]	/* InterpolateUntPts */\012IUP[1]	/* InterpolateUntPts */";
};
width = 336;
}
);
note = Thorn;
unicode = 00DE;
},
{
glyphname = Q;
lastChange = "2021-08-10 19:52:28 +0000";
layers = (
{
layerId = "3191725B-F824-48C7-90A0-BAE99CBF9356";
paths = (
{
closed = 1;
nodes = (
"511 -339 LINE",
"520 -339 LINE SMOOTH",
"544 -339 OFFCURVE",
"569 -334 OFFCURVE",
"594 -326 CURVE SMOOTH",
"627 -315 OFFCURVE",
"655 -298 OFFCURVE",
"681 -275 CURVE SMOOTH",
"711 -247 OFFCURVE",
"727 -219 OFFCURVE",
"727 -189 CURVE SMOOTH",
"727 -154 OFFCURVE",
"707 -129 OFFCURVE",
"666 -111 CURVE SMOOTH",
"634 -97 OFFCURVE",
"598 -90 OFFCURVE",
"559 -90 CURVE SMOOTH",
"488 -90 OFFCURVE",
"418 -112 OFFCURVE",
"350 -156 CURVE SMOOTH",
"348 -157 OFFCURVE",
"347 -159 OFFCURVE",
"347 -160 CURVE SMOOTH",
"347 -163 OFFCURVE",
"350 -165 OFFCURVE",
"355 -165 CURVE SMOOTH",
"358 -165 OFFCURVE",
"360 -164 OFFCURVE",
"363 -163 CURVE SMOOTH",
"438 -126 OFFCURVE",
"507 -108 OFFCURVE",
"570 -108 CURVE SMOOTH",
"600 -108 OFFCURVE",
"628 -112 OFFCURVE",
"654 -122 CURVE SMOOTH",
"689 -135 OFFCURVE",
"706 -154 OFFCURVE",
"706 -179 CURVE SMOOTH",
"706 -206 OFFCURVE",
"686 -232 OFFCURVE",
"644 -254 CURVE SMOOTH",
"611 -272 OFFCURVE",
"578 -282 OFFCURVE",
"545 -286 CURVE SMOOTH",
"534 -287 OFFCURVE",
"523 -288 OFFCURVE",
"512 -288 CURVE SMOOTH",
"461 -288 OFFCURVE",
"405 -272 OFFCURVE",
"346 -240 CURVE SMOOTH",
"332 -233 OFFCURVE",
"283 -201 OFFCURVE",
"198 -146 CURVE",
"241 -124 OFFCURVE",
"281 -97 OFFCURVE",
"320 -64 CURVE",
"414 -62 OFFCURVE",
"501 -29 OFFCURVE",
"580 35 CURVE SMOOTH",
"649 91 OFFCURVE",
"707 165 OFFCURVE",
"754 258 CURVE SMOOTH",
"786 322 OFFCURVE",
"802 383 OFFCURVE",
"802 442 CURVE SMOOTH",
"802 483 OFFCURVE",
"794 518 OFFCURVE",
"777 546 CURVE",
"795 572 OFFCURVE",
"804 596 OFFCURVE",
"804 617 CURVE SMOOTH",
"804 668 OFFCURVE",
"757 693 OFFCURVE",
"664 693 CURVE SMOOTH",
"565 693 OFFCURVE",
"467 662 OFFCURVE",
"372 599 CURVE",
"315 647 OFFCURVE",
"250 671 OFFCURVE",
"176 671 CURVE SMOOTH",
"133 671 OFFCURVE",
"97 662 OFFCURVE",
"67 644 CURVE SMOOTH",
"31 623 OFFCURVE",
"13 592 OFFCURVE",
"13 553 CURVE SMOOTH",
"13 514 OFFCURVE",
"29 477 OFFCURVE",
"62 444 CURVE SMOOTH",
"91 415 OFFCURVE",
"126 393 OFFCURVE",
"167 378 CURVE",
"126 301 OFFCURVE",
"105 226 OFFCURVE",
"105 152 CURVE SMOOTH",
"105 91 OFFCURVE",
"120 42 OFFCURVE",
"149 5 CURVE SMOOTH",
"180 -35 OFFCURVE",
"226 -58 OFFCURVE",
"285 -63 CURVE",
"251 -90 OFFCURVE",
"215 -114 OFFCURVE",
"178 -133 CURVE",
"126 -100 OFFCURVE",
"78 -84 OFFCURVE",
"35 -84 CURVE SMOOTH",
"24 -84 OFFCURVE",
"13 -85 OFFCURVE",
"2 -87 CURVE SMOOTH",
"-18 -91 OFFCURVE",
"-37 -98 OFFCURVE",
"-55 -109 CURVE SMOOTH",
"-78 -123 OFFCURVE",
"-90 -138 OFFCURVE",
"-90 -154 CURVE SMOOTH",
"-90 -181 OFFCURVE",
"-57 -195 OFFCURVE",
"8 -195 CURVE SMOOTH",
"59 -195 OFFCURVE",
"109 -185 OFFCURVE",
"158 -165 CURVE",
"194 -192 OFFCURVE",
"230 -220 OFFCURVE",
"266 -248 CURVE SMOOTH",
"306 -278 OFFCURVE",
"343 -300 OFFCURVE",
"376 -314 CURVE SMOOTH",
"418 -332 OFFCURVE",
"463 -339 OFFCURVE",
"511 -339 CURVE"
);
},
{
closed = 1;
nodes = (
"9 -178 LINE",
"-38 -178 OFFCURVE",
"-61 -168 OFFCURVE",
"-61 -149 CURVE SMOOTH",
"-61 -135 OFFCURVE",
"-50 -123 OFFCURVE",
"-27 -114 CURVE SMOOTH",
"-9 -107 OFFCURVE",
"9 -104 OFFCURVE",
"26 -104 CURVE SMOOTH",
"56 -104 OFFCURVE",
"94 -120 OFFCURVE",
"139 -151 CURVE",
"96 -169 OFFCURVE",
"53 -178 OFFCURVE",
"9 -178 CURVE"
);
},
{
closed = 1;
nodes = (
"344 -43 LINE",
"399 8 OFFCURVE",
"426 53 OFFCURVE",
"426 92 CURVE SMOOTH",
"426 137 OFFCURVE",
"407 159 OFFCURVE",
"370 159 CURVE SMOOTH",
"352 159 OFFCURVE",
"337 153 OFFCURVE",
"324 141 CURVE SMOOTH",
"312 130 OFFCURVE",
"306 115 OFFCURVE",
"306 98 CURVE SMOOTH",
"306 86 OFFCURVE",
"310 76 OFFCURVE",
"317 67 CURVE SMOOTH",
"324 59 OFFCURVE",
"334 55 OFFCURVE",
"345 55 CURVE SMOOTH",
"367 55 OFFCURVE",
"383 66 OFFCURVE",
"394 89 CURVE",
"393 52 OFFCURVE",
"365 9 OFFCURVE",
"309 -42 CURVE",
"226 -33 OFFCURVE",
"185 25 OFFCURVE",
"185 131 CURVE SMOOTH",
"185 202 OFFCURVE",
"208 278 OFFCURVE",
"255 359 CURVE",
"276 356 OFFCURVE",
"298 355 OFFCURVE",
"321 355 CURVE SMOOTH",
"395 355 OFFCURVE",
"468 367 OFFCURVE",
"541 390 CURVE SMOOTH",
"621 416 OFFCURVE",
"685 452 OFFCURVE",
"734 498 CURVE",
"743 475 OFFCURVE",
"747 449 OFFCURVE",
"747 420 CURVE SMOOTH",
"747 365 OFFCURVE",
"733 309 OFFCURVE",
"705 254 CURVE SMOOTH",
"666 177 OFFCURVE",
"617 112 OFFCURVE",
"559 59 CURVE SMOOTH",
"488 -6 OFFCURVE",
"417 -40 OFFCURVE",
"344 -43 CURVE"
);
},
{
closed = 1;
nodes = (
"181 404 LINE",
"93 433 OFFCURVE",
"49 484 OFFCURVE",
"49 557 CURVE SMOOTH",
"49 588 OFFCURVE",
"61 612 OFFCURVE",
"85 629 CURVE SMOOTH",
"106 644 OFFCURVE",
"133 652 OFFCURVE",
"165 652 CURVE SMOOTH",
"228 652 OFFCURVE",
"290 629 OFFCURVE",
"350 584 CURVE",
"280 534 OFFCURVE",
"224 474 OFFCURVE",
"181 404 CURVE"
);
},
{
closed = 1;
nodes = (
"330 382 LINE",
"310 382 OFFCURVE",
"290 383 OFFCURVE",
"271 385 CURVE",
"307 442 OFFCURVE",
"350 494 OFFCURVE",
"400 539 CURVE",
"434 497 LINE SMOOTH",
"437 493 OFFCURVE",
"441 491 OFFCURVE",
"446 491 CURVE SMOOTH",
"451 491 OFFCURVE",
"454 493 OFFCURVE",
"454 496 CURVE SMOOTH",
"454 504 OFFCURVE",
"442 523 OFFCURVE",
"417 553 CURVE",
"511 632 OFFCURVE",
"602 672 OFFCURVE",
"691 672 CURVE SMOOTH",
"738 672 OFFCURVE",
"761 657 OFFCURVE",
"761 627 CURVE SMOOTH",
"761 612 OFFCURVE",
"756 596 OFFCURVE",
"747 579 CURVE",
"725 596 OFFCURVE",
"698 605 OFFCURVE",
"666 605 CURVE SMOOTH",
"651 605 OFFCURVE",
"631 603 OFFCURVE",
"608 597 CURVE SMOOTH",
"579 590 OFFCURVE",
"564 581 OFFCURVE",
"564 572 CURVE SMOOTH",
"564 568 OFFCURVE",
"566 566 OFFCURVE",
"571 566 CURVE SMOOTH",
"572 566 OFFCURVE",
"574 566 OFFCURVE",
"577 567 CURVE SMOOTH",
"598 576 OFFCURVE",
"617 581 OFFCURVE",
"633 581 CURVE SMOOTH",
"666 581 OFFCURVE",
"693 566 OFFCURVE",
"714 537 CURVE",
"681 504 OFFCURVE",
"636 473 OFFCURVE",
"577 444 CURVE SMOOTH",
"522 417 OFFCURVE",
"469 400 OFFCURVE",
"419 390 CURVE SMOOTH",
"392 385 OFFCURVE",
"363 382 OFFCURVE",
"330 382 CURVE"
);
}
);
width = 731;
}
);
note = Q;
unicode = 0051;
},
{
glyphname = R;
lastChange = "2021-08-10 19:52:28 +0000";
layers = (
{
anchors = (
{
name = bottom;
position = "{433, 0}";
},
{
name = top;
position = "{715, 754}";
}
);
layerId = "3191725B-F824-48C7-90A0-BAE99CBF9356";
paths = (
{
closed = 1;
nodes = (
"53 -58 LINE",
"122 -58 OFFCURVE",
"194 -24 OFFCURVE",
"269 45 CURVE SMOOTH",
"326 98 OFFCURVE",
"370 153 OFFCURVE",
"400 212 CURVE SMOOTH",
"428 266 OFFCURVE",
"448 309 OFFCURVE",
"460 340 CURVE SMOOTH",
"556 586 LINE SMOOTH",
"571 625 OFFCURVE",
"591 658 OFFCURVE",
"615 683 CURVE",
"654 678 OFFCURVE",
"684 663 OFFCURVE",
"704 639 CURVE SMOOTH",
"719 620 OFFCURVE",
"727 596 OFFCURVE",
"727 568 CURVE SMOOTH",
"727 518 OFFCURVE",
"705 471 OFFCURVE",
"663 427 CURVE SMOOTH",
"621 383 OFFCURVE",
"573 358 OFFCURVE",
"518 352 CURVE",
"543 186 OFFCURVE",
"576 77 OFFCURVE",
"619 25 CURVE SMOOTH",
"651 -13 OFFCURVE",
"689 -32 OFFCURVE",
"734 -32 CURVE SMOOTH",
"770 -32 OFFCURVE",
"801 -19 OFFCURVE",
"828 6 CURVE SMOOTH",
"854 31 OFFCURVE",
"867 64 OFFCURVE",
"867 104 CURVE SMOOTH",
"867 161 OFFCURVE",
"843 219 OFFCURVE",
"793 279 CURVE SMOOTH",
"789 284 OFFCURVE",
"786 286 OFFCURVE",
"784 286 CURVE SMOOTH",
"781 286 OFFCURVE",
"780 284 OFFCURVE",
"780 281 CURVE SMOOTH",
"780 278 OFFCURVE",
"782 274 OFFCURVE",
"785 270 CURVE SMOOTH",
"824 214 OFFCURVE",
"843 161 OFFCURVE",
"843 112 CURVE SMOOTH",
"843 83 OFFCURVE",
"836 61 OFFCURVE",
"821 45 CURVE SMOOTH",
"807 30 OFFCURVE",
"788 22 OFFCURVE",
"765 22 CURVE SMOOTH",
"736 22 OFFCURVE",
"706 34 OFFCURVE",
"677 57 CURVE SMOOTH",
"648 80 OFFCURVE",
"617 128 OFFCURVE",
"586 199 CURVE SMOOTH",
"562 253 OFFCURVE",
"547 299 OFFCURVE",
"538 336 CURVE",
"609 345 OFFCURVE",
"669 374 OFFCURVE",
"718 422 CURVE SMOOTH",
"766 469 OFFCURVE",
"793 518 OFFCURVE",
"793 572 CURVE SMOOTH",
"793 604 OFFCURVE",
"781 632 OFFCURVE",
"758 653 CURVE SMOOTH",
"730 679 OFFCURVE",
"688 694 OFFCURVE",
"633 699 CURVE",
"662 723 OFFCURVE",
"693 735 OFFCURVE",
"725 735 CURVE SMOOTH",
"740 735 OFFCURVE",
"753 732 OFFCURVE",
"765 726 CURVE SMOOTH",
"770 724 OFFCURVE",
"772 727 OFFCURVE",
"772 736 CURVE SMOOTH",
"772 739 OFFCURVE",
"770 742 OFFCURVE",
"767 743 CURVE SMOOTH",
"751 750 OFFCURVE",
"734 754 OFFCURVE",
"715 754 CURVE SMOOTH",
"670 754 OFFCURVE",
"627 736 OFFCURVE",
"585 700 CURVE",
"503 699 OFFCURVE",
"420 683 OFFCURVE",
"336 652 CURVE SMOOTH",
"237 616 OFFCURVE",
"168 569 OFFCURVE",
"128 510 CURVE SMOOTH",
"112 486 OFFCURVE",
"104 463 OFFCURVE",
"104 441 CURVE SMOOTH",
"104 393 OFFCURVE",
"135 369 OFFCURVE",
"197 369 CURVE SMOOTH",
"227 369 OFFCURVE",
"271 385 OFFCURVE",
"330 417 CURVE SMOOTH",
"393 451 OFFCURVE",
"425 481 OFFCURVE",
"425 507 CURVE SMOOTH",
"425 511 OFFCURVE",
"423 512 OFFCURVE",
"418 512 CURVE SMOOTH",
"416 512 OFFCURVE",
"414 511 OFFCURVE",
"412 509 CURVE SMOOTH",
"387 478 OFFCURVE",
"357 451 OFFCURVE",
"321 430 CURVE SMOOTH",
"282 407 OFFCURVE",
"245 396 OFFCURVE",
"210 396 CURVE SMOOTH",
"180 396 OFFCURVE",
"165 409 OFFCURVE",
"165 436 CURVE SMOOTH",
"165 479 OFFCURVE",
"197 527 OFFCURVE",
"261 578 CURVE SMOOTH",
"295 605 OFFCURVE",
"342 629 OFFCURVE",
"403 650 CURVE SMOOTH",
"463 670 OFFCURVE",
"518 682 OFFCURVE",
"568 684 CURVE",
"546 663 OFFCURVE",
"525 638 OFFCURVE",
"509 606 CURVE SMOOTH",
"364 313 LINE SMOOTH",
"306 196 OFFCURVE",
"260 116 OFFCURVE",
"223 71 CURVE SMOOTH",
"181 20 OFFCURVE",
"131 -13 OFFCURVE",
"73 -28 CURVE SMOOTH",
"66 -30 OFFCURVE",
"59 -31 OFFCURVE",
"52 -31 CURVE SMOOTH",
"15 -31 OFFCURVE",
"-4 -19 OFFCURVE",
"-7 5 CURVE",
"0 -9 OFFCURVE",
"11 -14 OFFCURVE",
"27 -14 CURVE SMOOTH",
"56 -14 OFFCURVE",
"73 1 OFFCURVE",
"73 35 CURVE SMOOTH",
"73 46 OFFCURVE",
"70 56 OFFCURVE",
"62 65 CURVE SMOOTH",
"53 75 OFFCURVE",
"42 81 OFFCURVE",
"29 81 CURVE SMOOTH",
"12 81 OFFCURVE",
"-3 73 OFFCURVE",
"-15 58 CURVE SMOOTH",
"-26 43 OFFCURVE",
"-32 27 OFFCURVE",
"-32 8 CURVE SMOOTH",
"-31 -36 OFFCURVE",
"-2 -58 OFFCURVE",
"53 -58 CURVE"
);
}
);
width = 866;
}
);
note = R;
unicode = 0052;
},
{
glyphname = S;
lastChange = "2021-08-10 23:27:42 +0000";
layers = (
{
anchors = (
{
name = bottom;
position = "{259, -77}";
},
{
name = top;
position = "{597, 733}";
}
);
layerId = "3191725B-F824-48C7-90A0-BAE99CBF9356";
paths = (
{
closed = 1;
nodes = (
"266 -92 LINE",
"388 -92 OFFCURVE",
"497 -64 OFFCURVE",
"593 -8 CURVE SMOOTH",
"635 16 OFFCURVE",
"669 47 OFFCURVE",
"694 84 CURVE SMOOTH",
"719 120 OFFCURVE",
"732 158 OFFCURVE",
"732 198 CURVE SMOOTH",
"732 287 OFFCURVE",
"672 366 OFFCURVE",
"553 434 CURVE SMOOTH",
"468 483 OFFCURVE",
"425 531 OFFCURVE",
"425 578 CURVE SMOOTH",
"425 615 OFFCURVE",
"446 646 OFFCURVE",
"486 673 CURVE SMOOTH",
"524 699 OFFCURVE",
"566 712 OFFCURVE",
"612 712 CURVE SMOOTH",
"656 712 OFFCURVE",
"692 701 OFFCURVE",
"719 680 CURVE SMOOTH",
"736 667 OFFCURVE",
"743 651 OFFCURVE",
"740 633 CURVE",
"736 645 OFFCURVE",
"725 651 OFFCURVE",
"706 651 CURVE SMOOTH",
"675 651 OFFCURVE",
"659 635 OFFCURVE",
"659 603 CURVE SMOOTH",
"659 591 OFFCURVE",
"664 580 OFFCURVE",
"672 572 CURVE SMOOTH",
"681 563 OFFCURVE",
"693 557 OFFCURVE",
"706 557 CURVE SMOOTH",
"723 557 OFFCURVE",
"737 565 OFFCURVE",
"748 581 CURVE SMOOTH",
"759 597 OFFCURVE",
"765 615 OFFCURVE",
"765 635 CURVE SMOOTH",
"765 664 OFFCURVE",
"754 687 OFFCURVE",
"732 702 CURVE SMOOTH",
"701 723 OFFCURVE",
"656 733 OFFCURVE",
"597 733 CURVE SMOOTH",
"545 733 OFFCURVE",
"497 721 OFFCURVE",
"452 696 CURVE SMOOTH",
"403 669 OFFCURVE",
"374 634 OFFCURVE",
"365 591 CURVE SMOOTH",
"363 582 OFFCURVE",
"362 572 OFFCURVE",
"362 563 CURVE SMOOTH",
"362 525 OFFCURVE",
"380 489 OFFCURVE",
"415 455 CURVE SMOOTH",
"433 437 OFFCURVE",
"467 413 OFFCURVE",
"516 381 CURVE SMOOTH",
"613 319 OFFCURVE",
"661 249 OFFCURVE",
"661 172 CURVE SMOOTH",
"661 105 OFFCURVE",
"628 51 OFFCURVE",
"561 10 CURVE SMOOTH",
"479 -40 OFFCURVE",
"382 -68 OFFCURVE",
"268 -68 CURVE SMOOTH",
"207 -68 OFFCURVE",
"159 -56 OFFCURVE",
"124 -32 CURVE SMOOTH",
"88 -8 OFFCURVE",
"70 24 OFFCURVE",
"70 64 CURVE SMOOTH",
"70 107 OFFCURVE",
"90 146 OFFCURVE",
"129 183 CURVE SMOOTH",
"171 223 OFFCURVE",
"227 249 OFFCURVE",
"296 262 CURVE SMOOTH",
"316 266 OFFCURVE",
"339 268 OFFCURVE",
"364 268 CURVE SMOOTH",
"445 268 OFFCURVE",
"497 251 OFFCURVE",
"521 217 CURVE SMOOTH",
"526 211 OFFCURVE",
"530 212 OFFCURVE",
"530 222 CURVE SMOOTH",
"530 227 OFFCURVE",
"529 231 OFFCURVE",
"526 235 CURVE SMOOTH",
"499 272 OFFCURVE",
"447 291 OFFCURVE",
"369 291 CURVE SMOOTH",
"343 291 OFFCURVE",
"318 288 OFFCURVE",
"295 284 CURVE SMOOTH",
"212 268 OFFCURVE",
"145 238 OFFCURVE",
"93 192 CURVE SMOOTH",
"45 149 OFFCURVE",
"21 104 OFFCURVE",
"21 55 CURVE SMOOTH",
"21 10 OFFCURVE",
"43 -25 OFFCURVE",
"86 -52 CURVE SMOOTH",
"129 -78 OFFCURVE",
"189 -92 OFFCURVE",
"266 -92 CURVE"
);
}
);
width = 745;
}
);
note = S;
unicode = 0053;
},
{
glyphname = Germandbls;
lastChange = "2021-08-10 19:52:28 +0000";
layers = (
{
layerId = "3191725B-F824-48C7-90A0-BAE99CBF9356";
paths = (
{
closed = 1;
nodes = (
"-183 -212 LINE",
"-178 -212 OFFCURVE",
"-173 -211 OFFCURVE",
"-168 -211 CURVE SMOOTH",
"114 -194 OFFCURVE",
"194 204 OFFCURVE",
"335 572 CURVE SMOOTH",
"363 645 OFFCURVE",
"404 677 OFFCURVE",
"441 677 CURVE SMOOTH",
"482 677 OFFCURVE",
"516 637 OFFCURVE",
"516 570 CURVE SMOOTH",
"516 510 OFFCURVE",
"493 456 OFFCURVE",
"418 406 CURVE SMOOTH",
"386 385 OFFCURVE",
"356 366 OFFCURVE",
"356 349 CURVE SMOOTH",
"355 334 OFFCURVE",
"368 318 OFFCURVE",
"392 303 CURVE SMOOTH",
"430 280 OFFCURVE",
"449 247 OFFCURVE",
"449 204 CURVE SMOOTH",
"449 86 OFFCURVE",
"328 -21 OFFCURVE",
"211 -21 CURVE SMOOTH",
"200 -21 OFFCURVE",
"190 -20 OFFCURVE",
"179 -18 CURVE SMOOTH",
"167 -16 OFFCURVE",
"159 -15 OFFCURVE",
"153 -15 CURVE SMOOTH",
"144 -15 OFFCURVE",
"141 -17 OFFCURVE",
"141 -22 CURVE SMOOTH",
"141 -28 OFFCURVE",
"152 -30 OFFCURVE",
"169 -36 CURVE SMOOTH",
"193 -44 OFFCURVE",
"217 -47 OFFCURVE",
"241 -47 CURVE SMOOTH",
"385 -47 OFFCURVE",
"530 76 OFFCURVE",
"530 202 CURVE SMOOTH",
"530 269 OFFCURVE",
"477 309 OFFCURVE",
"423 332 CURVE SMOOTH",
"397 344 OFFCURVE",
"386 348 OFFCURVE",
"386 354 CURVE",
"478 387 OFFCURVE",
"577 479 OFFCURVE",
"582 555 CURVE SMOOTH",
"587 644 OFFCURVE",
"534 699 OFFCURVE",
"447 699 CURVE SMOOTH",
"369 699 OFFCURVE",
"330 685 OFFCURVE",
"276 553 CURVE SMOOTH",
"45 -8 OFFCURVE",
"4 -152 OFFCURVE",
"-167 -191 CURVE",
"-172 -193 OFFCURVE",
"-177 -193 OFFCURVE",
"-183 -193 CURVE SMOOTH",
"-206 -193 OFFCURVE",
"-221 -187 OFFCURVE",
"-231 -175 CURVE",
"-226 -180 OFFCURVE",
"-220 -182 OFFCURVE",
"-214 -182 CURVE SMOOTH",
"-205 -182 OFFCURVE",
"-198 -179 OFFCURVE",
"-192 -173 CURVE SMOOTH",
"-186 -168 OFFCURVE",
"-181 -162 OFFCURVE",
"-181 -155 CURVE SMOOTH",
"-180 -148 OFFCURVE",
"-181 -141 OFFCURVE",
"-186 -135 CURVE SMOOTH",
"-191 -130 OFFCURVE",
"-198 -128 OFFCURVE",
"-206 -128 CURVE SMOOTH",
"-217 -128 OFFCURVE",
"-227 -132 OFFCURVE",
"-235 -140 CURVE SMOOTH",
"-244 -148 OFFCURVE",
"-247 -159 OFFCURVE",
"-247 -170 CURVE",
"-244 -197 OFFCURVE",
"-223 -212 OFFCURVE",
"-183 -212 CURVE"
);
}
);
width = 582;
}
);
unicode = 1E9E;
},
{
glyphname = T;
lastChange = "2021-08-10 23:27:28 +0000";
layers = (
{
anchors = (
{
name = bottom;
position = "{171, -31}";
},
{
name = center;
position = "{315, 377}";
},
{
name = top;
position = "{733, 644}";
}
);
layerId = "3191725B-F824-48C7-90A0-BAE99CBF9356";
paths = (
{
closed = 1;
nodes = (
"175 -43 LINE",
"226 -43 OFFCURVE",
"273 -28 OFFCURVE",
"315 2 CURVE SMOOTH",
"376 46 OFFCURVE",
"429 111 OFFCURVE",
"474 198 CURVE SMOOTH",
"485 219 OFFCURVE",
"518 297 OFFCURVE",
"574 434 CURVE SMOOTH",
"616 538 OFFCURVE",
"669 593 OFFCURVE",
"733 600 CURVE",
"765 597 LINE SMOOTH",
"832 593 OFFCURVE",
"888 606 OFFCURVE",
"932 636 CURVE SMOOTH",
"938 640 OFFCURVE",
"940 644 OFFCURVE",
"940 648 CURVE SMOOTH",
"940 654 OFFCURVE",
"938 656 OFFCURVE",
"934 656 CURVE SMOOTH",
"932 656 OFFCURVE",
"928 655 OFFCURVE",
"924 653 CURVE SMOOTH",
"900 639 OFFCURVE",
"868 632 OFFCURVE",
"829 632 CURVE SMOOTH",
"793 632 OFFCURVE",
"711 644 OFFCURVE",
"585 669 CURVE SMOOTH",
"490 688 OFFCURVE",
"417 697 OFFCURVE",
"365 697 CURVE SMOOTH",
"291 697 OFFCURVE",
"225 682 OFFCURVE",
"166 653 CURVE SMOOTH",
"129 634 OFFCURVE",
"101 609 OFFCURVE",
"81 578 CURVE SMOOTH",
"61 547 OFFCURVE",
"51 516 OFFCURVE",
"51 483 CURVE SMOOTH",
"51 445 OFFCURVE",
"64 413 OFFCURVE",
"89 387 CURVE SMOOTH",
"119 355 OFFCURVE",
"165 340 OFFCURVE",
"223 340 CURVE SMOOTH",
"287 340 OFFCURVE",
"346 359 OFFCURVE",
"400 398 CURVE SMOOTH",
"452 436 OFFCURVE",
"490 486 OFFCURVE",
"517 548 CURVE SMOOTH",
"520 554 OFFCURVE",
"517 557 OFFCURVE",
"510 557 CURVE SMOOTH",
"505 557 OFFCURVE",
"500 554 OFFCURVE",
"497 549 CURVE SMOOTH",
"466 495 OFFCURVE",
"426 452 OFFCURVE",
"379 418 CURVE SMOOTH",
"323 379 OFFCURVE",
"270 358 OFFCURVE",
"217 358 CURVE SMOOTH",
"139 358 OFFCURVE",
"99 389 OFFCURVE",
"99 446 CURVE SMOOTH",
"99 471 OFFCURVE",
"108 498 OFFCURVE",
"125 525 CURVE SMOOTH",
"142 552 OFFCURVE",
"165 575 OFFCURVE",
"192 593 CURVE SMOOTH",
"241 626 OFFCURVE",
"305 642 OFFCURVE",
"383 642 CURVE SMOOTH",
"422 642 OFFCURVE",
"472 638 OFFCURVE",
"532 629 CURVE SMOOTH",
"582 621 OFFCURVE",
"632 613 OFFCURVE",
"683 606 CURVE",
"618 587 OFFCURVE",
"557 526 OFFCURVE",
"502 422 CURVE SMOOTH",
"475 371 OFFCURVE",
"449 320 OFFCURVE",
"422 270 CURVE SMOOTH",
"393 216 OFFCURVE",
"363 168 OFFCURVE",
"333 124 CURVE SMOOTH",
"273 35 OFFCURVE",
"209 -10 OFFCURVE",
"140 -10 CURVE SMOOTH",
"110 -10 OFFCURVE",
"90 3 OFFCURVE",
"79 28 CURVE",
"88 20 OFFCURVE",
"98 16 OFFCURVE",
"110 16 CURVE SMOOTH",
"123 16 OFFCURVE",
"135 21 OFFCURVE",
"146 30 CURVE SMOOTH",
"157 40 OFFCURVE",
"163 54 OFFCURVE",
"163 69 CURVE SMOOTH",
"163 81 OFFCURVE",
"160 91 OFFCURVE",
"152 99 CURVE SMOOTH",
"144 108 OFFCURVE",
"133 113 OFFCURVE",
"120 113 CURVE SMOOTH",
"100 113 OFFCURVE",
"83 105 OFFCURVE",
"70 90 CURVE SMOOTH",
"58 76 OFFCURVE",
"53 61 OFFCURVE",
"53 43 CURVE SMOOTH",
"53 28 OFFCURVE",
"56 15 OFFCURVE",
"64 4 CURVE SMOOTH",
"85 -27 OFFCURVE",
"122 -43 OFFCURVE",
"175 -43 CURVE"
);
}
);
width = 620;
}
);
note = T;
unicode = 0054;
},
{
glyphname = Tbar;
lastChange = "2021-08-10 19:52:28 +0000";
layers = (
{
layerId = "3191725B-F824-48C7-90A0-BAE99CBF9356";
paths = (
{
closed = 1;
nodes = (
"175 -43 LINE",
"226 -43 OFFCURVE",
"273 -28 OFFCURVE",
"315 2 CURVE SMOOTH",
"376 46 OFFCURVE",
"429 111 OFFCURVE",
"474 198 CURVE SMOOTH",
"485 219 OFFCURVE",
"518 297 OFFCURVE",
"574 434 CURVE SMOOTH",
"616 538 OFFCURVE",
"669 593 OFFCURVE",
"733 600 CURVE",
"765 597 LINE SMOOTH",
"832 593 OFFCURVE",
"888 606 OFFCURVE",
"932 636 CURVE SMOOTH",
"938 640 OFFCURVE",
"940 644 OFFCURVE",
"940 648 CURVE SMOOTH",
"940 654 OFFCURVE",
"938 656 OFFCURVE",
"934 656 CURVE SMOOTH",
"932 656 OFFCURVE",
"928 655 OFFCURVE",
"924 653 CURVE SMOOTH",
"900 639 OFFCURVE",
"868 632 OFFCURVE",
"829 632 CURVE SMOOTH",
"793 632 OFFCURVE",
"711 644 OFFCURVE",
"585 669 CURVE SMOOTH",
"490 688 OFFCURVE",
"417 697 OFFCURVE",
"365 697 CURVE SMOOTH",
"291 697 OFFCURVE",
"225 682 OFFCURVE",
"166 653 CURVE SMOOTH",
"129 634 OFFCURVE",
"101 609 OFFCURVE",
"81 578 CURVE SMOOTH",
"61 547 OFFCURVE",
"51 516 OFFCURVE",
"51 483 CURVE SMOOTH",
"51 445 OFFCURVE",
"64 413 OFFCURVE",
"89 387 CURVE SMOOTH",
"119 355 OFFCURVE",
"165 340 OFFCURVE",
"223 340 CURVE SMOOTH",
"243 340 OFFCURVE",
"252 343 OFFCURVE",
"252 346 CURVE SMOOTH",
"252 351 OFFCURVE",
"233 357 OFFCURVE",
"203 359 CURVE SMOOTH",
"134 364 OFFCURVE",
"99 393 OFFCURVE",
"99 446 CURVE SMOOTH",
"99 471 OFFCURVE",
"108 498 OFFCURVE",
"125 525 CURVE SMOOTH",
"142 552 OFFCURVE",
"165 575 OFFCURVE",
"192 593 CURVE SMOOTH",
"241 626 OFFCURVE",
"305 642 OFFCURVE",
"383 642 CURVE SMOOTH",
"422 642 OFFCURVE",
"472 638 OFFCURVE",
"532 629 CURVE SMOOTH",
"582 621 OFFCURVE",
"632 613 OFFCURVE",
"683 606 CURVE",
"618 587 OFFCURVE",
"557 526 OFFCURVE",
"502 422 CURVE SMOOTH",
"475 371 OFFCURVE",
"449 320 OFFCURVE",
"422 270 CURVE SMOOTH",
"393 216 OFFCURVE",
"363 168 OFFCURVE",
"333 124 CURVE SMOOTH",
"273 35 OFFCURVE",
"209 -10 OFFCURVE",
"140 -10 CURVE SMOOTH",
"110 -10 OFFCURVE",
"90 3 OFFCURVE",
"79 28 CURVE",
"88 20 OFFCURVE",
"98 16 OFFCURVE",
"110 16 CURVE SMOOTH",
"123 16 OFFCURVE",
"135 21 OFFCURVE",
"146 30 CURVE SMOOTH",
"157 40 OFFCURVE",
"163 54 OFFCURVE",
"163 69 CURVE SMOOTH",
"163 81 OFFCURVE",
"160 91 OFFCURVE",
"152 99 CURVE SMOOTH",
"144 108 OFFCURVE",
"133 113 OFFCURVE",
"120 113 CURVE SMOOTH",
"100 113 OFFCURVE",
"83 105 OFFCURVE",
"70 90 CURVE SMOOTH",
"58 76 OFFCURVE",
"53 61 OFFCURVE",
"53 43 CURVE SMOOTH",
"53 28 OFFCURVE",
"56 15 OFFCURVE",
"64 4 CURVE SMOOTH",
"85 -27 OFFCURVE",
"122 -43 OFFCURVE",
"175 -43 CURVE"
);
},
{
closed = 1;
nodes = (
"453 434 LINE",
"551 445 OFFCURVE",
"626 451 OFFCURVE",
"677 451 CURVE SMOOTH",
"688 451 OFFCURVE",
"694 455 OFFCURVE",
"694 462 CURVE SMOOTH",
"694 473 OFFCURVE",
"687 478 OFFCURVE",
"673 478 CURVE SMOOTH",
"554 480 OFFCURVE",
"481 482 OFFCURVE",
"453 482 CURVE SMOOTH",
"442 482 OFFCURVE",
"436 476 OFFCURVE",
"436 463 CURVE SMOOTH",
"436 456 OFFCURVE",
"438 450 OFFCURVE",
"442 443 CURVE SMOOTH",
"445 437 OFFCURVE",
"449 434 OFFCURVE",
"453 434 CURVE"
);
}
);
width = 630;
}
);
unicode = 0166;
},
{
glyphname = U;
lastChange = "2021-08-10 19:52:28 +0000";
layers = (
{
anchors = (
{
name = bottom;
position = "{315, 0}";
},
{
name = ogonek;
position = "{651, 0}";
},
{
name = top;
position = "{564, 735}";
},
{
name = topright;
position = "{878, 728}";
}
);
layerId = "3191725B-F824-48C7-90A0-BAE99CBF9356";
paths = (
{
closed = 1;
nodes = (
"221 -29 LINE",
"272 -29 OFFCURVE",
"324 -2 OFFCURVE",
"379 51 CURVE SMOOTH",
"424 95 OFFCURVE",
"468 155 OFFCURVE",
"512 232 CURVE",
"502 191 OFFCURVE",
"497 155 OFFCURVE",
"497 124 CURVE SMOOTH",
"497 72 OFFCURVE",
"509 34 OFFCURVE",
"534 10 CURVE SMOOTH",
"551 -7 OFFCURVE",
"572 -16 OFFCURVE",
"595 -16 CURVE SMOOTH",
"632 -16 OFFCURVE",
"668 12 OFFCURVE",
"705 70 CURVE SMOOTH",
"713 82 OFFCURVE",
"736 126 OFFCURVE",
"773 201 CURVE SMOOTH",
"776 207 OFFCURVE",
"777 212 OFFCURVE",
"777 217 CURVE SMOOTH",
"777 221 OFFCURVE",
"775 224 OFFCURVE",
"773 224 CURVE SMOOTH",
"772 224 LINE SMOOTH",
"769 223 OFFCURVE",
"765 219 OFFCURVE",
"762 212 CURVE SMOOTH",
"727 140 OFFCURVE",
"697 88 OFFCURVE",
"672 56 CURVE SMOOTH",
"646 23 OFFCURVE",
"624 6 OFFCURVE",
"605 6 CURVE SMOOTH",
"579 6 OFFCURVE",
"566 36 OFFCURVE",
"566 91 CURVE SMOOTH",
"566 140 OFFCURVE",
"582 218 OFFCURVE",
"612 324 CURVE SMOOTH",
"646 441 OFFCURVE",
"684 539 OFFCURVE",
"727 618 CURVE SMOOTH",
"780 715 OFFCURVE",
"832 764 OFFCURVE",
"882 764 CURVE SMOOTH",
"896 764 OFFCURVE",
"909 760 OFFCURVE",
"921 752 CURVE SMOOTH",
"932 745 OFFCURVE",
"938 735 OFFCURVE",
"939 722 CURVE",
"930 735 OFFCURVE",
"918 742 OFFCURVE",
"902 742 CURVE SMOOTH",
"871 742 OFFCURVE",
"855 726 OFFCURVE",
"855 694 CURVE SMOOTH",
"855 682 OFFCURVE",
"860 671 OFFCURVE",
"868 663 CURVE SMOOTH",
"876 654 OFFCURVE",
"888 649 OFFCURVE",
"902 649 CURVE SMOOTH",
"920 649 OFFCURVE",
"935 656 OFFCURVE",
"946 669 CURVE SMOOTH",
"955 680 OFFCURVE",
"959 694 OFFCURVE",
"959 710 CURVE SMOOTH",
"959 734 OFFCURVE",
"952 751 OFFCURVE",
"935 762 CURVE SMOOTH",
"920 772 OFFCURVE",
"903 777 OFFCURVE",
"884 777 CURVE SMOOTH",
"821 777 OFFCURVE",
"755 724 OFFCURVE",
"684 618 CURVE SMOOTH",
"636 546 OFFCURVE",
"602 462 OFFCURVE",
"559 376 CURVE SMOOTH",
"554 366 OFFCURVE",
"548 355 OFFCURVE",
"542 342 CURVE SMOOTH",
"489 229 OFFCURVE",
"432 138 OFFCURVE",
"368 69 CURVE SMOOTH",
"320 16 OFFCURVE",
"277 -10 OFFCURVE",
"240 -10 CURVE SMOOTH",
"218 -10 OFFCURVE",
"201 0 OFFCURVE",
"190 20 CURVE SMOOTH",
"181 37 OFFCURVE",
"176 59 OFFCURVE",
"176 87 CURVE SMOOTH",
"176 137 OFFCURVE",
"194 195 OFFCURVE",
"228 260 CURVE",
"260 265 OFFCURVE",
"296 276 OFFCURVE",
"336 291 CURVE SMOOTH",
"343 294 OFFCURVE",
"346 297 OFFCURVE",
"346 302 CURVE SMOOTH",
"346 307 OFFCURVE",
"343 309 OFFCURVE",
"338 309 CURVE SMOOTH",
"337 309 OFFCURVE",
"335 309 OFFCURVE",
"332 308 CURVE SMOOTH",
"297 294 OFFCURVE",
"266 285 OFFCURVE",
"238 280 CURVE",
"271 336 OFFCURVE",
"305 391 OFFCURVE",
"335 448 CURVE SMOOTH",
"365 505 OFFCURVE",
"380 557 OFFCURVE",
"380 604 CURVE SMOOTH",
"380 691 OFFCURVE",
"341 735 OFFCURVE",
"268 735 CURVE SMOOTH",
"229 735 OFFCURVE",
"189 716 OFFCURVE",
"151 676 CURVE SMOOTH",
"121 646 OFFCURVE",
"96 608 OFFCURVE",
"75 565 CURVE SMOOTH",
"46 506 OFFCURVE",
"32 452 OFFCURVE",
"32 401 CURVE SMOOTH",
"32 312 OFFCURVE",
"75 264 OFFCURVE",
"162 258 CURVE",
"134 193 OFFCURVE",
"121 139 OFFCURVE",
"121 94 CURVE SMOOTH",
"121 58 OFFCURVE",
"128 28 OFFCURVE",
"145 7 CURVE SMOOTH",
"164 -17 OFFCURVE",
"189 -29 OFFCURVE",
"221 -29 CURVE"
);
},
{
closed = 1;
nodes = (
"171 276 LINE",
"106 283 OFFCURVE",
"73 324 OFFCURVE",
"73 398 CURVE SMOOTH",
"73 443 OFFCURVE",
"85 492 OFFCURVE",
"108 546 CURVE SMOOTH",
"131 598 OFFCURVE",
"159 639 OFFCURVE",
"191 671 CURVE SMOOTH",
"221 700 OFFCURVE",
"248 715 OFFCURVE",
"273 715 CURVE SMOOTH",
"308 715 OFFCURVE",
"325 693 OFFCURVE",
"325 650 CURVE SMOOTH",
"325 636 OFFCURVE",
"323 620 OFFCURVE",
"319 603 CURVE SMOOTH",
"309 560 OFFCURVE",
"287 506 OFFCURVE",
"254 441 CURVE SMOOTH",
"226 386 OFFCURVE",
"198 331 OFFCURVE",
"171 276 CURVE"
);
}
);
width = 689;
}
);
note = U;
unicode = 0055;
},
{
glyphname = Uhorn;
lastChange = "2021-08-10 19:52:28 +0000";
layers = (
{
anchors = (
{
name = bottom;
position = "{315, 0}";
},
{
name = ogonek;
position = "{651, 0}";
},
{
name = top;
position = "{564, 735}";
},
{
name = topright;
position = "{878, 728}";
}
);
components = (
{
name = horncomb.case;
transform = "{1, 0, 0, 1, 740, 343}";
}
);
layerId = "3191725B-F824-48C7-90A0-BAE99CBF9356";
paths = (
{
closed = 1;
nodes = (
"221 -29 LINE",
"272 -29 OFFCURVE",
"324 -2 OFFCURVE",
"379 51 CURVE SMOOTH",
"424 95 OFFCURVE",
"468 155 OFFCURVE",
"512 232 CURVE",
"502 191 OFFCURVE",
"497 155 OFFCURVE",
"497 124 CURVE SMOOTH",
"497 72 OFFCURVE",
"509 34 OFFCURVE",
"534 10 CURVE SMOOTH",
"551 -7 OFFCURVE",
"572 -16 OFFCURVE",
"595 -16 CURVE SMOOTH",
"632 -16 OFFCURVE",
"668 12 OFFCURVE",
"705 70 CURVE SMOOTH",
"713 82 OFFCURVE",
"736 126 OFFCURVE",
"773 201 CURVE SMOOTH",
"776 207 OFFCURVE",
"777 212 OFFCURVE",
"777 217 CURVE SMOOTH",
"777 221 OFFCURVE",
"775 224 OFFCURVE",
"773 224 CURVE SMOOTH",
"772 224 LINE SMOOTH",
"769 223 OFFCURVE",
"765 219 OFFCURVE",
"762 212 CURVE SMOOTH",
"727 140 OFFCURVE",
"697 88 OFFCURVE",
"672 56 CURVE SMOOTH",
"646 23 OFFCURVE",
"624 6 OFFCURVE",
"605 6 CURVE SMOOTH",
"579 6 OFFCURVE",
"566 36 OFFCURVE",
"566 91 CURVE SMOOTH",
"566 140 OFFCURVE",
"582 218 OFFCURVE",
"612 324 CURVE SMOOTH",
"646 441 OFFCURVE",
"684 539 OFFCURVE",
"727 618 CURVE SMOOTH",
"780 715 OFFCURVE",
"777 721 OFFCURVE",
"803 728 CURVE SMOOTH",
"808 729 OFFCURVE",
"811 733 OFFCURVE",
"811 736 CURVE SMOOTH",
"811 739 OFFCURVE",
"809 741 OFFCURVE",
"805 741 CURVE SMOOTH",
"767 740 OFFCURVE",
"755 724 OFFCURVE",
"684 618 CURVE SMOOTH",
"636 546 OFFCURVE",
"602 462 OFFCURVE",
"559 376 CURVE SMOOTH",
"554 366 OFFCURVE",
"548 355 OFFCURVE",
"542 342 CURVE SMOOTH",
"489 229 OFFCURVE",
"432 138 OFFCURVE",
"368 69 CURVE SMOOTH",
"320 16 OFFCURVE",
"277 -10 OFFCURVE",
"240 -10 CURVE SMOOTH",
"218 -10 OFFCURVE",
"201 0 OFFCURVE",
"190 20 CURVE SMOOTH",
"181 37 OFFCURVE",
"176 59 OFFCURVE",
"176 87 CURVE SMOOTH",
"176 137 OFFCURVE",
"194 195 OFFCURVE",
"228 260 CURVE",
"260 265 OFFCURVE",
"296 276 OFFCURVE",
"336 291 CURVE SMOOTH",
"343 294 OFFCURVE",
"346 297 OFFCURVE",
"346 302 CURVE SMOOTH",
"346 307 OFFCURVE",
"343 309 OFFCURVE",
"338 309 CURVE SMOOTH",
"337 309 OFFCURVE",
"335 309 OFFCURVE",
"332 308 CURVE SMOOTH",
"297 294 OFFCURVE",
"266 285 OFFCURVE",
"238 280 CURVE",
"271 336 OFFCURVE",
"305 391 OFFCURVE",
"335 448 CURVE SMOOTH",
"365 505 OFFCURVE",
"380 557 OFFCURVE",
"380 604 CURVE SMOOTH",
"380 691 OFFCURVE",
"341 735 OFFCURVE",
"268 735 CURVE SMOOTH",
"229 735 OFFCURVE",
"189 716 OFFCURVE",
"151 676 CURVE SMOOTH",
"121 646 OFFCURVE",
"96 608 OFFCURVE",
"75 565 CURVE SMOOTH",
"46 506 OFFCURVE",
"32 452 OFFCURVE",
"32 401 CURVE SMOOTH",
"32 312 OFFCURVE",
"75 264 OFFCURVE",
"162 258 CURVE",
"134 193 OFFCURVE",
"121 139 OFFCURVE",
"121 94 CURVE SMOOTH",
"121 58 OFFCURVE",
"128 28 OFFCURVE",
"145 7 CURVE SMOOTH",
"164 -17 OFFCURVE",
"189 -29 OFFCURVE",
"221 -29 CURVE"
);
},
{
closed = 1;
nodes = (
"171 276 LINE",
"106 283 OFFCURVE",
"73 324 OFFCURVE",
"73 398 CURVE SMOOTH",
"73 443 OFFCURVE",
"85 492 OFFCURVE",
"108 546 CURVE SMOOTH",
"131 598 OFFCURVE",
"159 639 OFFCURVE",
"191 671 CURVE SMOOTH",
"221 700 OFFCURVE",
"248 715 OFFCURVE",
"273 715 CURVE SMOOTH",
"308 715 OFFCURVE",
"325 693 OFFCURVE",
"325 650 CURVE SMOOTH",
"325 636 OFFCURVE",
"323 620 OFFCURVE",
"319 603 CURVE SMOOTH",
"309 560 OFFCURVE",
"287 506 OFFCURVE",
"254 441 CURVE SMOOTH",
"226 386 OFFCURVE",
"198 331 OFFCURVE",
"171 276 CURVE"
);
}
);
width = 689;
}
);
unicode = 01AF;
},
{
glyphname = V;
lastChange = "2021-08-10 23:26:00 +0000";
layers = (
{
layerId = "3191725B-F824-48C7-90A0-BAE99CBF9356";
paths = (
{
closed = 1;
nodes = (
"65 -29 LINE",
"117 -29 OFFCURVE",
"173 -11 OFFCURVE",
"231 23 CURVE SMOOTH",
"306 68 OFFCURVE",
"374 125 OFFCURVE",
"433 194 CURVE SMOOTH",
"480 249 OFFCURVE",
"528 318 OFFCURVE",
"575 404 CURVE SMOOTH",
"597 444 OFFCURVE",
"617 484 OFFCURVE",
"638 523 CURVE SMOOTH",
"670 583 OFFCURVE",
"701 628 OFFCURVE",
"728 661 CURVE SMOOTH",
"765 705 OFFCURVE",
"800 727 OFFCURVE",
"833 727 CURVE SMOOTH",
"858 727 OFFCURVE",
"872 718 OFFCURVE",
"875 701 CURVE",
"870 712 OFFCURVE",
"860 718 OFFCURVE",
"847 718 CURVE SMOOTH",
"820 718 OFFCURVE",
"805 704 OFFCURVE",
"800 676 CURVE SMOOTH",
"798 664 OFFCURVE",
"801 654 OFFCURVE",
"808 645 CURVE SMOOTH",
"815 636 OFFCURVE",
"824 632 OFFCURVE",
"837 632 CURVE SMOOTH",
"852 632 OFFCURVE",
"866 639 OFFCURVE",
"877 653 CURVE SMOOTH",
"888 666 OFFCURVE",
"893 681 OFFCURVE",
"893 698 CURVE SMOOTH",
"893 717 OFFCURVE",
"885 731 OFFCURVE",
"869 740 CURVE SMOOTH",
"855 748 OFFCURVE",
"839 752 OFFCURVE",
"821 752 CURVE SMOOTH",
"809 752 OFFCURVE",
"797 750 OFFCURVE",
"783 746 CURVE SMOOTH",
"748 736 OFFCURVE",
"709 700 OFFCURVE",
"671 634 CURVE SMOOTH",
"631 566 OFFCURVE",
"595 496 OFFCURVE",
"557 427 CURVE SMOOTH",
"455 243 OFFCURVE",
"334 113 OFFCURVE",
"197 36 CURVE SMOOTH",
"171 21 OFFCURVE",
"150 14 OFFCURVE",
"135 14 CURVE SMOOTH",
"121 14 OFFCURVE",
"114 19 OFFCURVE",
"114 29 CURVE SMOOTH",
"114 37 OFFCURVE",
"119 47 OFFCURVE",
"128 58 CURVE SMOOTH",
"149 84 OFFCURVE",
"171 117 OFFCURVE",
"195 157 CURVE",
"217 146 OFFCURVE",
"241 140 OFFCURVE",
"267 140 CURVE SMOOTH",
"284 140 OFFCURVE",
"302 142 OFFCURVE",
"320 147 CURVE SMOOTH",
"327 149 OFFCURVE",
"331 152 OFFCURVE",
"331 157 CURVE SMOOTH",
"331 160 OFFCURVE",
"329 162 OFFCURVE",
"324 162 CURVE SMOOTH",
"322 162 OFFCURVE",
"320 162 OFFCURVE",
"317 161 CURVE SMOOTH",
"302 157 OFFCURVE",
"288 155 OFFCURVE",
"275 155 CURVE SMOOTH",
"250 155 OFFCURVE",
"227 162 OFFCURVE",
"205 175 CURVE",
"299 338 OFFCURVE",
"345 463 OFFCURVE",
"345 552 CURVE SMOOTH",
"345 595 OFFCURVE",
"332 631 OFFCURVE",
"306 659 CURVE SMOOTH",
"282 685 OFFCURVE",
"253 698 OFFCURVE",
"219 698 CURVE SMOOTH",
"182 698 OFFCURVE",
"149 681 OFFCURVE",
"122 648 CURVE SMOOTH",
"82 599 OFFCURVE",
"62 531 OFFCURVE",
"62 444 CURVE SMOOTH",
"62 337 OFFCURVE",
"90 254 OFFCURVE",
"145 195 CURVE",
"92 103 OFFCURVE",
"53 37 OFFCURVE",
"29 -4 CURVE SMOOTH",
"27 -8 OFFCURVE",
"26 -11 OFFCURVE",
"26 -14 CURVE SMOOTH",
"26 -25 OFFCURVE",
"39 -29 OFFCURVE",
"65 -29 CURVE"
);
},
{
closed = 1;
nodes = (
"158 218 LINE",
"111 277 OFFCURVE",
"87 354 OFFCURVE",
"87 449 CURVE SMOOTH",
"87 510 OFFCURVE",
"99 562 OFFCURVE",
"122 603 CURVE SMOOTH",
"147 648 OFFCURVE",
"178 670 OFFCURVE",
"213 670 CURVE SMOOTH",
"255 670 OFFCURVE",
"277 635 OFFCURVE",
"277 563 CURVE SMOOTH",
"277 505 OFFCURVE",
"259 435 OFFCURVE",
"221 350 CURVE SMOOTH",
"199 301 OFFCURVE",
"178 257 OFFCURVE",
"158 218 CURVE"
);
}
);
width = 606;
}
);
note = V;
unicode = 0056;
},
{
glyphname = W;
lastChange = "2021-08-10 19:52:28 +0000";
layers = (
{
anchors = (
{
name = bottom;
position = "{423, 0}";
},
{
name = top;
position = "{656, 708}";
}
);
layerId = "3191725B-F824-48C7-90A0-BAE99CBF9356";
paths = (
{
closed = 1;
nodes = (
"205 -29 LINE",
"255 -29 OFFCURVE",
"306 -2 OFFCURVE",
"359 51 CURVE SMOOTH",
"384 76 OFFCURVE",
"409 108 OFFCURVE",
"434 145 CURVE",
"430 126 OFFCURVE",
"428 108 OFFCURVE",
"428 91 CURVE SMOOTH",
"428 73 OFFCURVE",
"430 56 OFFCURVE",
"435 40 CURVE SMOOTH",
"448 -4 OFFCURVE",
"481 -26 OFFCURVE",
"532 -26 CURVE SMOOTH",
"597 -26 OFFCURVE",
"663 10 OFFCURVE",
"730 81 CURVE SMOOTH",
"779 132 OFFCURVE",
"823 196 OFFCURVE",
"862 271 CURVE SMOOTH",
"896 336 OFFCURVE",
"913 400 OFFCURVE",
"913 463 CURVE SMOOTH",
"913 548 OFFCURVE",
"882 605 OFFCURVE",
"819 636 CURVE SMOOTH",
"798 646 OFFCURVE",
"773 651 OFFCURVE",
"743 651 CURVE SMOOTH",
"692 651 OFFCURVE",
"655 638 OFFCURVE",
"633 611 CURVE SMOOTH",
"630 608 OFFCURVE",
"629 605 OFFCURVE",
"629 602 CURVE SMOOTH",
"629 599 OFFCURVE",
"631 597 OFFCURVE",
"635 597 CURVE SMOOTH",
"640 597 OFFCURVE",
"644 600 OFFCURVE",
"649 605 CURVE SMOOTH",
"664 623 OFFCURVE",
"688 632 OFFCURVE",
"721 632 CURVE SMOOTH",
"751 632 OFFCURVE",
"775 626 OFFCURVE",
"792 613 CURVE SMOOTH",
"830 585 OFFCURVE",
"849 537 OFFCURVE",
"849 471 CURVE SMOOTH",
"849 400 OFFCURVE",
"833 333 OFFCURVE",
"799 269 CURVE SMOOTH",
"703 85 OFFCURVE",
"613 -7 OFFCURVE",
"532 -7 CURVE SMOOTH",
"500 -7 OFFCURVE",
"480 14 OFFCURVE",
"472 57 CURVE SMOOTH",
"470 68 OFFCURVE",
"469 81 OFFCURVE",
"469 95 CURVE SMOOTH",
"469 138 OFFCURVE",
"477 181 OFFCURVE",
"493 224 CURVE",
"529 274 LINE SMOOTH",
"544 296 OFFCURVE",
"558 320 OFFCURVE",
"569 346 CURVE SMOOTH",
"576 363 OFFCURVE",
"580 377 OFFCURVE",
"580 389 CURVE SMOOTH",
"580 410 OFFCURVE",
"571 420 OFFCURVE",
"554 420 CURVE SMOOTH",
"528 420 OFFCURVE",
"507 401 OFFCURVE",
"491 364 CURVE SMOOTH",
"475 327 OFFCURVE",
"463 282 OFFCURVE",
"454 229 CURVE",
"409 151 OFFCURVE",
"376 100 OFFCURVE",
"355 77 CURVE SMOOTH",
"306 22 OFFCURVE",
"264 -5 OFFCURVE",
"227 -5 CURVE SMOOTH",
"206 -5 OFFCURVE",
"191 5 OFFCURVE",
"180 24 CURVE SMOOTH",
"172 40 OFFCURVE",
"168 60 OFFCURVE",
"168 85 CURVE SMOOTH",
"168 136 OFFCURVE",
"187 194 OFFCURVE",
"225 260 CURVE",
"261 265 OFFCURVE",
"301 276 OFFCURVE",
"345 291 CURVE SMOOTH",
"352 294 OFFCURVE",
"356 297 OFFCURVE",
"356 302 CURVE SMOOTH",
"356 307 OFFCURVE",
"353 309 OFFCURVE",
"348 309 CURVE SMOOTH",
"346 309 OFFCURVE",
"344 309 OFFCURVE",
"341 308 CURVE SMOOTH",
"302 294 OFFCURVE",
"268 285 OFFCURVE",
"237 280 CURVE",
"272 336 OFFCURVE",
"310 391 OFFCURVE",
"344 448 CURVE SMOOTH",
"378 505 OFFCURVE",
"393 557 OFFCURVE",
"393 604 CURVE SMOOTH",
"393 691 OFFCURVE",
"350 735 OFFCURVE",
"270 735 CURVE SMOOTH",
"227 735 OFFCURVE",
"184 716 OFFCURVE",
"141 676 CURVE SMOOTH",
"108 646 OFFCURVE",
"80 608 OFFCURVE",
"57 565 CURVE SMOOTH",
"25 506 OFFCURVE",
"9 452 OFFCURVE",
"9 401 CURVE SMOOTH",
"9 312 OFFCURVE",
"57 264 OFFCURVE",
"153 258 CURVE",
"122 194 OFFCURVE",
"107 140 OFFCURVE",
"107 95 CURVE SMOOTH",
"107 58 OFFCURVE",
"115 29 OFFCURVE",
"131 7 CURVE SMOOTH",
"149 -17 OFFCURVE",
"174 -29 OFFCURVE",
"205 -29 CURVE"
);
},
{
closed = 1;
nodes = (
"162 276 LINE",
"90 283 OFFCURVE",
"54 324 OFFCURVE",
"54 398 CURVE SMOOTH",
"54 443 OFFCURVE",
"67 492 OFFCURVE",
"93 546 CURVE SMOOTH",
"118 598 OFFCURVE",
"149 640 OFFCURVE",
"184 671 CURVE SMOOTH",
"217 700 OFFCURVE",
"248 715 OFFCURVE",
"275 715 CURVE SMOOTH",
"313 715 OFFCURVE",
"332 693 OFFCURVE",
"332 650 CURVE SMOOTH",
"332 636 OFFCURVE",
"330 620 OFFCURVE",
"326 603 CURVE SMOOTH",
"315 560 OFFCURVE",
"291 506 OFFCURVE",
"255 441 CURVE SMOOTH",
"224 385 OFFCURVE",
"193 331 OFFCURVE",
"162 276 CURVE"
);
}
);
width = 845;
}
);
note = W;
unicode = 0057;
},
{
glyphname = X;
lastChange = "2021-08-10 19:52:28 +0000";
layers = (
{
layerId = "3191725B-F824-48C7-90A0-BAE99CBF9356";
paths = (
{
closed = 1;
nodes = (
"92 -82 LINE",
"174 -82 OFFCURVE",
"291 29 OFFCURVE",
"443 252 CURVE",
"450 162 OFFCURVE",
"466 88 OFFCURVE",
"491 30 CURVE SMOOTH",
"516 -28 OFFCURVE",
"555 -57 OFFCURVE",
"608 -57 CURVE SMOOTH",
"643 -57 OFFCURVE",
"673 -43 OFFCURVE",
"699 -15 CURVE SMOOTH",
"724 12 OFFCURVE",
"737 49 OFFCURVE",
"737 95 CURVE SMOOTH",
"737 140 OFFCURVE",
"728 187 OFFCURVE",
"711 235 CURVE SMOOTH",
"709 242 OFFCURVE",
"706 245 OFFCURVE",
"703 245 CURVE SMOOTH",
"699 245 OFFCURVE",
"698 240 OFFCURVE",
"701 230 CURVE SMOOTH",
"712 191 OFFCURVE",
"717 153 OFFCURVE",
"717 117 CURVE SMOOTH",
"717 86 OFFCURVE",
"711 58 OFFCURVE",
"699 33 CURVE SMOOTH",
"684 3 OFFCURVE",
"662 -12 OFFCURVE",
"634 -12 CURVE SMOOTH",
"599 -12 OFFCURVE",
"573 11 OFFCURVE",
"555 58 CURVE SMOOTH",
"540 98 OFFCURVE",
"529 152 OFFCURVE",
"520 219 CURVE SMOOTH",
"516 253 OFFCURVE",
"511 296 OFFCURVE",
"508 349 CURVE",
"579 458 OFFCURVE",
"624 521 OFFCURVE",
"641 540 CURVE SMOOTH",
"696 600 OFFCURVE",
"750 649 OFFCURVE",
"802 685 CURVE SMOOTH",
"859 725 OFFCURVE",
"905 744 OFFCURVE",
"941 744 CURVE SMOOTH",
"949 744 OFFCURVE",
"958 741 OFFCURVE",
"966 741 CURVE SMOOTH",
"969 741 OFFCURVE",
"971 744 OFFCURVE",
"971 748 CURVE SMOOTH",
"971 755 OFFCURVE",
"957 759 OFFCURVE",
"930 759 CURVE SMOOTH",
"842 759 OFFCURVE",
"734 687 OFFCURVE",
"606 543 CURVE SMOOTH",
"583 517 OFFCURVE",
"548 472 OFFCURVE",
"503 406 CURVE",
"494 475 OFFCURVE",
"480 536 OFFCURVE",
"462 590 CURVE SMOOTH",
"436 666 OFFCURVE",
"390 704 OFFCURVE",
"322 704 CURVE SMOOTH",
"273 704 OFFCURVE",
"229 684 OFFCURVE",
"189 645 CURVE SMOOTH",
"147 604 OFFCURVE",
"126 556 OFFCURVE",
"126 501 CURVE SMOOTH",
"126 474 OFFCURVE",
"132 446 OFFCURVE",
"143 419 CURVE SMOOTH",
"156 389 OFFCURVE",
"181 361 OFFCURVE",
"219 336 CURVE SMOOTH",
"252 314 OFFCURVE",
"287 298 OFFCURVE",
"325 287 CURVE SMOOTH",
"335 284 OFFCURVE",
"340 286 OFFCURVE",
"340 294 CURVE SMOOTH",
"340 297 OFFCURVE",
"338 299 OFFCURVE",
"333 300 CURVE SMOOTH",
"302 309 OFFCURVE",
"271 326 OFFCURVE",
"241 353 CURVE SMOOTH",
"211 380 OFFCURVE",
"190 408 OFFCURVE",
"178 437 CURVE SMOOTH",
"166 466 OFFCURVE",
"160 494 OFFCURVE",
"160 520 CURVE SMOOTH",
"160 551 OFFCURVE",
"168 581 OFFCURVE",
"185 609 CURVE SMOOTH",
"214 658 OFFCURVE",
"251 682 OFFCURVE",
"298 682 CURVE SMOOTH",
"351 682 OFFCURVE",
"387 647 OFFCURVE",
"407 577 CURVE SMOOTH",
"417 540 OFFCURVE",
"425 496 OFFCURVE",
"430 446 CURVE SMOOTH",
"432 425 OFFCURVE",
"435 381 OFFCURVE",
"439 312 CURVE",
"364 201 OFFCURVE",
"306 121 OFFCURVE",
"265 72 CURVE SMOOTH",
"200 -7 OFFCURVE",
"149 -50 OFFCURVE",
"111 -57 CURVE SMOOTH",
"103 -59 OFFCURVE",
"95 -59 OFFCURVE",
"87 -59 CURVE SMOOTH",
"58 -59 OFFCURVE",
"41 -51 OFFCURVE",
"36 -35 CURVE",
"45 -44 OFFCURVE",
"56 -48 OFFCURVE",
"69 -48 CURVE SMOOTH",
"82 -48 OFFCURVE",
"94 -43 OFFCURVE",
"105 -34 CURVE SMOOTH",
"117 -23 OFFCURVE",
"124 -9 OFFCURVE",
"124 7 CURVE SMOOTH",
"124 18 OFFCURVE",
"119 28 OFFCURVE",
"112 35 CURVE SMOOTH",
"103 44 OFFCURVE",
"92 49 OFFCURVE",
"79 49 CURVE SMOOTH",
"61 49 OFFCURVE",
"46 41 OFFCURVE",
"33 26 CURVE SMOOTH",
"21 11 OFFCURVE",
"15 -5 OFFCURVE",
"15 -23 CURVE SMOOTH",
"15 -45 OFFCURVE",
"24 -61 OFFCURVE",
"42 -71 CURVE SMOOTH",
"56 -79 OFFCURVE",
"73 -82 OFFCURVE",
"92 -82 CURVE"
);
}
);
width = 753;
}
);
note = X;
unicode = 0058;
},
{
glyphname = Y;
lastChange = "2021-08-10 19:52:28 +0000";
layers = (
{
anchors = (
{
name = bottom;
position = "{549, 0}";
},
{
name = top;
position = "{519, 754}";
},
{
name = topleft;
position = "{20, 754}";
}
);
layerId = "3191725B-F824-48C7-90A0-BAE99CBF9356";
paths = (
{
closed = 1;
nodes = (
"154 -321 LINE",
"278 -319 OFFCURVE",
"367 -259 OFFCURVE",
"423 -139 CURVE SMOOTH",
"456 -68 OFFCURVE",
"482 46 OFFCURVE",
"500 205 CURVE SMOOTH",
"514 322 OFFCURVE",
"551 438 OFFCURVE",
"611 555 CURVE SMOOTH",
"674 678 OFFCURVE",
"733 741 OFFCURVE",
"790 747 CURVE SMOOTH",
"795 747 OFFCURVE",
"797 750 OFFCURVE",
"797 755 CURVE SMOOTH",
"797 758 OFFCURVE",
"794 760 OFFCURVE",
"789 760 CURVE SMOOTH",
"785 760 LINE SMOOTH",
"677 746 OFFCURVE",
"568 599 OFFCURVE",
"459 320 CURVE SMOOTH",
"422 226 OFFCURVE",
"374 142 OFFCURVE",
"315 69 CURVE SMOOTH",
"272 16 OFFCURVE",
"236 -10 OFFCURVE",
"205 -10 CURVE SMOOTH",
"186 -10 OFFCURVE",
"172 0 OFFCURVE",
"163 20 CURVE SMOOTH",
"156 36 OFFCURVE",
"152 57 OFFCURVE",
"152 82 CURVE SMOOTH",
"152 134 OFFCURVE",
"169 193 OFFCURVE",
"204 260 CURVE",
"237 265 OFFCURVE",
"273 275 OFFCURVE",
"313 291 CURVE SMOOTH",
"319 293 OFFCURVE",
"322 297 OFFCURVE",
"322 302 CURVE SMOOTH",
"322 307 OFFCURVE",
"320 309 OFFCURVE",
"315 309 CURVE SMOOTH",
"313 309 OFFCURVE",
"311 309 OFFCURVE",
"309 308 CURVE SMOOTH",
"274 294 OFFCURVE",
"243 285 OFFCURVE",
"214 280 CURVE",
"247 336 OFFCURVE",
"281 391 OFFCURVE",
"312 448 CURVE SMOOTH",
"342 505 OFFCURVE",
"356 556 OFFCURVE",
"356 603 CURVE SMOOTH",
"356 691 OFFCURVE",
"318 735 OFFCURVE",
"244 735 CURVE SMOOTH",
"205 735 OFFCURVE",
"166 716 OFFCURVE",
"128 676 CURVE SMOOTH",
"98 646 OFFCURVE",
"73 609 OFFCURVE",
"51 565 CURVE SMOOTH",
"22 507 OFFCURVE",
"8 452 OFFCURVE",
"8 401 CURVE SMOOTH",
"8 312 OFFCURVE",
"52 264 OFFCURVE",
"139 258 CURVE",
"111 193 OFFCURVE",
"97 139 OFFCURVE",
"97 94 CURVE SMOOTH",
"97 58 OFFCURVE",
"104 28 OFFCURVE",
"119 7 CURVE SMOOTH",
"135 -17 OFFCURVE",
"157 -29 OFFCURVE",
"186 -29 CURVE SMOOTH",
"231 -29 OFFCURVE",
"278 -2 OFFCURVE",
"325 51 CURVE SMOOTH",
"359 89 OFFCURVE",
"393 139 OFFCURVE",
"426 202 CURVE",
"424 189 OFFCURVE",
"422 177 OFFCURVE",
"421 166 CURVE SMOOTH",
"390 -107 OFFCURVE",
"298 -258 OFFCURVE",
"146 -285 CURVE SMOOTH",
"141 -286 OFFCURVE",
"135 -286 OFFCURVE",
"130 -286 CURVE SMOOTH",
"113 -286 OFFCURVE",
"97 -282 OFFCURVE",
"84 -275 CURVE SMOOTH",
"71 -268 OFFCURVE",
"65 -259 OFFCURVE",
"66 -246 CURVE",
"71 -258 OFFCURVE",
"82 -264 OFFCURVE",
"97 -264 CURVE SMOOTH",
"110 -264 OFFCURVE",
"122 -259 OFFCURVE",
"131 -250 CURVE SMOOTH",
"140 -239 OFFCURVE",
"148 -225 OFFCURVE",
"148 -209 CURVE SMOOTH",
"148 -198 OFFCURVE",
"143 -188 OFFCURVE",
"136 -181 CURVE SMOOTH",
"127 -172 OFFCURVE",
"116 -167 OFFCURVE",
"103 -167 CURVE SMOOTH",
"86 -167 OFFCURVE",
"71 -174 OFFCURVE",
"59 -189 CURVE SMOOTH",
"48 -203 OFFCURVE",
"42 -219 OFFCURVE",
"42 -237 CURVE SMOOTH",
"42 -266 OFFCURVE",
"53 -287 OFFCURVE",
"75 -302 CURVE SMOOTH",
"95 -315 OFFCURVE",
"121 -321 OFFCURVE",
"154 -321 CURVE"
);
},
{
closed = 1;
nodes = (
"82 283 OFFCURVE",
"49 324 OFFCURVE",
"49 398 CURVE SMOOTH",
"49 443 OFFCURVE",
"60 492 OFFCURVE",
"84 546 CURVE SMOOTH",
"107 598 OFFCURVE",
"135 640 OFFCURVE",
"167 671 CURVE SMOOTH",
"197 700 OFFCURVE",
"224 715 OFFCURVE",
"249 715 CURVE SMOOTH",
"284 715 OFFCURVE",
"301 693 OFFCURVE",
"301 650 CURVE SMOOTH",
"301 636 OFFCURVE",
"299 620 OFFCURVE",
"295 603 CURVE SMOOTH",
"285 560 OFFCURVE",
"264 506 OFFCURVE",
"231 441 CURVE SMOOTH",
"147 276 LINE",
"147 276 LINE"
);
}
);
width = 606;
}
);
note = Y;
unicode = 0059;
},
{
glyphname = Z;
lastChange = "2021-08-10 19:52:28 +0000";
layers = (
{
anchors = (
{
name = bottom;
position = "{441, 0}";
},
{
name = center;
position = "{441, 377}";
},
{
name = top;
position = "{696, 696}";
}
);
layerId = "3191725B-F824-48C7-90A0-BAE99CBF9356";
paths = (
{
closed = 1;
nodes = (
"648 -119 LINE",
"675 -119 OFFCURVE",
"701 -117 OFFCURVE",
"726 -111 CURVE SMOOTH",
"772 -101 OFFCURVE",
"810 -78 OFFCURVE",
"839 -43 CURVE SMOOTH",
"867 -10 OFFCURVE",
"881 25 OFFCURVE",
"881 62 CURVE SMOOTH",
"881 119 OFFCURVE",
"849 158 OFFCURVE",
"785 179 CURVE SMOOTH",
"762 186 OFFCURVE",
"736 190 OFFCURVE",
"709 190 CURVE SMOOTH",
"670 190 OFFCURVE",
"635 183 OFFCURVE",
"602 170 CURVE SMOOTH",
"547 148 OFFCURVE",
"500 114 OFFCURVE",
"460 65 CURVE SMOOTH",
"459 64 OFFCURVE",
"459 62 OFFCURVE",
"459 61 CURVE SMOOTH",
"459 57 OFFCURVE",
"462 55 OFFCURVE",
"468 55 CURVE SMOOTH",
"471 55 OFFCURVE",
"475 57 OFFCURVE",
"477 59 CURVE SMOOTH",
"518 100 OFFCURVE",
"564 130 OFFCURVE",
"614 149 CURVE SMOOTH",
"652 163 OFFCURVE",
"689 171 OFFCURVE",
"724 171 CURVE SMOOTH",
"745 171 OFFCURVE",
"764 168 OFFCURVE",
"781 163 CURVE SMOOTH",
"819 150 OFFCURVE",
"838 129 OFFCURVE",
"838 100 CURVE SMOOTH",
"838 75 OFFCURVE",
"825 48 OFFCURVE",
"799 21 CURVE SMOOTH",
"774 -6 OFFCURVE",
"746 -25 OFFCURVE",
"715 -36 CURVE SMOOTH",
"692 -44 OFFCURVE",
"665 -48 OFFCURVE",
"632 -48 CURVE SMOOTH",
"549 -48 OFFCURVE",
"418 -15 OFFCURVE",
"239 51 CURVE",
"431 238 OFFCURVE",
"536 339 OFFCURVE",
"552 354 CURVE SMOOTH",
"697 487 OFFCURVE",
"815 580 OFFCURVE",
"907 631 CURVE",
"911 632 LINE",
"924 631 OFFCURVE",
"936 630 OFFCURVE",
"947 630 CURVE SMOOTH",
"961 630 OFFCURVE",
"973 631 OFFCURVE",
"984 634 CURVE SMOOTH",
"1013 641 OFFCURVE",
"1028 655 OFFCURVE",
"1028 674 CURVE SMOOTH",
"1028 689 OFFCURVE",
"1018 696 OFFCURVE",
"999 696 CURVE SMOOTH",
"972 696 OFFCURVE",
"940 680 OFFCURVE",
"901 648 CURVE SMOOTH",
"898 645 OFFCURVE",
"889 643 OFFCURVE",
"874 643 CURVE SMOOTH",
"869 643 OFFCURVE",
"862 643 OFFCURVE",
"855 644 CURVE SMOOTH",
"826 646 OFFCURVE",
"772 657 OFFCURVE",
"691 678 CURVE SMOOTH",
"616 697 OFFCURVE",
"554 707 OFFCURVE",
"504 707 CURVE SMOOTH",
"442 707 OFFCURVE",
"381 695 OFFCURVE",
"320 671 CURVE SMOOTH",
"273 652 OFFCURVE",
"235 625 OFFCURVE",
"207 589 CURVE SMOOTH",
"181 555 OFFCURVE",
"167 522 OFFCURVE",
"167 488 CURVE SMOOTH",
"167 461 OFFCURVE",
"176 438 OFFCURVE",
"194 420 CURVE SMOOTH",
"215 399 OFFCURVE",
"246 389 OFFCURVE",
"290 389 CURVE SMOOTH",
"344 389 OFFCURVE",
"403 407 OFFCURVE",
"468 440 CURVE SMOOTH",
"530 472 OFFCURVE",
"588 515 OFFCURVE",
"640 569 CURVE",
"642 570 OFFCURVE",
"643 572 OFFCURVE",
"643 573 CURVE SMOOTH",
"643 576 OFFCURVE",
"641 577 OFFCURVE",
"637 576 CURVE SMOOTH",
"632 575 OFFCURVE",
"628 573 OFFCURVE",
"624 570 CURVE SMOOTH",
"571 523 OFFCURVE",
"517 485 OFFCURVE",
"460 456 CURVE SMOOTH",
"394 423 OFFCURVE",
"338 406 OFFCURVE",
"293 406 CURVE SMOOTH",
"240 406 OFFCURVE",
"214 425 OFFCURVE",
"214 463 CURVE SMOOTH",
"214 486 OFFCURVE",
"225 510 OFFCURVE",
"248 535 CURVE SMOOTH",
"273 563 OFFCURVE",
"307 588 OFFCURVE",
"352 610 CURVE SMOOTH",
"415 641 OFFCURVE",
"482 656 OFFCURVE",
"554 656 CURVE SMOOTH",
"593 656 OFFCURVE",
"647 649 OFFCURVE",
"715 637 CURVE SMOOTH",
"780 625 OFFCURVE",
"827 621 OFFCURVE",
"854 622 CURVE",
"676 521 OFFCURVE",
"457 334 OFFCURVE",
"198 59 CURVE",
"171 68 OFFCURVE",
"147 72 OFFCURVE",
"125 72 CURVE SMOOTH",
"106 72 OFFCURVE",
"89 69 OFFCURVE",
"74 63 CURVE SMOOTH",
"42 50 OFFCURVE",
"24 29 OFFCURVE",
"24 4 CURVE SMOOTH",
"24 -6 OFFCURVE",
"28 -14 OFFCURVE",
"35 -20 CURVE SMOOTH",
"44 -27 OFFCURVE",
"54 -31 OFFCURVE",
"67 -31 CURVE SMOOTH",
"112 -31 OFFCURVE",
"161 -10 OFFCURVE",
"214 31 CURVE",
"280 0 OFFCURVE",
"346 -33 OFFCURVE",
"413 -62 CURVE SMOOTH",
"502 -101 OFFCURVE",
"581 -119 OFFCURVE",
"648 -119 CURVE"
);
}
);
width = 882;
}
);
note = Z;
unicode = 005A;
},
{
glyphname = a;
lastChange = "2021-08-10 23:11:21 +0000";
layers = (
{
anchors = (
{
name = bottom;
position = "{148, 0}";
},
{
name = ogonek;
position = "{337, 10}";
},
{
name = top;
position = "{292, 366}";
}
);
layerId = "3191725B-F824-48C7-90A0-BAE99CBF9356";
paths = (
{
closed = 1;
nodes = (
"273 -2 LINE",
"298 -2 OFFCURVE",
"326 17 OFFCURVE",
"354 58 CURVE SMOOTH",
"358 64 LINE",
"344 73 LINE",
"340 68 LINE SMOOTH",
"317 39 OFFCURVE",
"300 24 OFFCURVE",
"285 24 CURVE SMOOTH",
"276 24 OFFCURVE",
"271 33 OFFCURVE",
"271 50 CURVE SMOOTH",
"271 59 OFFCURVE",
"272 71 OFFCURVE",
"275 84 CURVE SMOOTH",
"280 112 OFFCURVE",
"295 148 OFFCURVE",
"318 192 CURVE SMOOTH",
"339 233 OFFCURVE",
"356 259 OFFCURVE",
"368 271 CURVE",
"363 270 OFFCURVE",
"355 270 OFFCURVE",
"346 272 CURVE SMOOTH",
"326 275 LINE SMOOTH",
"311 276 OFFCURVE",
"299 271 OFFCURVE",
"288 260 CURVE SMOOTH",
"281 252 OFFCURVE",
"270 236 OFFCURVE",
"257 211 CURVE SMOOTH",
"225 150 OFFCURVE",
"196 103 OFFCURVE",
"168 71 CURVE SMOOTH",
"143 42 OFFCURVE",
"121 27 OFFCURVE",
"101 27 CURVE SMOOTH",
"84 27 OFFCURVE",
"75 38 OFFCURVE",
"75 61 CURVE SMOOTH",
"75 92 OFFCURVE",
"90 131 OFFCURVE",
"118 178 CURVE SMOOTH",
"139 213 OFFCURVE",
"163 244 OFFCURVE",
"190 273 CURVE SMOOTH",
"228 312 OFFCURVE",
"261 332 OFFCURVE",
"289 332 CURVE SMOOTH",
"313 332 OFFCURVE",
"329 320 OFFCURVE",
"336 296 CURVE",
"348 293 OFFCURVE",
"354 298 OFFCURVE",
"354 309 CURVE SMOOTH",
"354 314 OFFCURVE",
"352 320 OFFCURVE",
"347 325 CURVE SMOOTH",
"328 346 OFFCURVE",
"302 357 OFFCURVE",
"269 357 CURVE SMOOTH",
"242 357 OFFCURVE",
"215 350 OFFCURVE",
"186 335 CURVE SMOOTH",
"158 320 OFFCURVE",
"134 302 OFFCURVE",
"115 279 CURVE SMOOTH",
"58 211 OFFCURVE",
"30 146 OFFCURVE",
"30 83 CURVE SMOOTH",
"30 58 OFFCURVE",
"35 37 OFFCURVE",
"46 22 CURVE SMOOTH",
"56 7 OFFCURVE",
"70 -1 OFFCURVE",
"87 -1 CURVE SMOOTH",
"108 -1 OFFCURVE",
"130 11 OFFCURVE",
"155 34 CURVE SMOOTH",
"179 57 OFFCURVE",
"203 88 OFFCURVE",
"226 127 CURVE",
"220 105 OFFCURVE",
"217 85 OFFCURVE",
"217 68 CURVE SMOOTH",
"217 43 OFFCURVE",
"223 23 OFFCURVE",
"237 11 CURVE SMOOTH",
"247 2 OFFCURVE",
"259 -2 OFFCURVE",
"273 -2 CURVE"
);
}
);
width = 358;
}
);
note = a;
unicode = 0061;
},
{
glyphname = ae;
lastChange = "2021-08-10 19:52:28 +0000";
layers = (
{
anchors = (
{
name = bottom;
position = "{218, 0}";
},
{
name = top;
position = "{356, 366}";
}
);
layerId = "3191725B-F824-48C7-90A0-BAE99CBF9356";
paths = (
{
closed = 1;
nodes = (
"318 -4 LINE",
"367 -4 OFFCURVE",
"407 18 OFFCURVE",
"441 62 CURVE SMOOTH",
"457 83 OFFCURVE",
"480 124 OFFCURVE",
"509 187 CURVE SMOOTH",
"511 191 OFFCURVE",
"512 194 OFFCURVE",
"512 196 CURVE SMOOTH",
"512 200 OFFCURVE",
"510 202 OFFCURVE",
"507 202 CURVE SMOOTH",
"500 202 OFFCURVE",
"495 197 OFFCURVE",
"491 188 CURVE SMOOTH",
"442 74 OFFCURVE",
"387 17 OFFCURVE",
"326 17 CURVE SMOOTH",
"293 17 OFFCURVE",
"277 39 OFFCURVE",
"277 84 CURVE SMOOTH",
"277 107 OFFCURVE",
"280 128 OFFCURVE",
"289 146 CURVE SMOOTH",
"293 154 LINE",
"307 154 OFFCURVE",
"327 159 OFFCURVE",
"354 168 CURVE SMOOTH",
"380 177 OFFCURVE",
"400 187 OFFCURVE",
"415 198 CURVE SMOOTH",
"463 235 OFFCURVE",
"487 271 OFFCURVE",
"487 308 CURVE SMOOTH",
"487 323 OFFCURVE",
"481 335 OFFCURVE",
"470 344 CURVE SMOOTH",
"459 352 OFFCURVE",
"446 356 OFFCURVE",
"431 356 CURVE SMOOTH",
"404 356 OFFCURVE",
"374 344 OFFCURVE",
"343 321 CURVE",
"327 345 OFFCURVE",
"300 357 OFFCURVE",
"262 357 CURVE SMOOTH",
"235 357 OFFCURVE",
"208 350 OFFCURVE",
"179 335 CURVE SMOOTH",
"151 320 OFFCURVE",
"127 302 OFFCURVE",
"108 279 CURVE SMOOTH",
"52 211 OFFCURVE",
"24 146 OFFCURVE",
"24 83 CURVE SMOOTH",
"24 58 OFFCURVE",
"29 37 OFFCURVE",
"40 22 CURVE SMOOTH",
"50 7 OFFCURVE",
"63 -1 OFFCURVE",
"80 -1 CURVE SMOOTH",
"101 -1 OFFCURVE",
"124 11 OFFCURVE",
"148 34 CURVE SMOOTH",
"172 57 OFFCURVE",
"196 88 OFFCURVE",
"220 127 CURVE",
"219 119 OFFCURVE",
"218 111 OFFCURVE",
"218 104 CURVE SMOOTH",
"218 63 OFFCURVE",
"232 34 OFFCURVE",
"259 15 CURVE SMOOTH",
"277 3 OFFCURVE",
"296 -4 OFFCURVE",
"318 -4 CURVE"
);
},
{
closed = 1;
nodes = (
"94 27 LINE",
"77 27 OFFCURVE",
"69 38 OFFCURVE",
"69 61 CURVE SMOOTH",
"69 92 OFFCURVE",
"83 131 OFFCURVE",
"111 178 CURVE SMOOTH",
"132 213 OFFCURVE",
"156 244 OFFCURVE",
"184 273 CURVE SMOOTH",
"222 312 OFFCURVE",
"255 332 OFFCURVE",
"283 332 CURVE SMOOTH",
"302 332 OFFCURVE",
"316 323 OFFCURVE",
"325 306 CURVE",
"294 278 OFFCURVE",
"270 246 OFFCURVE",
"251 211 CURVE SMOOTH",
"219 150 OFFCURVE",
"189 103 OFFCURVE",
"162 71 CURVE SMOOTH",
"137 42 OFFCURVE",
"115 27 OFFCURVE",
"94 27 CURVE"
);
},
{
closed = 1;
nodes = (
"301 171 LINE",
"319 208 OFFCURVE",
"338 240 OFFCURVE",
"359 265 CURVE SMOOTH",
"397 311 OFFCURVE",
"425 334 OFFCURVE",
"444 334 CURVE SMOOTH",
"455 334 OFFCURVE",
"460 327 OFFCURVE",
"460 312 CURVE SMOOTH",
"460 279 OFFCURVE",
"442 246 OFFCURVE",
"405 215 CURVE SMOOTH",
"372 187 OFFCURVE",
"338 173 OFFCURVE",
"301 171 CURVE"
);
}
);
width = 436;
}
);
note = ae;
unicode = 00E6;
},
{
glyphname = b;
lastChange = "2021-08-10 23:15:45 +0000";
layers = (
{
layerId = "3191725B-F824-48C7-90A0-BAE99CBF9356";
paths = (
{
closed = 1;
nodes = (
"193 -2 OFFCURVE",
"253 33 OFFCURVE",
"299 100 CURVE SMOOTH",
"332 148 OFFCURVE",
"348 196 OFFCURVE",
"348 244 CURVE SMOOTH",
"348 306 OFFCURVE",
"320 341 OFFCURVE",
"264 349 CURVE SMOOTH",
"258 350 OFFCURVE",
"253 350 OFFCURVE",
"249 350 CURVE SMOOTH",
"236 350 OFFCURVE",
"229 347 OFFCURVE",
"229 339 CURVE SMOOTH",
"229 332 OFFCURVE",
"234 329 OFFCURVE",
"245 329 CURVE SMOOTH",
"250 329 LINE SMOOTH",
"286 329 OFFCURVE",
"304 315 OFFCURVE",
"304 277 CURVE SMOOTH",
"304 256 OFFCURVE",
"299 232 OFFCURVE",
"288 205 CURVE SMOOTH",
"270 160 OFFCURVE",
"244 118 OFFCURVE",
"213 81 CURVE SMOOTH",
"176 37 OFFCURVE",
"146 16 OFFCURVE",
"123 16 CURVE SMOOTH",
"101 16 OFFCURVE",
"89 32 OFFCURVE",
"89 63 CURVE SMOOTH",
"89 81 OFFCURVE",
"94 101 OFFCURVE",
"103 124 CURVE SMOOTH",
"187 328 OFFCURVE",
"251 481 OFFCURVE",
"294 582 CURVE SMOOTH",
"298 592 OFFCURVE",
"300 599 OFFCURVE",
"300 603 CURVE SMOOTH",
"300 612 OFFCURVE",
"291 616 OFFCURVE",
"273 616 CURVE SMOOTH",
"218 616 LINE",
"226 605 OFFCURVE",
"230 594 OFFCURVE",
"230 585 CURVE SMOOTH",
"230 582 OFFCURVE",
"229 578 OFFCURVE",
"228 574 CURVE",
"129 339 LINE SMOOTH",
"91 249 OFFCURVE",
"39 121 OFFCURVE",
"39 76 CURVE SMOOTH",
"39 24 OFFCURVE",
"68 -2 OFFCURVE",
"125 -2 CURVE SMOOTH"
);
}
);
width = 328;
}
);
note = b;
unicode = 0062;
},
{
glyphname = c;
lastChange = "2021-08-10 23:26:41 +0000";
layers = (
{
anchors = (
{
name = bottom;
position = "{119, 0}";
},
{
name = top;
position = "{233, 352}";
}
);
layerId = "3191725B-F824-48C7-90A0-BAE99CBF9356";
paths = (
{
closed = 1;
nodes = (
"183 -4 OFFCURVE",
"226 22 OFFCURVE",
"261 72 CURVE SMOOTH",
"268 82 LINE",
"254 90 LINE",
"248 82 LINE SMOOTH",
"214 37 OFFCURVE",
"180 14 OFFCURVE",
"143 14 CURVE SMOOTH",
"106 14 OFFCURVE",
"87 38 OFFCURVE",
"87 87 CURVE SMOOTH",
"87 138 OFFCURVE",
"107 191 OFFCURVE",
"147 245 CURVE SMOOTH",
"189 302 OFFCURVE",
"222 330 OFFCURVE",
"245 330 CURVE SMOOTH",
"261 330 OFFCURVE",
"269 321 OFFCURVE",
"269 304 CURVE SMOOTH",
"269 297 OFFCURVE",
"267 290 OFFCURVE",
"265 281 CURVE SMOOTH",
"261 264 OFFCURVE",
"251 247 OFFCURVE",
"234 230 CURVE",
"238 226 OFFCURVE",
"243 224 OFFCURVE",
"249 224 CURVE SMOOTH",
"260 224 OFFCURVE",
"271 231 OFFCURVE",
"282 244 CURVE SMOOTH",
"293 257 OFFCURVE",
"300 270 OFFCURVE",
"301 283 CURVE SMOOTH",
"306 329 OFFCURVE",
"284 352 OFFCURVE",
"233 352 CURVE SMOOTH",
"178 352 OFFCURVE",
"130 322 OFFCURVE",
"88 262 CURVE SMOOTH",
"49 207 OFFCURVE",
"30 152 OFFCURVE",
"30 96 CURVE SMOOTH",
"30 29 OFFCURVE",
"63 -4 OFFCURVE",
"130 -4 CURVE"
);
}
);
width = 263;
}
);
leftMetricsKey = o;
note = c;
unicode = 0063;
},
{
glyphname = d;
lastChange = "2021-08-10 23:05:29 +0000";
layers = (
{
anchors = (
{
name = bottom;
position = "{205, 0}";
},
{
name = center;
position = "{379, 439}";
},
{
name = top;
position = "{493, 625}";
},
{
name = topright;
position = "{542, 625}";
}
);
layerId = "3191725B-F824-48C7-90A0-BAE99CBF9356";
paths = (
{
closed = 1;
nodes = (
"288 0 LINE",
"322 0 OFFCURVE",
"354 24 OFFCURVE",
"385 73 CURVE",
"389 78 LINE",
"373 86 LINE",
"369 81 LINE",
"346 44 OFFCURVE",
"324 26 OFFCURVE",
"305 26 CURVE SMOOTH",
"290 26 OFFCURVE",
"282 37 OFFCURVE",
"282 60 CURVE SMOOTH",
"282 81 OFFCURVE",
"287 105 OFFCURVE",
"297 133 CURVE SMOOTH",
"321 200 OFFCURVE",
"361 296 OFFCURVE",
"420 419 CURVE SMOOTH",
"477 540 OFFCURVE",
"513 607 OFFCURVE",
"527 622 CURVE",
"522 621 OFFCURVE",
"515 622 OFFCURVE",
"506 623 CURVE SMOOTH",
"485 626 LINE SMOOTH",
"468 627 OFFCURVE",
"455 624 OFFCURVE",
"445 617 CURVE SMOOTH",
"436 610 OFFCURVE",
"428 596 OFFCURVE",
"420 574 CURVE SMOOTH",
"379 460 OFFCURVE",
"347 381 OFFCURVE",
"325 337 CURVE",
"304 349 OFFCURVE",
"281 355 OFFCURVE",
"258 355 CURVE SMOOTH",
"205 355 OFFCURVE",
"156 330 OFFCURVE",
"114 279 CURVE SMOOTH",
"90 251 OFFCURVE",
"71 218 OFFCURVE",
"55 182 CURVE SMOOTH",
"38 144 OFFCURVE",
"30 110 OFFCURVE",
"30 80 CURVE SMOOTH",
"30 39 OFFCURVE",
"47 13 OFFCURVE",
"80 4 CURVE SMOOTH",
"86 2 OFFCURVE",
"92 2 OFFCURVE",
"97 2 CURVE SMOOTH",
"143 2 OFFCURVE",
"191 46 OFFCURVE",
"241 134 CURVE",
"234 116 OFFCURVE",
"230 96 OFFCURVE",
"230 74 CURVE SMOOTH",
"230 25 OFFCURVE",
"249 0 OFFCURVE",
"288 0 CURVE"
);
},
{
closed = 1;
nodes = (
"107 30 LINE",
"89 30 OFFCURVE",
"80 43 OFFCURVE",
"80 70 CURVE SMOOTH",
"80 95 OFFCURVE",
"89 126 OFFCURVE",
"108 161 CURVE SMOOTH",
"131 205 OFFCURVE",
"160 244 OFFCURVE",
"195 278 CURVE SMOOTH",
"232 315 OFFCURVE",
"264 333 OFFCURVE",
"291 333 CURVE SMOOTH",
"302 333 OFFCURVE",
"312 329 OFFCURVE",
"320 321 CURVE",
"265 218 OFFCURVE",
"221 143 OFFCURVE",
"187 95 CURVE SMOOTH",
"156 52 OFFCURVE",
"130 30 OFFCURVE",
"107 30 CURVE"
);
}
);
width = 388;
}
);
leftMetricsKey = o;
note = d;
unicode = 0064;
},
{
glyphname = e;
lastChange = "2021-08-10 23:12:30 +0000";
layers = (
{
anchors = (
{
name = bottom;
position = "{122, 0}";
},
{
name = ogonek;
position = "{260, 25}";
},
{
name = top;
position = "{229, 356}";
}
);
layerId = "3191725B-F824-48C7-90A0-BAE99CBF9356";
paths = (
{
closed = 1;
nodes = (
"125 -4 LINE",
"184 -4 OFFCURVE",
"237 25 OFFCURVE",
"270 92 CURVE SMOOTH",
"273 98 LINE",
"256 105 LINE",
"252 99 LINE SMOOTH",
"216 45 OFFCURVE",
"177 17 OFFCURVE",
"134 17 CURVE SMOOTH",
"102 17 OFFCURVE",
"86 39 OFFCURVE",
"86 82 CURVE SMOOTH",
"86 108 OFFCURVE",
"91 132 OFFCURVE",
"100 154 CURVE",
"114 154 OFFCURVE",
"134 159 OFFCURVE",
"161 168 CURVE SMOOTH",
"187 177 OFFCURVE",
"207 187 OFFCURVE",
"222 198 CURVE SMOOTH",
"271 235 OFFCURVE",
"295 271 OFFCURVE",
"295 308 CURVE SMOOTH",
"295 323 OFFCURVE",
"289 335 OFFCURVE",
"278 344 CURVE SMOOTH",
"267 352 OFFCURVE",
"254 356 OFFCURVE",
"239 356 CURVE SMOOTH",
"194 356 OFFCURVE",
"149 331 OFFCURVE",
"106 279 CURVE SMOOTH",
"55 218 OFFCURVE",
"30 156 OFFCURVE",
"30 96 CURVE SMOOTH",
"30 64 OFFCURVE",
"38 39 OFFCURVE",
"58 21 CURVE SMOOTH",
"77 4 OFFCURVE",
"99 -4 OFFCURVE",
"125 -4 CURVE"
);
},
{
closed = 1;
nodes = (
"106 171 LINE",
"127 210 OFFCURVE",
"147 241 OFFCURVE",
"167 265 CURVE SMOOTH",
"205 311 OFFCURVE",
"233 334 OFFCURVE",
"252 334 CURVE SMOOTH",
"263 334 OFFCURVE",
"268 327 OFFCURVE",
"268 312 CURVE SMOOTH",
"268 279 OFFCURVE",
"250 246 OFFCURVE",
"213 215 CURVE SMOOTH",
"197 201 OFFCURVE",
"176 191 OFFCURVE",
"153 182 CURVE SMOOTH",
"134 175 OFFCURVE",
"118 171 OFFCURVE",
"106 171 CURVE"
);
}
);
width = 259;
}
);
note = e;
unicode = 0065;
},
{
glyphname = f;
lastChange = "2021-08-10 23:12:07 +0000";
layers = (
{
layerId = "3191725B-F824-48C7-90A0-BAE99CBF9356";
paths = (
{
closed = 1;
nodes = (
"69 0 LINE",
"119 0 LINE",
"110 5 OFFCURVE",
"106 16 OFFCURVE",
"106 31 CURVE SMOOTH",
"106 46 OFFCURVE",
"110 65 OFFCURVE",
"119 88 CURVE SMOOTH",
"220 358 LINE",
"354 358 LINE",
"366 380 LINE",
"229 380 LINE",
"270 471 OFFCURVE",
"298 529 OFFCURVE",
"312 554 CURVE SMOOTH",
"351 625 OFFCURVE",
"388 660 OFFCURVE",
"423 660 CURVE SMOOTH",
"437 660 OFFCURVE",
"450 653 OFFCURVE",
"462 639 CURVE SMOOTH",
"469 631 OFFCURVE",
"472 620 OFFCURVE",
"472 606 CURVE SMOOTH",
"472 596 OFFCURVE",
"470 585 OFFCURVE",
"467 572 CURVE",
"484 573 LINE",
"487 580 OFFCURVE",
"489 590 OFFCURVE",
"489 603 CURVE SMOOTH",
"489 624 OFFCURVE",
"486 640 OFFCURVE",
"480 650 CURVE SMOOTH",
"466 673 OFFCURVE",
"444 685 OFFCURVE",
"415 685 CURVE SMOOTH",
"358 685 OFFCURVE",
"312 655 OFFCURVE",
"274 596 CURVE SMOOTH",
"256 568 OFFCURVE",
"233 525 OFFCURVE",
"206 464 CURVE SMOOTH",
"194 438 OFFCURVE",
"183 410 OFFCURVE",
"171 380 CURVE",
"96 380 LINE",
"84 358 LINE",
"162 358 LINE",
"53 78 LINE SMOOTH",
"45 57 OFFCURVE",
"41 41 OFFCURVE",
"41 29 CURVE SMOOTH",
"41 10 OFFCURVE",
"50 0 OFFCURVE",
"69 0 CURVE"
);
}
);
width = 216;
}
);
note = f;
unicode = 0066;
},
{
glyphname = g;
lastChange = "2021-08-10 23:07:19 +0000";
layers = (
{
anchors = (
{
name = bottom;
position = "{19, -246}";
},
{
name = top;
position = "{277, 357}";
}
);
layerId = "3191725B-F824-48C7-90A0-BAE99CBF9356";
paths = (
{
closed = 1;
nodes = (
"9 -261 LINE",
"44 -261 OFFCURVE",
"78 -249 OFFCURVE",
"111 -224 CURVE SMOOTH",
"139 -203 OFFCURVE",
"161 -179 OFFCURVE",
"176 -150 CURVE SMOOTH",
"197 -109 OFFCURVE",
"225 -46 OFFCURVE",
"259 39 CURVE SMOOTH",
"273 74 OFFCURVE",
"287 113 OFFCURVE",
"303 154 CURVE SMOOTH",
"318 192 OFFCURVE",
"333 221 OFFCURVE",
"345 240 CURVE SMOOTH",
"352 251 OFFCURVE",
"361 261 OFFCURVE",
"371 271 CURVE",
"366 270 OFFCURVE",
"359 270 OFFCURVE",
"350 272 CURVE SMOOTH",
"329 275 LINE SMOOTH",
"314 276 OFFCURVE",
"302 271 OFFCURVE",
"291 260 CURVE SMOOTH",
"284 252 OFFCURVE",
"274 236 OFFCURVE",
"261 211 CURVE SMOOTH",
"229 150 OFFCURVE",
"199 103 OFFCURVE",
"172 71 CURVE SMOOTH",
"147 42 OFFCURVE",
"125 27 OFFCURVE",
"104 27 CURVE SMOOTH",
"87 27 OFFCURVE",
"79 38 OFFCURVE",
"79 61 CURVE SMOOTH",
"79 92 OFFCURVE",
"93 131 OFFCURVE",
"121 178 CURVE SMOOTH",
"142 213 OFFCURVE",
"166 244 OFFCURVE",
"194 273 CURVE SMOOTH",
"232 312 OFFCURVE",
"265 332 OFFCURVE",
"293 332 CURVE SMOOTH",
"317 332 OFFCURVE",
"332 320 OFFCURVE",
"339 296 CURVE",
"351 293 OFFCURVE",
"357 298 OFFCURVE",
"357 309 CURVE SMOOTH",
"357 314 OFFCURVE",
"355 320 OFFCURVE",
"350 325 CURVE SMOOTH",
"331 346 OFFCURVE",
"305 357 OFFCURVE",
"272 357 CURVE SMOOTH",
"245 357 OFFCURVE",
"218 350 OFFCURVE",
"189 335 CURVE SMOOTH",
"161 320 OFFCURVE",
"137 302 OFFCURVE",
"118 279 CURVE SMOOTH",
"62 211 OFFCURVE",
"34 146 OFFCURVE",
"34 83 CURVE SMOOTH",
"34 58 OFFCURVE",
"39 37 OFFCURVE",
"50 22 CURVE SMOOTH",
"60 7 OFFCURVE",
"73 -1 OFFCURVE",
"90 -1 CURVE SMOOTH",
"111 -1 OFFCURVE",
"134 11 OFFCURVE",
"158 34 CURVE SMOOTH",
"182 57 OFFCURVE",
"206 88 OFFCURVE",
"230 127 CURVE",
"215 86 OFFCURVE",
"202 45 OFFCURVE",
"187 5 CURVE SMOOTH",
"165 -57 OFFCURVE",
"142 -105 OFFCURVE",
"119 -140 CURVE SMOOTH",
"79 -202 OFFCURVE",
"39 -233 OFFCURVE",
"1 -233 CURVE SMOOTH",
"-41 -233 OFFCURVE",
"-62 -215 OFFCURVE",
"-62 -179 CURVE SMOOTH",
"-62 -170 OFFCURVE",
"-60 -159 OFFCURVE",
"-57 -148 CURVE",
"-75 -149 LINE",
"-79 -156 OFFCURVE",
"-81 -167 OFFCURVE",
"-81 -181 CURVE SMOOTH",
"-81 -200 OFFCURVE",
"-77 -215 OFFCURVE",
"-70 -226 CURVE SMOOTH",
"-53 -249 OFFCURVE",
"-27 -261 OFFCURVE",
"9 -261 CURVE"
);
}
);
width = 331;
}
);
note = g;
unicode = 0067;
},
{
glyphname = h;
lastChange = "2021-08-10 23:04:36 +0000";
layers = (
{
anchors = (
{
name = bottom;
position = "{210, 0}";
},
{
name = center;
position = "{210, 366}";
},
{
name = top;
position = "{309, 616}";
}
);
layerId = "3191725B-F824-48C7-90A0-BAE99CBF9356";
paths = (
{
closed = 1;
nodes = (
"10 -7 LINE",
"15 -4 OFFCURVE",
"28 -3 OFFCURVE",
"49 -2 CURVE SMOOTH",
"66 -1 OFFCURVE",
"76 4 OFFCURVE",
"81 14 CURVE SMOOTH",
"120 99 OFFCURVE",
"164 165 OFFCURVE",
"215 212 CURVE SMOOTH",
"247 241 OFFCURVE",
"270 257 OFFCURVE",
"285 257 CURVE SMOOTH",
"292 257 OFFCURVE",
"296 253 OFFCURVE",
"296 245 CURVE SMOOTH",
"296 238 OFFCURVE",
"293 229 OFFCURVE",
"286 218 CURVE SMOOTH",
"243 149 OFFCURVE",
"221 96 OFFCURVE",
"221 61 CURVE SMOOTH",
"221 18 OFFCURVE",
"242 -4 OFFCURVE",
"284 -4 CURVE SMOOTH",
"317 -4 OFFCURVE",
"352 22 OFFCURVE",
"387 75 CURVE",
"372 84 LINE",
"342 40 OFFCURVE",
"318 17 OFFCURVE",
"299 17 CURVE SMOOTH",
"286 17 OFFCURVE",
"279 26 OFFCURVE",
"279 44 CURVE SMOOTH",
"279 51 OFFCURVE",
"280 60 OFFCURVE",
"282 70 CURVE SMOOTH",
"287 99 OFFCURVE",
"309 151 OFFCURVE",
"347 225 CURVE SMOOTH",
"363 256 OFFCURVE",
"381 290 OFFCURVE",
"402 328 CURVE",
"399 329 OFFCURVE",
"396 329 OFFCURVE",
"392 329 CURVE SMOOTH",
"373 329 OFFCURVE",
"344 318 OFFCURVE",
"305 296 CURVE SMOOTH",
"270 277 OFFCURVE",
"241 256 OFFCURVE",
"217 234 CURVE SMOOTH",
"182 203 OFFCURVE",
"154 174 OFFCURVE",
"134 146 CURVE",
"224 347 OFFCURVE",
"290 492 OFFCURVE",
"331 582 CURVE SMOOTH",
"335 591 OFFCURVE",
"337 598 OFFCURVE",
"337 603 CURVE SMOOTH",
"337 612 OFFCURVE",
"328 616 OFFCURVE",
"309 616 CURVE SMOOTH",
"255 616 LINE",
"263 605 OFFCURVE",
"267 595 OFFCURVE",
"267 586 CURVE SMOOTH",
"267 582 OFFCURVE",
"266 578 OFFCURVE",
"265 574 CURVE",
"140 291 OFFCURVE",
"55 97 OFFCURVE",
"10 -7 CURVE"
);
}
);
width = 382;
}
);
leftMetricsKey = n;
note = h;
rightMetricsKey = n;
unicode = 0068;
},
{
glyphname = i;
lastChange = "2021-08-10 23:06:02 +0000";
layers = (
{
anchors = (
{
name = bottom;
position = "{46, 0}";
}
);
layerId = "3191725B-F824-48C7-90A0-BAE99CBF9356";
paths = (
{
closed = 1;
nodes = (
"55 0 LINE",
"105 0 LINE",
"95 5 OFFCURVE",
"90 16 OFFCURVE",
"90 32 CURVE SMOOTH",
"90 49 OFFCURVE",
"95 67 OFFCURVE",
"104 88 CURVE SMOOTH",
"196 301 LINE SMOOTH",
"200 311 OFFCURVE",
"203 317 OFFCURVE",
"203 322 CURVE SMOOTH",
"203 331 OFFCURVE",
"194 336 OFFCURVE",
"175 336 CURVE SMOOTH",
"120 335 LINE",
"129 324 OFFCURVE",
"133 314 OFFCURVE",
"133 305 CURVE SMOOTH",
"133 301 OFFCURVE",
"132 297 OFFCURVE",
"130 294 CURVE",
"103 235 OFFCURVE",
"72 163 OFFCURVE",
"38 78 CURVE SMOOTH",
"30 57 OFFCURVE",
"26 41 OFFCURVE",
"26 29 CURVE SMOOTH",
"26 10 OFFCURVE",
"36 0 OFFCURVE",
"55 0 CURVE"
);
},
{
closed = 1;
nodes = (
"196 396 LINE",
"207 396 OFFCURVE",
"218 400 OFFCURVE",
"228 408 CURVE SMOOTH",
"239 418 OFFCURVE",
"245 431 OFFCURVE",
"245 445 CURVE SMOOTH",
"245 453 OFFCURVE",
"242 460 OFFCURVE",
"237 466 CURVE SMOOTH",
"230 474 OFFCURVE",
"221 478 OFFCURVE",
"210 478 CURVE SMOOTH",
"199 478 OFFCURVE",
"188 474 OFFCURVE",
"179 466 CURVE SMOOTH",
"168 456 OFFCURVE",
"161 443 OFFCURVE",
"161 429 CURVE SMOOTH",
"161 421 OFFCURVE",
"164 414 OFFCURVE",
"169 408 CURVE SMOOTH",
"176 400 OFFCURVE",
"185 396 OFFCURVE",
"196 396 CURVE"
);
}
);
width = 172;
}
);
note = i;
unicode = 0069;
},
{
glyphname = idotless;
lastChange = "2021-08-10 19:52:28 +0000";
layers = (
{
anchors = (
{
name = bottom;
position = "{54, 10}";
},
{
name = ogonek;
position = "{123, 15}";
},
{
name = top;
position = "{179, 344}";
}
);
layerId = "3191725B-F824-48C7-90A0-BAE99CBF9356";
paths = (
{
closed = 1;
nodes = (
"79 0 LINE",
"127 0 OFFCURVE",
"179 61 OFFCURVE",
"236 183 CURVE SMOOTH",
"238 188 OFFCURVE",
"240 192 OFFCURVE",
"240 195 CURVE SMOOTH",
"240 200 OFFCURVE",
"238 202 OFFCURVE",
"234 202 CURVE SMOOTH",
"230 202 OFFCURVE",
"226 199 OFFCURVE",
"223 192 CURVE SMOOTH",
"186 117 OFFCURVE",
"155 66 OFFCURVE",
"129 41 CURVE SMOOTH",
"115 28 OFFCURVE",
"102 22 OFFCURVE",
"88 22 CURVE SMOOTH",
"69 22 OFFCURVE",
"59 33 OFFCURVE",
"59 54 CURVE SMOOTH",
"59 63 OFFCURVE",
"61 73 OFFCURVE",
"65 85 CURVE SMOOTH",
"69 97 OFFCURVE",
"73 107 OFFCURVE",
"76 114 CURVE SMOOTH",
"88 143 OFFCURVE",
"108 184 OFFCURVE",
"138 237 CURVE SMOOTH",
"180 308 LINE",
"196 327 OFFCURVE",
"208 339 OFFCURVE",
"217 344 CURVE",
"166 344 LINE SMOOTH",
"151 344 OFFCURVE",
"141 342 OFFCURVE",
"137 339 CURVE SMOOTH",
"134 336 OFFCURVE",
"125 321 OFFCURVE",
"112 296 CURVE SMOOTH",
"25 130 LINE SMOOTH",
"16 112 OFFCURVE",
"11 93 OFFCURVE",
"11 73 CURVE SMOOTH",
"11 24 OFFCURVE",
"34 0 OFFCURVE",
"79 0 CURVE"
);
}
);
width = 168;
}
);
note = dotlessi;
unicode = 0131;
},
{
glyphname = j;
lastChange = "2021-08-10 23:14:29 +0000";
layers = (
{
background = {
paths = (
{
closed = 1;
nodes = (
"-124 -261 LINE",
"-70 -261 OFFCURVE",
"-22 -228 OFFCURVE",
"6 -156 CURVE SMOOTH",
"188 307 LINE SMOOTH",
"192 316 OFFCURVE",
"194 323 OFFCURVE",
"194 326 CURVE SMOOTH",
"194 333 OFFCURVE",
"185 336 OFFCURVE",
"166 336 CURVE SMOOTH",
"112 335 LINE",
"121 323 OFFCURVE",
"126 312 OFFCURVE",
"126 303 CURVE SMOOTH",
"126 300 OFFCURVE",
"126 297 OFFCURVE",
"125 294 CURVE SMOOTH",
"70 143 OFFCURVE",
"29 31 OFFCURVE",
"0 -42 CURVE SMOOTH",
"-23 -99 OFFCURVE",
"-39 -137 OFFCURVE",
"-50 -157 CURVE SMOOTH",
"-78 -208 OFFCURVE",
"-106 -233 OFFCURVE",
"-133 -233 CURVE SMOOTH",
"-168 -233 OFFCURVE",
"-186 -212 OFFCURVE",
"-186 -170 CURVE SMOOTH",
"-186 -163 OFFCURVE",
"-185 -155 OFFCURVE",
"-184 -148 CURVE",
"-201 -149 LINE",
"-203 -155 OFFCURVE",
"-204 -162 OFFCURVE",
"-204 -171 CURVE SMOOTH",
"-204 -176 OFFCURVE",
"-204 -181 OFFCURVE",
"-203 -187 CURVE SMOOTH",
"-201 -204 OFFCURVE",
"-198 -217 OFFCURVE",
"-192 -226 CURVE SMOOTH",
"-177 -250 OFFCURVE",
"-154 -261 OFFCURVE",
"-124 -261 CURVE"
);
},
{
closed = 1;
nodes = (
"188 396 LINE",
"199 396 OFFCURVE",
"210 400 OFFCURVE",
"219 408 CURVE SMOOTH",
"230 418 OFFCURVE",
"237 430 OFFCURVE",
"237 444 CURVE SMOOTH",
"237 452 OFFCURVE",
"234 460 OFFCURVE",
"228 466 CURVE SMOOTH",
"221 474 OFFCURVE",
"212 478 OFFCURVE",
"201 478 CURVE SMOOTH",
"190 478 OFFCURVE",
"179 474 OFFCURVE",
"170 466 CURVE SMOOTH",
"159 456 OFFCURVE",
"152 444 OFFCURVE",
"152 430 CURVE SMOOTH",
"152 422 OFFCURVE",
"155 414 OFFCURVE",
"161 408 CURVE SMOOTH",
"168 400 OFFCURVE",
"177 396 OFFCURVE",
"188 396 CURVE"
);
}
);
};
layerId = "3191725B-F824-48C7-90A0-BAE99CBF9356";
paths = (
{
closed = 1;
nodes = (
"-65 -261 OFFCURVE",
"-17 -228 OFFCURVE",
"11 -156 CURVE SMOOTH",
"193 307 LINE SMOOTH",
"197 316 OFFCURVE",
"199 323 OFFCURVE",
"199 326 CURVE SMOOTH",
"199 333 OFFCURVE",
"190 336 OFFCURVE",
"171 336 CURVE SMOOTH",
"109 335 LINE",
"118 323 OFFCURVE",
"123 312 OFFCURVE",
"123 303 CURVE SMOOTH",
"123 300 OFFCURVE",
"123 297 OFFCURVE",
"122 294 CURVE SMOOTH",
"67 143 OFFCURVE",
"26 31 OFFCURVE",
"-3 -42 CURVE SMOOTH",
"-26 -99 OFFCURVE",
"-42 -137 OFFCURVE",
"-53 -157 CURVE SMOOTH",
"-81 -208 OFFCURVE",
"-107 -233 OFFCURVE",
"-139 -233 CURVE SMOOTH",
"-168 -233 OFFCURVE",
"-186 -212 OFFCURVE",
"-186 -170 CURVE SMOOTH",
"-186 -163 OFFCURVE",
"-185 -155 OFFCURVE",
"-184 -148 CURVE",
"-201 -149 LINE",
"-203 -155 OFFCURVE",
"-204 -162 OFFCURVE",
"-204 -171 CURVE SMOOTH",
"-204 -176 OFFCURVE",
"-204 -181 OFFCURVE",
"-203 -187 CURVE SMOOTH",
"-201 -204 OFFCURVE",
"-198 -217 OFFCURVE",
"-192 -226 CURVE SMOOTH",
"-177 -250 OFFCURVE",
"-151 -261 OFFCURVE",
"-119 -261 CURVE SMOOTH"
);
},
{
closed = 1;
nodes = (
"188 396 LINE",
"199 396 OFFCURVE",
"210 400 OFFCURVE",
"219 408 CURVE SMOOTH",
"230 418 OFFCURVE",
"237 430 OFFCURVE",
"237 444 CURVE SMOOTH",
"237 452 OFFCURVE",
"234 460 OFFCURVE",
"228 466 CURVE SMOOTH",
"221 474 OFFCURVE",
"212 478 OFFCURVE",
"201 478 CURVE SMOOTH",
"190 478 OFFCURVE",
"179 474 OFFCURVE",
"170 466 CURVE SMOOTH",
"159 456 OFFCURVE",
"152 444 OFFCURVE",
"152 430 CURVE SMOOTH",
"152 422 OFFCURVE",
"155 414 OFFCURVE",
"161 408 CURVE SMOOTH",
"168 400 OFFCURVE",
"177 396 OFFCURVE",
"188 396 CURVE"
);
}
);
width = 167;
}
);
note = j;
unicode = 006A;
},
{
glyphname = jdotless;
lastChange = "2021-08-10 19:52:28 +0000";
layers = (
{
anchors = (
{
name = bottom;
position = "{-96, -254}";
},
{
name = top;
position = "{134, 335}";
}
);
layerId = "3191725B-F824-48C7-90A0-BAE99CBF9356";
paths = (
{
closed = 1;
nodes = (
"-146 -261 LINE",
"-92 -261 OFFCURVE",
"-44 -228 OFFCURVE",
"-16 -156 CURVE SMOOTH",
"166 307 LINE SMOOTH",
"170 316 OFFCURVE",
"172 323 OFFCURVE",
"172 326 CURVE SMOOTH",
"172 333 OFFCURVE",
"163 336 OFFCURVE",
"144 336 CURVE SMOOTH",
"90 335 LINE",
"99 323 OFFCURVE",
"104 312 OFFCURVE",
"104 303 CURVE SMOOTH",
"104 300 OFFCURVE",
"104 297 OFFCURVE",
"103 294 CURVE SMOOTH",
"48 143 OFFCURVE",
"7 31 OFFCURVE",
"-22 -42 CURVE SMOOTH",
"-45 -99 OFFCURVE",
"-61 -137 OFFCURVE",
"-72 -157 CURVE SMOOTH",
"-100 -208 OFFCURVE",
"-128 -233 OFFCURVE",
"-155 -233 CURVE SMOOTH",
"-190 -233 OFFCURVE",
"-208 -212 OFFCURVE",
"-208 -170 CURVE SMOOTH",
"-208 -163 OFFCURVE",
"-207 -155 OFFCURVE",
"-206 -148 CURVE",
"-223 -149 LINE",
"-225 -155 OFFCURVE",
"-226 -162 OFFCURVE",
"-226 -171 CURVE SMOOTH",
"-226 -176 OFFCURVE",
"-226 -181 OFFCURVE",
"-225 -187 CURVE SMOOTH",
"-223 -204 OFFCURVE",
"-220 -217 OFFCURVE",
"-214 -226 CURVE SMOOTH",
"-199 -250 OFFCURVE",
"-176 -261 OFFCURVE",
"-146 -261 CURVE"
);
}
);
width = 154;
}
);
unicode = 0237;
},
{
glyphname = k;
lastChange = "2021-08-10 23:08:17 +0000";
layers = (
{
anchors = (
{
name = bottom;
position = "{130, 0}";
},
{
name = top;
position = "{299, 616}";
}
);
layerId = "3191725B-F824-48C7-90A0-BAE99CBF9356";
paths = (
{
closed = 1;
nodes = (
"0 -7 LINE",
"15 -3 OFFCURVE",
"26 -1 OFFCURVE",
"34 -1 CURVE SMOOTH",
"53 -1 OFFCURVE",
"65 4 OFFCURVE",
"69 14 CURVE SMOOTH",
"103 93 OFFCURVE",
"142 154 OFFCURVE",
"187 197 CURVE",
"171 170 OFFCURVE",
"164 144 OFFCURVE",
"164 117 CURVE SMOOTH",
"164 81 OFFCURVE",
"174 51 OFFCURVE",
"197 26 CURVE SMOOTH",
"214 7 OFFCURVE",
"232 -4 OFFCURVE",
"251 -6 CURVE SMOOTH",
"258 -7 OFFCURVE",
"264 -7 OFFCURVE",
"270 -7 CURVE SMOOTH",
"313 -7 OFFCURVE",
"352 18 OFFCURVE",
"387 67 CURVE",
"373 79 LINE",
"348 44 OFFCURVE",
"323 27 OFFCURVE",
"296 27 CURVE SMOOTH",
"269 27 OFFCURVE",
"247 42 OFFCURVE",
"230 71 CURVE SMOOTH",
"215 96 OFFCURVE",
"208 124 OFFCURVE",
"208 153 CURVE SMOOTH",
"208 190 OFFCURVE",
"216 217 OFFCURVE",
"232 237 CURVE SMOOTH",
"243 251 OFFCURVE",
"255 258 OFFCURVE",
"268 258 CURVE SMOOTH",
"273 258 OFFCURVE",
"278 257 OFFCURVE",
"282 255 CURVE SMOOTH",
"286 252 OFFCURVE",
"289 248 OFFCURVE",
"289 243 CURVE SMOOTH",
"289 237 OFFCURVE",
"285 229 OFFCURVE",
"278 218 CURVE",
"283 209 OFFCURVE",
"290 205 OFFCURVE",
"300 205 CURVE SMOOTH",
"312 205 OFFCURVE",
"325 211 OFFCURVE",
"339 223 CURVE SMOOTH",
"353 234 OFFCURVE",
"362 246 OFFCURVE",
"366 259 CURVE SMOOTH",
"369 268 OFFCURVE",
"371 276 OFFCURVE",
"371 284 CURVE SMOOTH",
"371 311 OFFCURVE",
"358 324 OFFCURVE",
"333 324 CURVE SMOOTH",
"326 324 OFFCURVE",
"319 323 OFFCURVE",
"312 321 CURVE SMOOTH",
"296 316 OFFCURVE",
"267 296 OFFCURVE",
"226 260 CURVE SMOOTH",
"185 224 OFFCURVE",
"158 197 OFFCURVE",
"145 178 CURVE",
"321 582 LINE SMOOTH",
"325 591 OFFCURVE",
"327 598 OFFCURVE",
"327 603 CURVE SMOOTH",
"327 612 OFFCURVE",
"318 616 OFFCURVE",
"299 616 CURVE SMOOTH",
"245 616 LINE",
"253 605 OFFCURVE",
"257 595 OFFCURVE",
"257 586 CURVE SMOOTH",
"257 582 OFFCURVE",
"256 578 OFFCURVE",
"255 574 CURVE",
"130 291 OFFCURVE",
"45 97 OFFCURVE",
"0 -7 CURVE"
);
}
);
width = 364;
}
);
note = k;
unicode = 006B;
},
{
glyphname = kgreenlandic;
lastChange = "2021-08-10 19:52:28 +0000";
layers = (
{
layerId = "3191725B-F824-48C7-90A0-BAE99CBF9356";
paths = (
{
closed = 1;
nodes = (
"-34 -7 LINE",
"-19 -3 OFFCURVE",
"-8 -1 OFFCURVE",
"0 -1 CURVE SMOOTH",
"19 -1 OFFCURVE",
"31 4 OFFCURVE",
"35 14 CURVE SMOOTH",
"69 93 OFFCURVE",
"108 154 OFFCURVE",
"153 197 CURVE",
"137 170 OFFCURVE",
"130 144 OFFCURVE",
"130 117 CURVE SMOOTH",
"130 81 OFFCURVE",
"140 51 OFFCURVE",
"163 26 CURVE SMOOTH",
"180 7 OFFCURVE",
"198 -4 OFFCURVE",
"217 -6 CURVE SMOOTH",
"224 -7 OFFCURVE",
"230 -7 OFFCURVE",
"236 -7 CURVE SMOOTH",
"279 -7 OFFCURVE",
"318 18 OFFCURVE",
"353 67 CURVE",
"339 79 LINE",
"314 44 OFFCURVE",
"289 27 OFFCURVE",
"262 27 CURVE SMOOTH",
"235 27 OFFCURVE",
"213 42 OFFCURVE",
"196 71 CURVE SMOOTH",
"181 96 OFFCURVE",
"174 124 OFFCURVE",
"174 153 CURVE SMOOTH",
"174 190 OFFCURVE",
"182 217 OFFCURVE",
"198 237 CURVE SMOOTH",
"209 251 OFFCURVE",
"221 258 OFFCURVE",
"234 258 CURVE SMOOTH",
"239 258 OFFCURVE",
"244 257 OFFCURVE",
"248 255 CURVE SMOOTH",
"252 252 OFFCURVE",
"255 248 OFFCURVE",
"255 243 CURVE SMOOTH",
"255 237 OFFCURVE",
"251 229 OFFCURVE",
"244 218 CURVE",
"249 209 OFFCURVE",
"256 205 OFFCURVE",
"266 205 CURVE SMOOTH",
"278 205 OFFCURVE",
"291 211 OFFCURVE",
"305 223 CURVE SMOOTH",
"319 234 OFFCURVE",
"328 246 OFFCURVE",
"332 259 CURVE SMOOTH",
"335 268 OFFCURVE",
"337 276 OFFCURVE",
"337 284 CURVE SMOOTH",
"337 311 OFFCURVE",
"324 324 OFFCURVE",
"299 324 CURVE SMOOTH",
"292 324 OFFCURVE",
"285 323 OFFCURVE",
"278 321 CURVE SMOOTH",
"262 316 OFFCURVE",
"233 296 OFFCURVE",
"192 260 CURVE SMOOTH",
"151 224 OFFCURVE",
"124 197 OFFCURVE",
"111 178 CURVE",
"224 401 LINE SMOOTH",
"228 410 OFFCURVE",
"230 417 OFFCURVE",
"230 422 CURVE SMOOTH",
"230 431 OFFCURVE",
"221 435 OFFCURVE",
"202 435 CURVE SMOOTH",
"148 435 LINE",
"156 424 OFFCURVE",
"160 414 OFFCURVE",
"160 405 CURVE SMOOTH",
"160 401 OFFCURVE",
"159 397 OFFCURVE",
"158 393 CURVE",
"134 340 OFFCURVE",
"11 97 OFFCURVE",
"-34 -7 CURVE"
);
}
);
width = 345;
}
);
unicode = 0138;
},
{
glyphname = l;
lastChange = "2021-08-10 23:08:28 +0000";
layers = (
{
anchors = (
{
name = bottom;
position = "{66, 0}";
},
{
name = center;
position = "{212, 449}";
},
{
name = top;
position = "{271, 616}";
},
{
name = topright;
position = "{335, 620}";
}
);
layerId = "3191725B-F824-48C7-90A0-BAE99CBF9356";
paths = (
{
closed = 1;
nodes = (
"61 0 LINE",
"111 0 LINE",
"102 5 OFFCURVE",
"97 16 OFFCURVE",
"97 31 CURVE SMOOTH",
"97 47 OFFCURVE",
"101 66 OFFCURVE",
"110 88 CURVE SMOOTH",
"304 582 LINE SMOOTH",
"308 592 OFFCURVE",
"310 599 OFFCURVE",
"310 603 CURVE SMOOTH",
"310 612 OFFCURVE",
"301 616 OFFCURVE",
"282 616 CURVE SMOOTH",
"228 616 LINE",
"236 605 OFFCURVE",
"240 594 OFFCURVE",
"240 585 CURVE SMOOTH",
"240 582 OFFCURVE",
"240 578 OFFCURVE",
"238 574 CURVE SMOOTH",
"44 78 LINE SMOOTH",
"36 57 OFFCURVE",
"32 41 OFFCURVE",
"32 29 CURVE SMOOTH",
"32 10 OFFCURVE",
"42 0 OFFCURVE",
"61 0 CURVE"
);
}
);
width = 175;
}
);
note = l;
unicode = 006C;
},
{
glyphname = m;
lastChange = "2021-08-10 23:04:36 +0000";
layers = (
{
layerId = "3191725B-F824-48C7-90A0-BAE99CBF9356";
paths = (
{
closed = 1;
nodes = (
"10 -7 LINE",
"15 -4 OFFCURVE",
"28 -2 OFFCURVE",
"49 0 CURVE SMOOTH",
"66 2 OFFCURVE",
"76 8 OFFCURVE",
"80 18 CURVE SMOOTH",
"94 56 OFFCURVE",
"114 95 OFFCURVE",
"140 134 CURVE SMOOTH",
"163 169 OFFCURVE",
"183 195 OFFCURVE",
"202 212 CURVE SMOOTH",
"238 245 OFFCURVE",
"262 262 OFFCURVE",
"273 262 CURVE SMOOTH",
"278 262 OFFCURVE",
"281 259 OFFCURVE",
"281 252 CURVE SMOOTH",
"281 238 OFFCURVE",
"272 213 OFFCURVE",
"252 177 CURVE SMOOTH",
"218 114 OFFCURVE",
"199 71 OFFCURVE",
"199 44 CURVE SMOOTH",
"199 34 OFFCURVE",
"202 24 OFFCURVE",
"206 16 CURVE SMOOTH",
"212 5 OFFCURVE",
"221 0 OFFCURVE",
"232 0 CURVE",
"238 27 OFFCURVE",
"258 65 OFFCURVE",
"291 113 CURVE SMOOTH",
"321 156 OFFCURVE",
"349 189 OFFCURVE",
"374 213 CURVE SMOOTH",
"405 241 OFFCURVE",
"429 257 OFFCURVE",
"444 257 CURVE SMOOTH",
"451 257 OFFCURVE",
"454 253 OFFCURVE",
"454 245 CURVE SMOOTH",
"454 238 OFFCURVE",
"451 229 OFFCURVE",
"444 218 CURVE SMOOTH",
"401 149 OFFCURVE",
"380 96 OFFCURVE",
"380 61 CURVE SMOOTH",
"380 18 OFFCURVE",
"401 -4 OFFCURVE",
"443 -4 CURVE SMOOTH",
"477 -4 OFFCURVE",
"511 22 OFFCURVE",
"545 73 CURVE",
"531 83 LINE",
"502 41 OFFCURVE",
"478 20 OFFCURVE",
"457 20 CURVE SMOOTH",
"444 20 OFFCURVE",
"438 29 OFFCURVE",
"438 46 CURVE SMOOTH",
"438 53 OFFCURVE",
"438 61 OFFCURVE",
"440 70 CURVE SMOOTH",
"446 99 OFFCURVE",
"467 151 OFFCURVE",
"505 225 CURVE SMOOTH",
"521 256 OFFCURVE",
"539 290 OFFCURVE",
"560 328 CURVE",
"557 329 OFFCURVE",
"554 329 OFFCURVE",
"550 329 CURVE SMOOTH",
"531 329 OFFCURVE",
"502 318 OFFCURVE",
"464 296 CURVE SMOOTH",
"429 276 OFFCURVE",
"399 256 OFFCURVE",
"375 235 CURVE SMOOTH",
"351 214 OFFCURVE",
"323 183 OFFCURVE",
"292 144 CURVE",
"324 207 OFFCURVE",
"349 253 OFFCURVE",
"365 284 CURVE SMOOTH",
"368 290 OFFCURVE",
"369 296 OFFCURVE",
"369 301 CURVE SMOOTH",
"369 320 OFFCURVE",
"359 329 OFFCURVE",
"340 329 CURVE SMOOTH",
"325 329 OFFCURVE",
"304 318 OFFCURVE",
"275 296 CURVE SMOOTH",
"266 289 OFFCURVE",
"241 270 OFFCURVE",
"204 234 CURVE SMOOTH",
"168 199 OFFCURVE",
"146 170 OFFCURVE",
"132 151 CURVE",
"181 265 OFFCURVE",
"218 330 OFFCURVE",
"243 345 CURVE",
"238 344 OFFCURVE",
"231 344 OFFCURVE",
"222 345 CURVE SMOOTH",
"210 347 OFFCURVE",
"203 347 OFFCURVE",
"201 347 CURVE SMOOTH",
"186 347 OFFCURVE",
"174 342 OFFCURVE",
"165 333 CURVE SMOOTH",
"156 324 OFFCURVE",
"145 307 OFFCURVE",
"133 280 CURVE SMOOTH",
"76 154 OFFCURVE",
"36 58 OFFCURVE",
"10 -7 CURVE"
);
}
);
width = 540;
}
);
leftMetricsKey = n;
note = m;
rightMetricsKey = n;
unicode = 006D;
},
{
glyphname = n;
lastChange = "2021-08-10 23:04:30 +0000";
layers = (
{
anchors = (
{
name = bottom;
position = "{143, 0}";
},
{
name = top;
position = "{300, 345}";
}
);
layerId = "3191725B-F824-48C7-90A0-BAE99CBF9356";
paths = (
{
closed = 1;
nodes = (
"10 -7 LINE",
"15 -4 OFFCURVE",
"28 -2 OFFCURVE",
"49 0 CURVE SMOOTH",
"66 2 OFFCURVE",
"76 8 OFFCURVE",
"80 18 CURVE SMOOTH",
"116 101 OFFCURVE",
"160 165 OFFCURVE",
"211 212 CURVE SMOOTH",
"243 241 OFFCURVE",
"266 257 OFFCURVE",
"281 257 CURVE SMOOTH",
"288 257 OFFCURVE",
"292 253 OFFCURVE",
"292 245 CURVE SMOOTH",
"292 238 OFFCURVE",
"289 229 OFFCURVE",
"282 218 CURVE SMOOTH",
"239 149 OFFCURVE",
"217 97 OFFCURVE",
"217 61 CURVE SMOOTH",
"217 18 OFFCURVE",
"238 -4 OFFCURVE",
"280 -4 CURVE SMOOTH",
"315 -4 OFFCURVE",
"349 22 OFFCURVE",
"383 73 CURVE",
"369 83 LINE",
"340 41 OFFCURVE",
"316 20 OFFCURVE",
"295 20 CURVE SMOOTH",
"282 20 OFFCURVE",
"276 29 OFFCURVE",
"276 46 CURVE SMOOTH",
"276 53 OFFCURVE",
"276 61 OFFCURVE",
"278 70 CURVE SMOOTH",
"283 99 OFFCURVE",
"305 151 OFFCURVE",
"343 225 CURVE SMOOTH",
"359 256 OFFCURVE",
"377 290 OFFCURVE",
"398 328 CURVE",
"395 329 OFFCURVE",
"392 329 OFFCURVE",
"388 329 CURVE SMOOTH",
"369 329 OFFCURVE",
"340 318 OFFCURVE",
"301 296 CURVE SMOOTH",
"266 277 OFFCURVE",
"237 256 OFFCURVE",
"213 234 CURVE SMOOTH",
"175 200 OFFCURVE",
"148 173 OFFCURVE",
"132 151 CURVE",
"181 265 OFFCURVE",
"218 330 OFFCURVE",
"243 345 CURVE",
"238 344 OFFCURVE",
"231 344 OFFCURVE",
"222 345 CURVE SMOOTH",
"210 347 OFFCURVE",
"203 347 OFFCURVE",
"201 347 CURVE SMOOTH",
"186 347 OFFCURVE",
"174 342 OFFCURVE",
"165 333 CURVE SMOOTH",
"156 324 OFFCURVE",
"145 307 OFFCURVE",
"133 280 CURVE SMOOTH",
"76 154 OFFCURVE",
"36 58 OFFCURVE",
"10 -7 CURVE"
);
}
);
width = 378;
}
);
note = n;
unicode = 006E;
},
{
glyphname = eng;
lastChange = "2021-08-10 19:52:28 +0000";
layers = (
{
layerId = "3191725B-F824-48C7-90A0-BAE99CBF9356";
paths = (
{
closed = 1;
nodes = (
"25 -268 LINE",
"79 -268 OFFCURVE",
"127 -235 OFFCURVE",
"155 -163 CURVE SMOOTH",
"218 -8 OFFCURVE",
"297 194 OFFCURVE",
"313 225 CURVE SMOOTH",
"329 256 OFFCURVE",
"347 290 OFFCURVE",
"368 328 CURVE",
"365 329 OFFCURVE",
"362 329 OFFCURVE",
"358 329 CURVE SMOOTH",
"339 329 OFFCURVE",
"310 318 OFFCURVE",
"271 296 CURVE SMOOTH",
"236 277 OFFCURVE",
"207 256 OFFCURVE",
"183 234 CURVE SMOOTH",
"145 200 OFFCURVE",
"118 173 OFFCURVE",
"102 151 CURVE",
"151 265 OFFCURVE",
"188 330 OFFCURVE",
"213 345 CURVE",
"208 344 OFFCURVE",
"201 344 OFFCURVE",
"192 345 CURVE SMOOTH",
"180 347 OFFCURVE",
"173 347 OFFCURVE",
"171 347 CURVE SMOOTH",
"156 347 OFFCURVE",
"144 342 OFFCURVE",
"135 333 CURVE SMOOTH",
"126 324 OFFCURVE",
"115 307 OFFCURVE",
"103 280 CURVE SMOOTH",
"46 154 OFFCURVE",
"6 58 OFFCURVE",
"-20 -7 CURVE",
"-15 -4 OFFCURVE",
"-2 -2 OFFCURVE",
"19 0 CURVE SMOOTH",
"36 2 OFFCURVE",
"46 8 OFFCURVE",
"50 18 CURVE SMOOTH",
"86 101 OFFCURVE",
"130 165 OFFCURVE",
"181 212 CURVE SMOOTH",
"213 241 OFFCURVE",
"236 257 OFFCURVE",
"251 257 CURVE SMOOTH",
"258 257 OFFCURVE",
"262 253 OFFCURVE",
"262 245 CURVE SMOOTH",
"262 238 OFFCURVE",
"258 229 OFFCURVE",
"252 218 CURVE SMOOTH",
"264 241 OFFCURVE",
"116 -134 OFFCURVE",
"99 -164 CURVE SMOOTH",
"71 -215 OFFCURVE",
"43 -240 OFFCURVE",
"16 -240 CURVE SMOOTH",
"-19 -240 OFFCURVE",
"-37 -219 OFFCURVE",
"-37 -177 CURVE SMOOTH",
"-37 -170 OFFCURVE",
"-36 -162 OFFCURVE",
"-35 -155 CURVE",
"-52 -156 LINE",
"-54 -162 OFFCURVE",
"-55 -169 OFFCURVE",
"-55 -178 CURVE SMOOTH",
"-55 -183 OFFCURVE",
"-55 -188 OFFCURVE",
"-54 -194 CURVE SMOOTH",
"-52 -211 OFFCURVE",
"-49 -224 OFFCURVE",
"-43 -233 CURVE SMOOTH",
"-27 -257 OFFCURVE",
"-5 -268 OFFCURVE",
"25 -268 CURVE"
);
}
);
width = 364;
}
);
unicode = 014B;
},
{
glyphname = o;
lastChange = "2021-08-10 23:21:52 +0000";
layers = (
{
anchors = (
{
name = bottom;
position = "{39, 0}";
},
{
name = center;
position = "{156, 183}";
},
{
name = ogonek;
position = "{158, 10}";
},
{
name = top;
position = "{251, 351}";
},
{
name = topright;
position = "{245, 318}";
}
);
layerId = "3191725B-F824-48C7-90A0-BAE99CBF9356";
paths = (
{
closed = 1;
nodes = (
"138 0 OFFCURVE",
"175 20 OFFCURVE",
"215 59 CURVE SMOOTH",
"248 92 OFFCURVE",
"273 129 OFFCURVE",
"290 168 CURVE SMOOTH",
"305 202 OFFCURVE",
"312 234 OFFCURVE",
"312 263 CURVE SMOOTH",
"312 321 OFFCURVE",
"287 350 OFFCURVE",
"238 350 CURVE SMOOTH",
"206 350 OFFCURVE",
"172 334 OFFCURVE",
"136 302 CURVE SMOOTH",
"99 269 OFFCURVE",
"71 229 OFFCURVE",
"51 182 CURVE SMOOTH",
"37 149 OFFCURVE",
"30 118 OFFCURVE",
"30 89 CURVE SMOOTH",
"30 30 OFFCURVE",
"54 0 OFFCURVE",
"103 0 CURVE"
);
},
{
closed = 1;
nodes = (
"96 22 OFFCURVE",
"85 37 OFFCURVE",
"85 66 CURVE SMOOTH",
"85 97 OFFCURVE",
"97 137 OFFCURVE",
"120 186 CURVE SMOOTH",
"137 223 OFFCURVE",
"158 255 OFFCURVE",
"183 280 CURVE SMOOTH",
"208 305 OFFCURVE",
"230 318 OFFCURVE",
"251 318 CURVE SMOOTH",
"276 318 OFFCURVE",
"289 303 OFFCURVE",
"289 273 CURVE SMOOTH",
"289 240 OFFCURVE",
"274 196 OFFCURVE",
"243 141 CURVE SMOOTH",
"215 90 OFFCURVE",
"190 57 OFFCURVE",
"168 41 CURVE SMOOTH",
"150 28 OFFCURVE",
"134 22 OFFCURVE",
"119 22 CURVE"
);
}
);
width = 284;
}
);
note = o;
unicode = 006F;
},
{
glyphname = oslash;
lastChange = "2021-08-10 19:52:28 +0000";
layers = (
{
anchors = (
{
name = top;
position = "{253, 366}";
}
);
layerId = "3191725B-F824-48C7-90A0-BAE99CBF9356";
paths = (
{
closed = 1;
nodes = (
"-18 -95 LINE",
"349 411 LINE",
"317 411 LINE",
"-50 -95 LINE",
"-50 -95 LINE"
);
},
{
closed = 1;
nodes = (
"83 0 LINE",
"118 0 OFFCURVE",
"155 20 OFFCURVE",
"195 59 CURVE SMOOTH",
"228 92 OFFCURVE",
"253 129 OFFCURVE",
"270 168 CURVE SMOOTH",
"285 202 OFFCURVE",
"292 234 OFFCURVE",
"292 263 CURVE SMOOTH",
"292 321 OFFCURVE",
"267 350 OFFCURVE",
"218 350 CURVE SMOOTH",
"186 350 OFFCURVE",
"152 334 OFFCURVE",
"116 302 CURVE SMOOTH",
"79 269 OFFCURVE",
"51 229 OFFCURVE",
"31 182 CURVE SMOOTH",
"17 149 OFFCURVE",
"10 118 OFFCURVE",
"10 89 CURVE SMOOTH",
"10 30 OFFCURVE",
"34 0 OFFCURVE",
"83 0 CURVE"
);
},
{
closed = 1;
nodes = (
"99 22 LINE",
"76 22 OFFCURVE",
"65 37 OFFCURVE",
"65 66 CURVE SMOOTH",
"65 97 OFFCURVE",
"77 137 OFFCURVE",
"100 186 CURVE SMOOTH",
"117 223 OFFCURVE",
"138 255 OFFCURVE",
"163 280 CURVE SMOOTH",
"188 305 OFFCURVE",
"210 318 OFFCURVE",
"231 318 CURVE SMOOTH",
"256 318 OFFCURVE",
"269 303 OFFCURVE",
"269 273 CURVE SMOOTH",
"269 240 OFFCURVE",
"254 196 OFFCURVE",
"223 141 CURVE SMOOTH",
"195 90 OFFCURVE",
"170 57 OFFCURVE",
"148 41 CURVE SMOOTH",
"130 28 OFFCURVE",
"114 22 OFFCURVE",
"99 22 CURVE"
);
}
);
width = 272;
}
);
unicode = 00F8;
},
{
glyphname = oe;
lastChange = "2021-08-10 19:52:28 +0000";
layers = (
{
layerId = "3191725B-F824-48C7-90A0-BAE99CBF9356";
paths = (
{
closed = 1;
nodes = (
"332 -4 LINE",
"381 -4 OFFCURVE",
"422 18 OFFCURVE",
"456 62 CURVE SMOOTH",
"472 83 OFFCURVE",
"495 124 OFFCURVE",
"524 187 CURVE SMOOTH",
"526 191 OFFCURVE",
"527 194 OFFCURVE",
"527 196 CURVE SMOOTH",
"527 200 OFFCURVE",
"525 202 OFFCURVE",
"522 202 CURVE SMOOTH",
"515 202 OFFCURVE",
"510 197 OFFCURVE",
"506 188 CURVE SMOOTH",
"457 74 OFFCURVE",
"402 17 OFFCURVE",
"341 17 CURVE SMOOTH",
"309 17 OFFCURVE",
"293 39 OFFCURVE",
"293 82 CURVE SMOOTH",
"293 108 OFFCURVE",
"298 132 OFFCURVE",
"307 154 CURVE",
"321 154 OFFCURVE",
"341 159 OFFCURVE",
"368 168 CURVE SMOOTH",
"394 177 OFFCURVE",
"414 187 OFFCURVE",
"429 198 CURVE SMOOTH",
"478 235 OFFCURVE",
"502 271 OFFCURVE",
"502 308 CURVE SMOOTH",
"502 323 OFFCURVE",
"496 335 OFFCURVE",
"485 344 CURVE SMOOTH",
"474 352 OFFCURVE",
"461 356 OFFCURVE",
"446 356 CURVE SMOOTH",
"401 356 OFFCURVE",
"354 332 OFFCURVE",
"314 279 CURVE SMOOTH",
"311 275 LINE",
"307 325 OFFCURVE",
"283 350 OFFCURVE",
"238 350 CURVE SMOOTH",
"206 350 OFFCURVE",
"172 334 OFFCURVE",
"136 302 CURVE SMOOTH",
"99 269 OFFCURVE",
"71 229 OFFCURVE",
"51 182 CURVE SMOOTH",
"37 149 OFFCURVE",
"30 118 OFFCURVE",
"30 89 CURVE SMOOTH",
"30 30 OFFCURVE",
"54 0 OFFCURVE",
"102 0 CURVE SMOOTH",
"144 0 OFFCURVE",
"189 28 OFFCURVE",
"237 86 CURVE",
"239 58 OFFCURVE",
"249 36 OFFCURVE",
"268 20 CURVE SMOOTH",
"286 4 OFFCURVE",
"307 -4 OFFCURVE",
"332 -4 CURVE"
);
},
{
closed = 1;
nodes = (
"118 22 LINE",
"96 22 OFFCURVE",
"85 37 OFFCURVE",
"85 66 CURVE SMOOTH",
"85 97 OFFCURVE",
"97 137 OFFCURVE",
"120 186 CURVE SMOOTH",
"137 223 OFFCURVE",
"158 255 OFFCURVE",
"183 280 CURVE SMOOTH",
"208 305 OFFCURVE",
"230 318 OFFCURVE",
"251 318 CURVE SMOOTH",
"274 318 OFFCURVE",
"286 302 OFFCURVE",
"286 269 CURVE SMOOTH",
"286 259 OFFCURVE",
"285 247 OFFCURVE",
"282 234 CURVE",
"261 198 OFFCURVE",
"247 163 OFFCURVE",
"240 128 CURVE",
"196 57 OFFCURVE",
"155 22 OFFCURVE",
"118 22 CURVE"
);
},
{
closed = 1;
nodes = (
"313 171 LINE",
"334 210 OFFCURVE",
"354 241 OFFCURVE",
"374 265 CURVE SMOOTH",
"412 311 OFFCURVE",
"440 334 OFFCURVE",
"459 334 CURVE SMOOTH",
"470 334 OFFCURVE",
"475 327 OFFCURVE",
"475 312 CURVE SMOOTH",
"475 279 OFFCURVE",
"457 246 OFFCURVE",
"420 215 CURVE SMOOTH",
"404 202 OFFCURVE",
"384 191 OFFCURVE",
"360 182 CURVE SMOOTH",
"341 175 OFFCURVE",
"325 171 OFFCURVE",
"313 171 CURVE"
);
}
);
width = 452;
}
);
note = oe;
unicode = 0153;
},
{
glyphname = p;
lastChange = "2021-08-10 23:06:32 +0000";
layers = (
{
layerId = "3191725B-F824-48C7-90A0-BAE99CBF9356";
paths = (
{
closed = 1;
nodes = (
"-5 -324 LINE",
"-6 -298 OFFCURVE",
"3 -250 OFFCURVE",
"22 -181 CURVE SMOOTH",
"40 -112 OFFCURVE",
"61 -46 OFFCURVE",
"86 18 CURVE",
"107 5 OFFCURVE",
"129 -1 OFFCURVE",
"154 -1 CURVE SMOOTH",
"209 -1 OFFCURVE",
"257 25 OFFCURVE",
"300 76 CURVE SMOOTH",
"323 104 OFFCURVE",
"343 137 OFFCURVE",
"360 174 CURVE SMOOTH",
"376 211 OFFCURVE",
"384 245 OFFCURVE",
"384 274 CURVE SMOOTH",
"384 295 OFFCURVE",
"379 313 OFFCURVE",
"369 327 CURVE SMOOTH",
"357 344 OFFCURVE",
"341 352 OFFCURVE",
"321 352 CURVE SMOOTH",
"279 352 OFFCURVE",
"224 295 OFFCURVE",
"155 182 CURVE",
"174 235 OFFCURVE",
"183 277 OFFCURVE",
"183 309 CURVE SMOOTH",
"183 332 OFFCURVE",
"178 344 OFFCURVE",
"166 344 CURVE SMOOTH",
"165 344 OFFCURVE",
"158 344 OFFCURVE",
"147 343 CURVE SMOOTH",
"98 335 LINE",
"113 325 OFFCURVE",
"120 308 OFFCURVE",
"120 285 CURVE SMOOTH",
"120 275 OFFCURVE",
"118 263 OFFCURVE",
"115 248 CURVE SMOOTH",
"109 223 OFFCURVE",
"104 204 OFFCURVE",
"99 189 CURVE SMOOTH",
"77 127 OFFCURVE",
"58 80 OFFCURVE",
"44 46 CURVE SMOOTH",
"-5 -70 OFFCURVE",
"-35 -148 OFFCURVE",
"-48 -186 CURVE SMOOTH",
"-56 -211 OFFCURVE",
"-60 -230 OFFCURVE",
"-60 -244 CURVE SMOOTH",
"-60 -263 OFFCURVE",
"-53 -280 OFFCURVE",
"-39 -294 CURVE SMOOTH",
"-25 -307 OFFCURVE",
"-14 -317 OFFCURVE",
"-5 -324 CURVE"
);
},
{
closed = 1;
nodes = (
"126 21 LINE",
"113 21 OFFCURVE",
"102 25 OFFCURVE",
"94 33 CURVE",
"149 136 OFFCURVE",
"193 212 OFFCURVE",
"227 260 CURVE SMOOTH",
"258 303 OFFCURVE",
"286 324 OFFCURVE",
"311 324 CURVE SMOOTH",
"329 324 OFFCURVE",
"338 313 OFFCURVE",
"338 292 CURVE SMOOTH",
"338 250 OFFCURVE",
"313 195 OFFCURVE",
"264 127 CURVE SMOOTH",
"213 56 OFFCURVE",
"167 21 OFFCURVE",
"126 21 CURVE"
);
}
);
width = 351;
}
);
note = p;
rightMetricsKey = o;
unicode = 0070;
},
{
glyphname = thorn;
lastChange = "2021-08-10 19:52:28 +0000";
layers = (
{
layerId = "3191725B-F824-48C7-90A0-BAE99CBF9356";
paths = (
{
closed = 1;
nodes = (
"-105 -274 LINE",
"-73 -276.667 OFFCURVE",
"-58.667 -264.667 OFFCURVE",
"-36 -222 CURVE SMOOTH",
"80 16 LINE",
"151.138 -26.156 OFFCURVE",
"238.747 8.222 OFFCURVE",
"294 74 CURVE SMOOTH",
"367.627 163.988 OFFCURVE",
"422.378 321.784 OFFCURVE",
"328 348 CURVE SMOOTH",
"261.673 365.857 OFFCURVE",
"186.715 238.806 OFFCURVE",
"152 182 CURVE",
"278 521 LINE",
"292.667 566.333 OFFCURVE",
"290 583.333 OFFCURVE",
"266 606 CURVE SMOOTH",
"260.667 610.667 OFFCURVE",
"253.667 612.833 OFFCURVE",
"245 612.5 CURVE SMOOTH",
"236.333 612.167 OFFCURVE",
"230 615 OFFCURVE",
"226 621 CURVE",
"226 595.991 OFFCURVE",
"204.369 503.642 OFFCURVE",
"180 421 CURVE SMOOTH",
"149.333 317 OFFCURVE",
"104 188.667 OFFCURVE",
"48 70 CURVE SMOOTH",
"34.667 42 OFFCURVE",
"11.5 -2 OFFCURVE",
"-14.5 -50 CURVE SMOOTH",
"-27.5 -74 OFFCURVE",
"-40.833 -98 OFFCURVE",
"-54.5 -122 CURVE SMOOTH",
"-81.833 -170 OFFCURVE",
"-107.167 -212.833 OFFCURVE",
"-126.5 -241.5 CURVE SMOOTH",
"-136.167 -255.833 OFFCURVE",
"-143 -265 OFFCURVE",
"-147 -269 CURVE",
"-139.667 -267.667 OFFCURVE",
"-132.5 -268 OFFCURVE",
"-125.5 -270 CURVE SMOOTH",
"-118.5 -272 OFFCURVE",
"-111.667 -273.333 OFFCURVE",
"-105 -274 CURVE"
);
},
{
closed = 1;
nodes = (
"88 31 LINE",
"134.667 119 OFFCURVE",
"183.333 206 OFFCURVE",
"222 258 CURVE SMOOTH",
"303.427 372.506 OFFCURVE",
"370.683 320.218 OFFCURVE",
"301 192 CURVE SMOOTH",
"249.48 96.689 OFFCURVE",
"138.18 -19.18 OFFCURVE",
"88 31 CURVE"
);
}
);
userData = {
assembly = "PUSHW[ ]	/* 4 values pushed */\01250 3 5 4 \012CALL[ ]	/* CallFunction */\012NPUSHW[ ]	/* 5 values pushed */\01210 5 26 5 2 \012DELTAP2[ ]	/* DeltaExceptionP2 */\012NPUSHW[ ]	/* 33 values pushed */\0129 5 25 5 41 5 57 5 73 5 89 5 105 5 121 5 137 5 153 5 169 5 185 5 201 5 217 5 233 5 249 5 16 \012DELTAP1[ ]	/* DeltaExceptionP1 */\012PUSHW[ ]	/* 1 value pushed */\0125 \012SRP0[ ]	/* SetRefPoint0 */\012PUSHW[ ]	/* 1 value pushed */\01247 \012MDRP[10000]	/* MoveDirectRelPt */\012PUSHW[ ]	/* 1 value pushed */\01247 \012MDAP[1]	/* MoveDirectAbsPt */\012IUP[0]	/* InterpolateUntPts */\012IUP[1]	/* InterpolateUntPts */";
};
width = 385;
}
);
note = thorn;
unicode = 00FE;
},
{
glyphname = q;
lastChange = "2021-08-10 23:05:29 +0000";
layers = (
{
layerId = "3191725B-F824-48C7-90A0-BAE99CBF9356";
paths = (
{
closed = 1;
nodes = (
"166 -287 LINE",
"169 -254 OFFCURVE",
"193 -171 OFFCURVE",
"240 -38 CURVE SMOOTH",
"289 100 OFFCURVE",
"330 197 OFFCURVE",
"362 253 CURVE",
"357 252 OFFCURVE",
"351 253 OFFCURVE",
"344 254 CURVE SMOOTH",
"335 256 OFFCURVE",
"330 257 OFFCURVE",
"327 257 CURVE SMOOTH",
"315 258 OFFCURVE",
"305 256 OFFCURVE",
"297 249 CURVE SMOOTH",
"290 243 OFFCURVE",
"279 229 OFFCURVE",
"266 207 CURVE SMOOTH",
"195 90 OFFCURVE",
"143 31 OFFCURVE",
"111 31 CURVE SMOOTH",
"107 31 OFFCURVE",
"103 32 OFFCURVE",
"100 33 CURVE SMOOTH",
"86 39 OFFCURVE",
"80 51 OFFCURVE",
"80 69 CURVE SMOOTH",
"80 84 OFFCURVE",
"84 103 OFFCURVE",
"94 126 CURVE SMOOTH",
"113 173 OFFCURVE",
"142 219 OFFCURVE",
"183 263 CURVE SMOOTH",
"226 310 OFFCURVE",
"263 333 OFFCURVE",
"293 333 CURVE SMOOTH",
"314 333 OFFCURVE",
"329 321 OFFCURVE",
"338 296 CURVE SMOOTH",
"341 288 OFFCURVE",
"345 284 OFFCURVE",
"351 284 CURVE SMOOTH",
"360 284 OFFCURVE",
"364 289 OFFCURVE",
"364 299 CURVE SMOOTH",
"364 308 OFFCURVE",
"359 316 OFFCURVE",
"348 325 CURVE SMOOTH",
"323 345 OFFCURVE",
"294 355 OFFCURVE",
"263 355 CURVE SMOOTH",
"208 355 OFFCURVE",
"158 330 OFFCURVE",
"116 279 CURVE SMOOTH",
"58 210 OFFCURVE",
"30 146 OFFCURVE",
"30 87 CURVE SMOOTH",
"30 47 OFFCURVE",
"47 19 OFFCURVE",
"82 4 CURVE",
"89 2 OFFCURVE",
"95 1 OFFCURVE",
"102 1 CURVE SMOOTH",
"132 1 OFFCURVE",
"162 20 OFFCURVE",
"192 56 CURVE SMOOTH",
"197 62 OFFCURVE",
"210 79 OFFCURVE",
"229 108 CURVE SMOOTH",
"248 136 OFFCURVE",
"260 153 OFFCURVE",
"263 158 CURVE",
"134 -162 LINE SMOOTH",
"124 -187 OFFCURVE",
"119 -206 OFFCURVE",
"119 -219 CURVE SMOOTH",
"119 -234 OFFCURVE",
"124 -246 OFFCURVE",
"135 -257 CURVE SMOOTH",
"148 -270 OFFCURVE",
"159 -280 OFFCURVE",
"166 -287 CURVE"
);
}
);
width = 348;
}
);
leftMetricsKey = o;
note = q;
unicode = 0071;
},
{
glyphname = r;
lastChange = "2021-08-10 23:06:51 +0000";
layers = (
{
anchors = (
{
name = bottom;
position = "{37, 7}";
},
{
name = top;
position = "{248, 338}";
}
);
layerId = "3191725B-F824-48C7-90A0-BAE99CBF9356";
paths = (
{
closed = 1;
nodes = (
"10 -7 LINE",
"14 -4 OFFCURVE",
"27 -3 OFFCURVE",
"49 -2 CURVE SMOOTH",
"66 -1 OFFCURVE",
"76 5 OFFCURVE",
"79 14 CURVE SMOOTH",
"114 119 OFFCURVE",
"168 201 OFFCURVE",
"242 261 CURVE SMOOTH",
"251 268 OFFCURVE",
"258 272 OFFCURVE",
"265 272 CURVE SMOOTH",
"274 272 OFFCURVE",
"279 266 OFFCURVE",
"279 255 CURVE SMOOTH",
"279 249 OFFCURVE",
"278 243 OFFCURVE",
"275 237 CURVE",
"280 229 OFFCURVE",
"288 225 OFFCURVE",
"297 225 CURVE SMOOTH",
"308 225 OFFCURVE",
"319 230 OFFCURVE",
"330 241 CURVE SMOOTH",
"344 254 OFFCURVE",
"350 268 OFFCURVE",
"350 284 CURVE SMOOTH",
"350 297 OFFCURVE",
"347 307 OFFCURVE",
"341 316 CURVE SMOOTH",
"334 327 OFFCURVE",
"322 333 OFFCURVE",
"307 333 CURVE SMOOTH",
"302 333 OFFCURVE",
"296 332 OFFCURVE",
"289 330 CURVE SMOOTH",
"264 323 OFFCURVE",
"229 294 OFFCURVE",
"187 241 CURVE SMOOTH",
"157 202 OFFCURVE",
"138 171 OFFCURVE",
"126 152 CURVE",
"165 258 OFFCURVE",
"197 318 OFFCURVE",
"221 332 CURVE",
"215 331 OFFCURVE",
"208 331 OFFCURVE",
"199 333 CURVE SMOOTH",
"178 336 LINE SMOOTH",
"163 337 OFFCURVE",
"151 333 OFFCURVE",
"143 324 CURVE SMOOTH",
"135 315 OFFCURVE",
"124 299 OFFCURVE",
"114 273 CURVE SMOOTH",
"66 150 OFFCURVE",
"32 56 OFFCURVE",
"10 -7 CURVE"
);
}
);
width = 285;
}
);
leftMetricsKey = n;
note = r;
unicode = 0072;
},
{
glyphname = s;
lastChange = "2021-08-10 23:25:12 +0000";
layers = (
{
anchors = (
{
name = bottom;
position = "{81, 0}";
},
{
name = top;
position = "{214, 363}";
}
);
layerId = "3191725B-F824-48C7-90A0-BAE99CBF9356";
paths = (
{
closed = 1;
nodes = (
"114 -4 LINE",
"143 -4 OFFCURVE",
"172 7 OFFCURVE",
"199 30 CURVE SMOOTH",
"226 52 OFFCURVE",
"239 77 OFFCURVE",
"239 106 CURVE SMOOTH",
"239 124 OFFCURVE",
"231 146 OFFCURVE",
"214 173 CURVE SMOOTH",
"189 212 OFFCURVE",
"176 233 OFFCURVE",
"175 236 CURVE SMOOTH",
"167 253 OFFCURVE",
"163 269 OFFCURVE",
"163 284 CURVE SMOOTH",
"163 305 OFFCURVE",
"171 323 OFFCURVE",
"187 337 CURVE SMOOTH",
"193 343 OFFCURVE",
"202 345 OFFCURVE",
"212 345 CURVE SMOOTH",
"225 345 OFFCURVE",
"233 341 OFFCURVE",
"238 332 CURVE",
"225 325 OFFCURVE",
"218 318 OFFCURVE",
"216 312 CURVE SMOOTH",
"214 307 OFFCURVE",
"213 301 OFFCURVE",
"213 295 CURVE SMOOTH",
"213 272 OFFCURVE",
"224 261 OFFCURVE",
"246 261 CURVE SMOOTH",
"266 261 OFFCURVE",
"279 270 OFFCURVE",
"285 287 CURVE SMOOTH",
"288 294 OFFCURVE",
"289 301 OFFCURVE",
"289 307 CURVE SMOOTH",
"289 324 OFFCURVE",
"281 338 OFFCURVE",
"266 349 CURVE SMOOTH",
"251 359 OFFCURVE",
"233 363 OFFCURVE",
"214 363 CURVE SMOOTH",
"180 363 OFFCURVE",
"153 354 OFFCURVE",
"132 337 CURVE SMOOTH",
"111 320 OFFCURVE",
"101 297 OFFCURVE",
"101 270 CURVE SMOOTH",
"101 254 OFFCURVE",
"104 237 OFFCURVE",
"113 221 CURVE SMOOTH",
"129 191 OFFCURVE",
"142 170 OFFCURVE",
"151 157 CURVE",
"162 131 OFFCURVE",
"168 107 OFFCURVE",
"168 85 CURVE SMOOTH",
"168 60 OFFCURVE",
"160 41 OFFCURVE",
"145 27 CURVE SMOOTH",
"134 18 OFFCURVE",
"122 13 OFFCURVE",
"107 13 CURVE SMOOTH",
"94 13 OFFCURVE",
"83 17 OFFCURVE",
"74 26 CURVE SMOOTH",
"66 34 OFFCURVE",
"62 44 OFFCURVE",
"62 57 CURVE SMOOTH",
"62 70 OFFCURVE",
"66 81 OFFCURVE",
"75 92 CURVE SMOOTH",
"78 96 OFFCURVE",
"79 100 OFFCURVE",
"79 105 CURVE SMOOTH",
"79 114 OFFCURVE",
"76 121 OFFCURVE",
"69 128 CURVE SMOOTH",
"62 134 OFFCURVE",
"55 137 OFFCURVE",
"47 137 CURVE SMOOTH",
"26 137 OFFCURVE",
"15 119 OFFCURVE",
"15 86 CURVE SMOOTH",
"15 63 OFFCURVE",
"22 43 OFFCURVE",
"37 26 CURVE SMOOTH",
"55 6 OFFCURVE",
"81 -4 OFFCURVE",
"114 -4 CURVE"
);
}
);
width = 249;
}
);
note = s;
unicode = 0073;
},
{
glyphname = germandbls;
lastChange = "2021-08-10 19:52:28 +0000";
layers = (
{
background = {
hints = (
{
horizontal = 1;
place = "{-4, 18}";
type = Stem;
},
{
horizontal = 1;
place = "{346, 18}";
type = Stem;
},
{
place = "{220, 48}";
type = Stem;
},
{
place = "{306, 62}";
type = Stem;
},
{
place = "{374, 72}";
type = Stem;
}
);
paths = (
{
closed = 1;
nodes = (
"430 376 OFFCURVE",
"438 397 OFFCURVE",
"419 397 CURVE SMOOTH",
"385 397 OFFCURVE",
"358 386 OFFCURVE",
"337 366 CURVE SMOOTH",
"316 347 OFFCURVE",
"306 320 OFFCURVE",
"306 288 CURVE SMOOTH",
"306 208 OFFCURVE",
"381 162 OFFCURVE",
"381 92 CURVE SMOOTH",
"381 52 OFFCURVE",
"349 13 OFFCURVE",
"312 13 CURVE SMOOTH",
"299 13 OFFCURVE",
"288 17 OFFCURVE",
"279 26 CURVE SMOOTH",
"271 34 OFFCURVE",
"267 44 OFFCURVE",
"267 57 CURVE SMOOTH",
"267 70 OFFCURVE",
"271 81 OFFCURVE",
"280 92 CURVE SMOOTH",
"283 96 OFFCURVE",
"284 100 OFFCURVE",
"284 105 CURVE SMOOTH",
"284 114 OFFCURVE",
"281 121 OFFCURVE",
"274 128 CURVE SMOOTH",
"267 134 OFFCURVE",
"260 137 OFFCURVE",
"252 137 CURVE SMOOTH",
"231 137 OFFCURVE",
"220 119 OFFCURVE",
"220 86 CURVE SMOOTH",
"220 63 OFFCURVE",
"227 43 OFFCURVE",
"242 26 CURVE SMOOTH",
"260 6 OFFCURVE",
"286 -4 OFFCURVE",
"319 -4 CURVE SMOOTH",
"374 -4 OFFCURVE",
"433 44 OFFCURVE",
"444 106 CURVE SMOOTH",
"458 182 OFFCURVE",
"378 242 OFFCURVE",
"368 305 CURVE SMOOTH",
"364 329 OFFCURVE",
"376 350 OFFCURVE",
"392 366 CURVE SMOOTH",
"398 373 OFFCURVE",
"407 376 OFFCURVE",
"417 376 CURVE SMOOTH"
);
}
);
};
layerId = "3191725B-F824-48C7-90A0-BAE99CBF9356";
paths = (
{
closed = 1;
nodes = (
"-267 -326 LINE",
"-261 -326 OFFCURVE",
"-255 -325 OFFCURVE",
"-249 -325 CURVE SMOOTH",
"-174 -320 OFFCURVE",
"-83 -268 OFFCURVE",
"0 -171 CURVE SMOOTH",
"75 -84 OFFCURVE",
"172 169 OFFCURVE",
"293 531 CURVE SMOOTH",
"323 624 OFFCURVE",
"378 666 OFFCURVE",
"421 666 CURVE SMOOTH",
"457 666 OFFCURVE",
"486 637 OFFCURVE",
"486 585 CURVE SMOOTH",
"486 575 OFFCURVE",
"485 565 OFFCURVE",
"483 553 CURVE SMOOTH",
"474 510 OFFCURVE",
"452 438 OFFCURVE",
"398 420 CURVE",
"362 415 OFFCURVE",
"306 390 OFFCURVE",
"306 309 CURVE SMOOTH",
"306 224 OFFCURVE",
"381 174 OFFCURVE",
"381 99 CURVE SMOOTH",
"381 56 OFFCURVE",
"349 14 OFFCURVE",
"312 14 CURVE SMOOTH",
"299 14 OFFCURVE",
"288 19 OFFCURVE",
"279 28 CURVE SMOOTH",
"271 37 OFFCURVE",
"267 48 OFFCURVE",
"267 61 CURVE SMOOTH",
"267 75 OFFCURVE",
"271 87 OFFCURVE",
"280 99 CURVE SMOOTH",
"283 103 OFFCURVE",
"284 108 OFFCURVE",
"284 113 CURVE SMOOTH",
"284 123 OFFCURVE",
"281 130 OFFCURVE",
"274 138 CURVE SMOOTH",
"267 144 OFFCURVE",
"260 147 OFFCURVE",
"252 147 CURVE SMOOTH",
"231 147 OFFCURVE",
"220 128 OFFCURVE",
"220 93 CURVE SMOOTH",
"220 68 OFFCURVE",
"227 46 OFFCURVE",
"242 28 CURVE SMOOTH",
"260 7 OFFCURVE",
"286 -4 OFFCURVE",
"319 -4 CURVE SMOOTH",
"379 -4 OFFCURVE",
"446 59 OFFCURVE",
"446 134 CURVE SMOOTH",
"446 212 OFFCURVE",
"367 275 OFFCURVE",
"367 343 CURVE SMOOTH",
"367 364 OFFCURVE",
"374 385 OFFCURVE",
"392 393 CURVE SMOOTH",
"421 406 OFFCURVE",
"516 447 OFFCURVE",
"533 557 CURVE SMOOTH",
"534 566 OFFCURVE",
"535 575 OFFCURVE",
"535 584 CURVE SMOOTH",
"535 657 OFFCURVE",
"486 695 OFFCURVE",
"426 695 CURVE SMOOTH",
"361 695 OFFCURVE",
"282 648 OFFCURVE",
"244 550 CURVE SMOOTH",
"137 272 OFFCURVE",
"0 -88 OFFCURVE",
"-89 -188 CURVE SMOOTH",
"-170 -279 OFFCURVE",
"-210 -286 OFFCURVE",
"-249 -296 CURVE SMOOTH",
"-256 -298 OFFCURVE",
"-263 -299 OFFCURVE",
"-270 -299 CURVE SMOOTH",
"-301 -299 OFFCURVE",
"-321 -289 OFFCURVE",
"-335 -272 CURVE SMOOTH",
"-329 -279 OFFCURVE",
"-321 -282 OFFCURVE",
"-312 -282 CURVE SMOOTH",
"-301 -282 OFFCURVE",
"-292 -278 OFFCURVE",
"-283 -270 CURVE SMOOTH",
"-274 -262 OFFCURVE",
"-270 -250 OFFCURVE",
"-270 -238 CURVE SMOOTH",
"-270 -230 OFFCURVE",
"-272 -222 OFFCURVE",
"-278 -215 CURVE SMOOTH",
"-284 -208 OFFCURVE",
"-293 -204 OFFCURVE",
"-304 -204 CURVE SMOOTH",
"-319 -204 OFFCURVE",
"-332 -210 OFFCURVE",
"-342 -222 CURVE SMOOTH",
"-351 -232 OFFCURVE",
"-356 -245 OFFCURVE",
"-356 -258 CURVE SMOOTH",
"-356 -301 OFFCURVE",
"-325 -326 OFFCURVE",
"-267 -326 CURVE"
);
}
);
width = 495;
}
);
note = germandbls;
unicode = 00DF;
},
{
glyphname = t;
lastChange = "2021-08-10 23:09:09 +0000";
layers = (
{
anchors = (
{
name = bottom;
position = "{94, 8}";
},
{
name = center;
position = "{160, 289}";
},
{
name = top;
position = "{243, 499}";
},
{
name = topright;
position = "{299, 578}";
}
);
layerId = "3191725B-F824-48C7-90A0-BAE99CBF9356";
paths = (
{
closed = 1;
nodes = (
"120 0 LINE",
"151 0 OFFCURVE",
"183 23 OFFCURVE",
"215 68 CURVE",
"203 82 LINE",
"176 42 OFFCURVE",
"154 22 OFFCURVE",
"135 22 CURVE SMOOTH",
"115 22 OFFCURVE",
"106 38 OFFCURVE",
"109 71 CURVE SMOOTH",
"111 98 OFFCURVE",
"126 143 OFFCURVE",
"150 206 CURVE SMOOTH",
"160 233 OFFCURVE",
"172 262 OFFCURVE",
"186 293 CURVE SMOOTH",
"196 315 OFFCURVE",
"205 337 OFFCURVE",
"214 358 CURVE",
"287 358 LINE",
"299 380 LINE",
"223 380 LINE",
"256 457 LINE SMOOTH",
"263 474 OFFCURVE",
"273 487 OFFCURVE",
"286 498 CURVE",
"243 499 LINE SMOOTH",
"226 499 OFFCURVE",
"215 497 OFFCURVE",
"211 494 CURVE SMOOTH",
"205 489 OFFCURVE",
"198 475 OFFCURVE",
"189 450 CURVE SMOOTH",
"165 380 LINE",
"103 380 LINE",
"91 358 LINE",
"156 358 LINE",
"131 299 OFFCURVE",
"101 223 OFFCURVE",
"66 130 CURVE SMOOTH",
"58 110 OFFCURVE",
"55 90 OFFCURVE",
"55 71 CURVE SMOOTH",
"55 24 OFFCURVE",
"77 0 OFFCURVE",
"120 0 CURVE"
);
}
);
width = 219;
}
);
note = t;
unicode = 0074;
},
{
glyphname = u;
lastChange = "2021-08-10 23:24:32 +0000";
layers = (
{
anchors = (
{
name = bottom;
position = "{133, 0}";
},
{
name = ogonek;
position = "{358, 15}";
},
{
name = top;
position = "{273, 343}";
},
{
name = topright;
position = "{312, 319}";
}
);
layerId = "3191725B-F824-48C7-90A0-BAE99CBF9356";
paths = (
{
closed = 1;
nodes = (
"98 1 LINE",
"140 1 OFFCURVE",
"185 44 OFFCURVE",
"234 129 CURVE",
"227 108 OFFCURVE",
"224 89 OFFCURVE",
"224 72 CURVE SMOOTH",
"224 25 OFFCURVE",
"243 1 OFFCURVE",
"280 1 CURVE SMOOTH",
"315 1 OFFCURVE",
"351 28 OFFCURVE",
"387 81 CURVE",
"372 88 LINE",
"346 50 OFFCURVE",
"323 31 OFFCURVE",
"304 31 CURVE SMOOTH",
"285 31 OFFCURVE",
"277 44 OFFCURVE",
"277 70 CURVE SMOOTH",
"277 76 OFFCURVE",
"277 83 OFFCURVE",
"279 91 CURVE SMOOTH",
"286 127 OFFCURVE",
"306 178 OFFCURVE",
"339 245 CURVE SMOOTH",
"363 293 OFFCURVE",
"386 326 OFFCURVE",
"408 344 CURVE",
"354 344 LINE SMOOTH",
"335 344 OFFCURVE",
"323 337 OFFCURVE",
"316 323 CURVE SMOOTH",
"254 195 OFFCURVE",
"205 110 OFFCURVE",
"168 67 CURVE SMOOTH",
"146 42 OFFCURVE",
"127 29 OFFCURVE",
"111 29 CURVE SMOOTH",
"96 29 OFFCURVE",
"89 40 OFFCURVE",
"89 61 CURVE SMOOTH",
"89 80 OFFCURVE",
"95 104 OFFCURVE",
"108 131 CURVE SMOOTH",
"134 187 OFFCURVE",
"155 230 OFFCURVE",
"170 260 CURVE SMOOTH",
"189 298 OFFCURVE",
"210 326 OFFCURVE",
"234 344 CURVE",
"174 344 LINE SMOOTH",
"155 344 OFFCURVE",
"141 337 OFFCURVE",
"135 323 CURVE SMOOTH",
"80 202 LINE SMOOTH",
"50 136 OFFCURVE",
"34 89 OFFCURVE",
"34 61 CURVE SMOOTH",
"34 21 OFFCURVE",
"55 1 OFFCURVE",
"98 1 CURVE"
);
}
);
width = 374;
}
);
note = u;
unicode = 0075;
},
{
glyphname = v;
lastChange = "2021-08-10 23:09:34 +0000";
layers = (
{
layerId = "3191725B-F824-48C7-90A0-BAE99CBF9356";
paths = (
{
closed = 1;
nodes = (
"109 -7 LINE",
"161 -7 OFFCURVE",
"210 37 OFFCURVE",
"256 125 CURVE SMOOTH",
"280 171 OFFCURVE",
"306 240 OFFCURVE",
"335 331 CURVE SMOOTH",
"340 349 LINE",
"340 360 OFFCURVE",
"334 365 OFFCURVE",
"322 365 CURVE SMOOTH",
"310 365 OFFCURVE",
"298 359 OFFCURVE",
"285 347 CURVE SMOOTH",
"270 334 OFFCURVE",
"259 315 OFFCURVE",
"252 291 CURVE SMOOTH",
"249 280 OFFCURVE",
"247 268 OFFCURVE",
"247 255 CURVE SMOOTH",
"247 231 OFFCURVE",
"251 210 OFFCURVE",
"260 191 CURVE",
"216 81 OFFCURVE",
"174 26 OFFCURVE",
"134 26 CURVE SMOOTH",
"111 26 OFFCURVE",
"99 41 OFFCURVE",
"99 70 CURVE SMOOTH",
"99 109 OFFCURVE",
"121 172 OFFCURVE",
"164 259 CURVE SMOOTH",
"183 297 OFFCURVE",
"204 326 OFFCURVE",
"228 343 CURVE",
"167 343 LINE SMOOTH",
"148 343 OFFCURVE",
"135 336 OFFCURVE",
"128 322 CURVE SMOOTH",
"106 276 OFFCURVE",
"84 227 OFFCURVE",
"63 175 CURVE SMOOTH",
"49 140 OFFCURVE",
"42 107 OFFCURVE",
"42 76 CURVE SMOOTH",
"42 19 OFFCURVE",
"64 -7 OFFCURVE",
"109 -7 CURVE"
);
}
);
width = 288;
}
);
note = v;
unicode = 0076;
},
{
glyphname = w;
lastChange = "2021-08-10 23:09:45 +0000";
layers = (
{
anchors = (
{
name = bottom;
position = "{207, 0}";
},
{
name = top;
position = "{365, 344}";
}
);
layerId = "3191725B-F824-48C7-90A0-BAE99CBF9356";
paths = (
{
closed = 1;
nodes = (
"302 -2 LINE",
"356 -2 OFFCURVE",
"405 41 OFFCURVE",
"449 128 CURVE SMOOTH",
"472 173 OFFCURVE",
"497 241 OFFCURVE",
"524 332 CURVE SMOOTH",
"529 350 LINE",
"529 361 OFFCURVE",
"523 366 OFFCURVE",
"512 366 CURVE SMOOTH",
"501 366 OFFCURVE",
"489 360 OFFCURVE",
"477 348 CURVE SMOOTH",
"463 335 OFFCURVE",
"453 316 OFFCURVE",
"446 292 CURVE SMOOTH",
"442 279 OFFCURVE",
"440 266 OFFCURVE",
"440 253 CURVE SMOOTH",
"440 233 OFFCURVE",
"445 213 OFFCURVE",
"454 192 CURVE",
"408 76 OFFCURVE",
"360 18 OFFCURVE",
"311 18 CURVE SMOOTH",
"289 18 OFFCURVE",
"279 31 OFFCURVE",
"279 61 CURVE SMOOTH",
"279 101 OFFCURVE",
"292 148 OFFCURVE",
"318 202 CURVE SMOOTH",
"339 245 OFFCURVE",
"357 280 OFFCURVE",
"373 307 CURVE",
"390 326 OFFCURVE",
"404 339 OFFCURVE",
"413 344 CURVE",
"352 344 LINE SMOOTH",
"333 344 OFFCURVE",
"321 337 OFFCURVE",
"314 323 CURVE SMOOTH",
"288 267 OFFCURVE",
"264 210 OFFCURVE",
"237 155 CURVE SMOOTH",
"195 70 OFFCURVE",
"159 28 OFFCURVE",
"132 28 CURVE SMOOTH",
"110 28 OFFCURVE",
"99 43 OFFCURVE",
"99 74 CURVE SMOOTH",
"99 115 OFFCURVE",
"122 180 OFFCURVE",
"165 268 CURVE SMOOTH",
"184 307 OFFCURVE",
"206 335 OFFCURVE",
"229 352 CURVE",
"169 353 LINE SMOOTH",
"150 353 OFFCURVE",
"137 346 OFFCURVE",
"130 331 CURVE SMOOTH",
"72 210 OFFCURVE",
"42 129 OFFCURVE",
"42 87 CURVE SMOOTH",
"42 34 OFFCURVE",
"66 5 OFFCURVE",
"113 0 CURVE SMOOTH",
"136 -2 OFFCURVE",
"161 14 OFFCURVE",
"186 49 CURVE SMOOTH",
"192 57 OFFCURVE",
"209 86 OFFCURVE",
"236 135 CURVE",
"232 121 OFFCURVE",
"230 106 OFFCURVE",
"230 89 CURVE SMOOTH",
"230 27 OFFCURVE",
"254 -2 OFFCURVE",
"302 -2 CURVE"
);
}
);
width = 477;
}
);
leftMetricsKey = v;
note = w;
rightMetricsKey = v;
unicode = 0077;
},
{
glyphname = x;
lastChange = "2021-08-10 23:09:57 +0000";
layers = (
{
layerId = "3191725B-F824-48C7-90A0-BAE99CBF9356";
paths = (
{
closed = 1;
nodes = (
"-21 -34 LINE",
"-8 -34 OFFCURVE",
"5 -31 OFFCURVE",
"19 -24 CURVE SMOOTH",
"56 -6 OFFCURVE",
"94 41 OFFCURVE",
"133 118 CURVE",
"132 109 OFFCURVE",
"132 102 OFFCURVE",
"132 93 CURVE SMOOTH",
"132 70 OFFCURVE",
"138 51 OFFCURVE",
"149 33 CURVE SMOOTH",
"163 11 OFFCURVE",
"182 0 OFFCURVE",
"205 0 CURVE SMOOTH",
"248 0 OFFCURVE",
"287 27 OFFCURVE",
"321 80 CURVE",
"306 88 LINE",
"291 65 OFFCURVE",
"277 49 OFFCURVE",
"263 38 CURVE SMOOTH",
"249 27 OFFCURVE",
"236 22 OFFCURVE",
"225 22 CURVE SMOOTH",
"201 22 OFFCURVE",
"189 46 OFFCURVE",
"189 94 CURVE SMOOTH",
"189 169 OFFCURVE",
"224 240 OFFCURVE",
"294 308 CURVE",
"297 297 OFFCURVE",
"306 291 OFFCURVE",
"319 291 CURVE SMOOTH",
"328 291 OFFCURVE",
"337 294 OFFCURVE",
"346 301 CURVE SMOOTH",
"355 308 OFFCURVE",
"359 316 OFFCURVE",
"359 326 CURVE SMOOTH",
"359 345 OFFCURVE",
"350 354 OFFCURVE",
"331 354 CURVE SMOOTH",
"328 354 OFFCURVE",
"324 354 OFFCURVE",
"319 353 CURVE SMOOTH",
"305 349 OFFCURVE",
"286 333 OFFCURVE",
"262 304 CURVE SMOOTH",
"239 275 OFFCURVE",
"218 244 OFFCURVE",
"200 209 CURVE",
"205 232 OFFCURVE",
"207 251 OFFCURVE",
"207 266 CURVE SMOOTH",
"207 311 OFFCURVE",
"189 335 OFFCURVE",
"155 335 CURVE SMOOTH",
"127 335 OFFCURVE",
"100 314 OFFCURVE",
"75 272 CURVE",
"90 266 LINE",
"107 294 OFFCURVE",
"123 308 OFFCURVE",
"136 308 CURVE SMOOTH",
"148 308 OFFCURVE",
"154 299 OFFCURVE",
"154 281 CURVE SMOOTH",
"154 236 OFFCURVE",
"141 181 OFFCURVE",
"111 119 CURVE SMOOTH",
"80 53 OFFCURVE",
"46 13 OFFCURVE",
"11 -4 CURVE SMOOTH",
"-1 -10 OFFCURVE",
"-11 -12 OFFCURVE",
"-19 -12 CURVE SMOOTH",
"-28 -12 OFFCURVE",
"-35 -10 OFFCURVE",
"-40 -4 CURVE SMOOTH",
"-42 -2 OFFCURVE",
"-44 -1 OFFCURVE",
"-47 -1 CURVE SMOOTH",
"-55 -1 OFFCURVE",
"-59 -5 OFFCURVE",
"-59 -13 CURVE SMOOTH",
"-59 -16 OFFCURVE",
"-58 -18 OFFCURVE",
"-56 -20 CURVE SMOOTH",
"-47 -29 OFFCURVE",
"-36 -34 OFFCURVE",
"-21 -34 CURVE"
);
}
);
width = 311;
}
);
note = x;
unicode = 0078;
},
